M48
METRIC
T1C1.000
T2C1.100
T3C1.300
T4C3.200
%
G90
G05
T1
X106.75Y-105.38
X106.75Y-107.92
X106.75Y-110.46
X106.75Y-113.0
X106.75Y-115.54
X106.75Y-118.08
X106.75Y-120.62
X106.75Y-123.16
X106.75Y-125.7
X110.2Y-86.0
X110.38Y-81.0
X112.74Y-86.0
X112.92Y-81.0
X115.28Y-86.0
X115.46Y-81.0
X117.82Y-86.0
X118.0Y-81.0
X120.54Y-81.0
X123.08Y-81.0
T2
X113.75Y-95.5
X113.75Y-102.0
X113.75Y-106.5
X113.75Y-113.0
X113.75Y-117.5
X113.75Y-124.0
X113.75Y-128.5
X113.75Y-135.0
X118.25Y-95.5
X118.25Y-102.0
X118.25Y-106.5
X118.25Y-113.0
X118.25Y-117.5
X118.25Y-124.0
X118.25Y-128.5
X118.25Y-135.0
X122.5Y-92.0
X122.5Y-98.5
X122.5Y-103.25
X122.5Y-109.75
X122.5Y-114.25
X122.5Y-120.75
X122.5Y-125.25
X122.5Y-131.75
X127.0Y-92.0
X127.0Y-98.5
X127.0Y-103.25
X127.0Y-109.75
X127.0Y-114.25
X127.0Y-120.75
X127.0Y-125.25
X127.0Y-131.75
T3
X115.0Y-64.0
X115.0Y-69.0
X115.0Y-74.0
X123.0Y-64.0
X123.0Y-69.0
X123.0Y-74.0
T4
X107.5Y-63.5
X107.5Y-92.5
X107.5Y-134.5
X127.5Y-84.5
M30
