%TF.GenerationSoftware,KiCad,Pcbnew,8.0.5*%
%TF.CreationDate,2024-11-19T12:43:18+11:00*%
%TF.ProjectId,wheel,77686565-6c2e-46b6-9963-61645f706362,rev?*%
%TF.SameCoordinates,Original*%
%TF.FileFunction,Copper,L1,Top*%
%TF.FilePolarity,Positive*%
%FSLAX46Y46*%
G04 Gerber Fmt 4.6, Leading zero omitted, Abs format (unit mm)*
G04 Created by KiCad (PCBNEW 8.0.5) date 2024-11-19 12:43:18*
%MOMM*%
%LPD*%
G01*
G04 APERTURE LIST*
%TA.AperFunction,ComponentPad*%
%ADD10C,5.700000*%
%TD*%
%TA.AperFunction,ComponentPad*%
%ADD11R,1.700000X1.700000*%
%TD*%
%TA.AperFunction,ComponentPad*%
%ADD12O,1.700000X1.700000*%
%TD*%
%TA.AperFunction,ComponentPad*%
%ADD13C,2.340000*%
%TD*%
%TA.AperFunction,ComponentPad*%
%ADD14C,2.000000*%
%TD*%
%TA.AperFunction,Conductor*%
%ADD15C,1.600000*%
%TD*%
G04 APERTURE END LIST*
D10*
%TO.P,REF\u002A\u002A,1*%
%TO.N,N/C*%
X107500000Y-134500000D03*
%TD*%
%TO.P,REF\u002A\u002A,1*%
%TO.N,N/C*%
X107500000Y-92500000D03*
%TD*%
%TO.P,REF\u002A\u002A,1*%
%TO.N,N/C*%
X107500000Y-63500000D03*
%TD*%
%TO.P,REF\u002A\u002A,1*%
%TO.N,N/C*%
X127500000Y-84500000D03*
%TD*%
D11*
%TO.P,J3,1,Pin_1*%
%TO.N,GND*%
X110200000Y-86000000D03*
D12*
%TO.P,J3,2,Pin_2*%
%TO.N,A*%
X112740000Y-86000000D03*
%TO.P,J3,3,Pin_3*%
%TO.N,B*%
X115280000Y-86000000D03*
%TO.P,J3,4,Pin_4*%
%TO.N,5V*%
X117820000Y-86000000D03*
%TD*%
D11*
%TO.P,J2,1,Pin_1*%
%TO.N,GND*%
X110380000Y-81000000D03*
D12*
%TO.P,J2,2,Pin_2*%
%TO.N,A*%
X112920000Y-81000000D03*
%TO.P,J2,3,Pin_3*%
%TO.N,B*%
X115460000Y-81000000D03*
%TO.P,J2,4,Pin_4*%
%TO.N,Accelerator*%
X118000000Y-81000000D03*
%TO.P,J2,5,Pin_5*%
%TO.N,Brake*%
X120540000Y-81000000D03*
%TO.P,J2,6,Pin_6*%
%TO.N,5V*%
X123080000Y-81000000D03*
%TD*%
D13*
%TO.P,RV2,1,1*%
%TO.N,5V*%
X123000000Y-74000000D03*
%TO.P,RV2,2,2*%
%TO.N,Brake*%
X123000000Y-69000000D03*
%TO.P,RV2,3,3*%
%TO.N,GND*%
X123000000Y-64000000D03*
%TD*%
%TO.P,RV1,1,1*%
%TO.N,5V*%
X115000000Y-64000000D03*
%TO.P,RV1,2,2*%
%TO.N,Accelerator*%
X115000000Y-69000000D03*
%TO.P,RV1,3,3*%
%TO.N,GND*%
X115000000Y-74000000D03*
%TD*%
D14*
%TO.P,SW8,2,2*%
%TO.N,GND*%
X127000000Y-92000000D03*
X127000000Y-98500000D03*
%TO.P,SW8,1,1*%
%TO.N,/Buttons/A*%
X122500000Y-92000000D03*
X122500000Y-98500000D03*
%TD*%
%TO.P,SW7,2,2*%
%TO.N,GND*%
X118250000Y-95500000D03*
X118250000Y-102000000D03*
%TO.P,SW7,1,1*%
%TO.N,/Buttons/B*%
X113750000Y-95500000D03*
X113750000Y-102000000D03*
%TD*%
%TO.P,SW6,2,2*%
%TO.N,GND*%
X127000000Y-103250000D03*
X127000000Y-109750000D03*
%TO.P,SW6,1,1*%
%TO.N,/Buttons/X*%
X122500000Y-103250000D03*
X122500000Y-109750000D03*
%TD*%
%TO.P,SW5,2,2*%
%TO.N,GND*%
X118250000Y-106500000D03*
X118250000Y-113000000D03*
%TO.P,SW5,1,1*%
%TO.N,/Buttons/Y*%
X113750000Y-106500000D03*
X113750000Y-113000000D03*
%TD*%
%TO.P,SW4,1,1*%
%TO.N,/Buttons/LB*%
X122500000Y-120750000D03*
X122500000Y-114250000D03*
%TO.P,SW4,2,2*%
%TO.N,GND*%
X127000000Y-120750000D03*
X127000000Y-114250000D03*
%TD*%
%TO.P,SW3,1,1*%
%TO.N,/Buttons/LT*%
X113750000Y-124000000D03*
X113750000Y-117500000D03*
%TO.P,SW3,2,2*%
%TO.N,GND*%
X118250000Y-124000000D03*
X118250000Y-117500000D03*
%TD*%
%TO.P,SW2,1,1*%
%TO.N,/Buttons/RB*%
X122500000Y-131750000D03*
X122500000Y-125250000D03*
%TO.P,SW2,2,2*%
%TO.N,GND*%
X127000000Y-131750000D03*
X127000000Y-125250000D03*
%TD*%
%TO.P,SW1,1,1*%
%TO.N,/Buttons/RT*%
X113750000Y-135000000D03*
X113750000Y-128500000D03*
%TO.P,SW1,2,2*%
%TO.N,GND*%
X118250000Y-135000000D03*
X118250000Y-128500000D03*
%TD*%
D11*
%TO.P,J1,1,Pin_1*%
%TO.N,GND*%
X106750000Y-105380000D03*
D12*
%TO.P,J1,2,Pin_2*%
%TO.N,/Buttons/A*%
X106750000Y-107920000D03*
%TO.P,J1,3,Pin_3*%
%TO.N,/Buttons/B*%
X106750000Y-110460000D03*
%TO.P,J1,4,Pin_4*%
%TO.N,/Buttons/X*%
X106750000Y-113000000D03*
%TO.P,J1,5,Pin_5*%
%TO.N,/Buttons/Y*%
X106750000Y-115540000D03*
%TO.P,J1,6,Pin_6*%
%TO.N,/Buttons/LB*%
X106750000Y-118080000D03*
%TO.P,J1,7,Pin_7*%
%TO.N,/Buttons/LT*%
X106750000Y-120620000D03*
%TO.P,J1,8,Pin_8*%
%TO.N,/Buttons/RB*%
X106750000Y-123160000D03*
%TO.P,J1,9,Pin_9*%
%TO.N,/Buttons/RT*%
X106750000Y-125700000D03*
%TD*%
D15*
%TO.N,GND*%
X127000000Y-131750000D02*
X123750000Y-135000000D01*
X123750000Y-135000000D02*
X118250000Y-135000000D01*
X127000000Y-120750000D02*
X127000000Y-125250000D01*
X127000000Y-120750000D02*
X123750000Y-117500000D01*
X127000000Y-114250000D02*
X127000000Y-109750000D01*
X118250000Y-117500000D02*
X123750000Y-117500000D01*
X123750000Y-117500000D02*
X127000000Y-114250000D01*
X118250000Y-113000000D02*
X118250000Y-117500000D01*
X127000000Y-109750000D02*
X123750000Y-106500000D01*
X127000000Y-103250000D02*
X123750000Y-106500000D01*
X123750000Y-106500000D02*
X118250000Y-106500000D01*
X127000000Y-98500000D02*
X127000000Y-103250000D01*
X118250000Y-95500000D02*
X124000000Y-95500000D01*
X124000000Y-95500000D02*
X127000000Y-98500000D01*
X106750000Y-105380000D02*
X112430000Y-99700000D01*
X114050000Y-99700000D02*
X118250000Y-95500000D01*
X112430000Y-99700000D02*
X114050000Y-99700000D01*
%TO.N,/Buttons/A*%
X106750000Y-107920000D02*
X104990000Y-107920000D01*
X113997308Y-92000000D02*
X122500000Y-92000000D01*
X104990000Y-107920000D02*
X104600000Y-107530000D01*
X104600000Y-107530000D02*
X104600000Y-101397308D01*
X104600000Y-101397308D02*
X113997308Y-92000000D01*
%TO.N,/Buttons/B*%
X106750000Y-110460000D02*
X107952081Y-110460000D01*
X111450000Y-106962081D02*
X111450000Y-104300000D01*
X107952081Y-110460000D02*
X111450000Y-106962081D01*
X111450000Y-104300000D02*
X113750000Y-102000000D01*
%TO.N,/Buttons/X*%
X106750000Y-113000000D02*
X110250000Y-113000000D01*
X113500000Y-109750000D02*
X122500000Y-109750000D01*
X110250000Y-113000000D02*
X113500000Y-109750000D01*
%TO.N,/Buttons/Y*%
X106750000Y-115540000D02*
X111210000Y-115540000D01*
X111210000Y-115540000D02*
X113750000Y-113000000D01*
%TO.N,/Buttons/LB*%
X106750000Y-118080000D02*
X111077308Y-118080000D01*
X111077308Y-118080000D02*
X113747308Y-120750000D01*
X113747308Y-120750000D02*
X122500000Y-120750000D01*
%TO.N,/Buttons/LT*%
X107870000Y-120620000D02*
X111250000Y-124000000D01*
X106750000Y-120620000D02*
X107870000Y-120620000D01*
X111250000Y-124000000D02*
X113750000Y-124000000D01*
%TO.N,/Buttons/RB*%
X106750000Y-123160000D02*
X107250560Y-123160000D01*
X122500000Y-127502692D02*
X122500000Y-125250000D01*
X107250560Y-123160000D02*
X111450000Y-127359440D01*
X111450000Y-127359440D02*
X111450000Y-129452692D01*
X111450000Y-129452692D02*
X112797308Y-130800000D01*
X112797308Y-130800000D02*
X119202692Y-130800000D01*
X119202692Y-130800000D02*
X122500000Y-127502692D01*
%TO.N,/Buttons/RT*%
X106750000Y-125700000D02*
X106750000Y-128000000D01*
X106750000Y-128000000D02*
X113750000Y-135000000D01*
%TO.N,GND*%
X123000000Y-64000000D02*
X120530000Y-61530000D01*
X120530000Y-61530000D02*
X113970000Y-61530000D01*
X112530000Y-62970000D02*
X112530000Y-71530000D01*
X113970000Y-61530000D02*
X112530000Y-62970000D01*
X112530000Y-71530000D02*
X115000000Y-74000000D01*
%TO.N,5V*%
X115000000Y-64000000D02*
X117530000Y-66530000D01*
X117530000Y-66530000D02*
X124023108Y-66530000D01*
X124023108Y-66530000D02*
X125470000Y-67976892D01*
X125470000Y-67976892D02*
X125470000Y-71530000D01*
X125470000Y-71530000D02*
X123000000Y-74000000D01*
X123000000Y-74000000D02*
X123000000Y-80920000D01*
X123000000Y-80920000D02*
X123080000Y-81000000D01*
%TO.N,GND*%
X110200000Y-86000000D02*
X110200000Y-81180000D01*
X110200000Y-81180000D02*
X110380000Y-81000000D01*
%TO.N,5V*%
X117820000Y-86000000D02*
X119022081Y-86000000D01*
X119022081Y-86000000D02*
X123080000Y-81942081D01*
X123080000Y-81942081D02*
X123080000Y-81000000D01*
%TO.N,B*%
X115460000Y-81000000D02*
X115460000Y-85820000D01*
X115460000Y-85820000D02*
X115280000Y-86000000D01*
%TO.N,A*%
X112920000Y-81000000D02*
X112920000Y-85820000D01*
X112920000Y-85820000D02*
X112740000Y-86000000D01*
%TO.N,GND*%
X115000000Y-74000000D02*
X110380000Y-78620000D01*
X110380000Y-78620000D02*
X110380000Y-81000000D01*
%TO.N,Accelerator*%
X115000000Y-69000000D02*
X118000000Y-72000000D01*
X118000000Y-72000000D02*
X118000000Y-81000000D01*
%TO.N,Brake*%
X123000000Y-69000000D02*
X120530000Y-71470000D01*
X120530000Y-71470000D02*
X120530000Y-80990000D01*
X120530000Y-80990000D02*
X120540000Y-81000000D01*
%TD*%
M02*
