%TF.GenerationSoftware,KiCad,Pcbnew,8.0.5*%
%TF.CreationDate,2024-11-14T11:23:38+11:00*%
%TF.ProjectId,wheel,77686565-6c2e-46b6-9963-61645f706362,rev?*%
%TF.SameCoordinates,Original*%
%TF.FileFunction,Drillmap*%
%TF.FilePolarity,Positive*%
%FSLAX45Y45*%
G04 Gerber Fmt 4.5, Leading zero omitted, Abs format (unit mm)*
G04 Created by KiCad (PCBNEW 8.0.5) date 2024-11-14 11:23:38*
%MOMM*%
%LPD*%
G01*
G04 APERTURE LIST*
%ADD10C,0.050000*%
%ADD11C,0.200000*%
%ADD12C,0.100000*%
%ADD13C,0.110000*%
%ADD14C,0.320000*%
G04 APERTURE END LIST*
D10*
X8250000Y-5500000D02*
X15100000Y-5500000D01*
X15100000Y-9550000D01*
X8250000Y-9550000D01*
X8250000Y-5500000D01*
D11*
D12*
X10750000Y-9300000D02*
X10850000Y-9400000D01*
X10850000Y-9300000D02*
X10750000Y-9400000D01*
X11004000Y-9300000D02*
X11104000Y-9400000D01*
X11104000Y-9300000D02*
X11004000Y-9400000D01*
X11258000Y-9300000D02*
X11358000Y-9400000D01*
X11358000Y-9300000D02*
X11258000Y-9400000D01*
X11512000Y-9300000D02*
X11612000Y-9400000D01*
X11612000Y-9300000D02*
X11512000Y-9400000D01*
X11766000Y-9300000D02*
X11866000Y-9400000D01*
X11866000Y-9300000D02*
X11766000Y-9400000D01*
X12020000Y-9300000D02*
X12120000Y-9400000D01*
X12120000Y-9300000D02*
X12020000Y-9400000D01*
X12274000Y-9300000D02*
X12374000Y-9400000D01*
X12374000Y-9300000D02*
X12274000Y-9400000D01*
X12528000Y-9300000D02*
X12628000Y-9400000D01*
X12628000Y-9300000D02*
X12528000Y-9400000D01*
X12782000Y-9300000D02*
X12882000Y-9400000D01*
X12882000Y-9300000D02*
X12782000Y-9400000D01*
D13*
X8755000Y-8250000D02*
G75*
G02*
X8645000Y-8250000I-55000J0D01*
G01*
X8645000Y-8250000D02*
G75*
G02*
X8755000Y-8250000I55000J0D01*
G01*
X8755000Y-8700000D02*
G75*
G02*
X8645000Y-8700000I-55000J0D01*
G01*
X8645000Y-8700000D02*
G75*
G02*
X8755000Y-8700000I55000J0D01*
G01*
X8855000Y-6700000D02*
G75*
G02*
X8745000Y-6700000I-55000J0D01*
G01*
X8745000Y-6700000D02*
G75*
G02*
X8855000Y-6700000I55000J0D01*
G01*
X8855000Y-7150000D02*
G75*
G02*
X8745000Y-7150000I-55000J0D01*
G01*
X8745000Y-7150000D02*
G75*
G02*
X8855000Y-7150000I55000J0D01*
G01*
X9405000Y-8250000D02*
G75*
G02*
X9295000Y-8250000I-55000J0D01*
G01*
X9295000Y-8250000D02*
G75*
G02*
X9405000Y-8250000I55000J0D01*
G01*
X9405000Y-8700000D02*
G75*
G02*
X9295000Y-8700000I-55000J0D01*
G01*
X9295000Y-8700000D02*
G75*
G02*
X9405000Y-8700000I55000J0D01*
G01*
X9505000Y-6700000D02*
G75*
G02*
X9395000Y-6700000I-55000J0D01*
G01*
X9395000Y-6700000D02*
G75*
G02*
X9505000Y-6700000I55000J0D01*
G01*
X9505000Y-7150000D02*
G75*
G02*
X9395000Y-7150000I-55000J0D01*
G01*
X9395000Y-7150000D02*
G75*
G02*
X9505000Y-7150000I55000J0D01*
G01*
X10505000Y-7800000D02*
G75*
G02*
X10395000Y-7800000I-55000J0D01*
G01*
X10395000Y-7800000D02*
G75*
G02*
X10505000Y-7800000I55000J0D01*
G01*
X10505000Y-8250000D02*
G75*
G02*
X10395000Y-8250000I-55000J0D01*
G01*
X10395000Y-8250000D02*
G75*
G02*
X10505000Y-8250000I55000J0D01*
G01*
X10605000Y-6350000D02*
G75*
G02*
X10495000Y-6350000I-55000J0D01*
G01*
X10495000Y-6350000D02*
G75*
G02*
X10605000Y-6350000I55000J0D01*
G01*
X10605000Y-6800000D02*
G75*
G02*
X10495000Y-6800000I-55000J0D01*
G01*
X10495000Y-6800000D02*
G75*
G02*
X10605000Y-6800000I55000J0D01*
G01*
X11155000Y-7800000D02*
G75*
G02*
X11045000Y-7800000I-55000J0D01*
G01*
X11045000Y-7800000D02*
G75*
G02*
X11155000Y-7800000I55000J0D01*
G01*
X11155000Y-8250000D02*
G75*
G02*
X11045000Y-8250000I-55000J0D01*
G01*
X11045000Y-8250000D02*
G75*
G02*
X11155000Y-8250000I55000J0D01*
G01*
X11255000Y-6350000D02*
G75*
G02*
X11145000Y-6350000I-55000J0D01*
G01*
X11145000Y-6350000D02*
G75*
G02*
X11255000Y-6350000I55000J0D01*
G01*
X11255000Y-6800000D02*
G75*
G02*
X11145000Y-6800000I-55000J0D01*
G01*
X11145000Y-6800000D02*
G75*
G02*
X11255000Y-6800000I55000J0D01*
G01*
X12255000Y-7450000D02*
G75*
G02*
X12145000Y-7450000I-55000J0D01*
G01*
X12145000Y-7450000D02*
G75*
G02*
X12255000Y-7450000I55000J0D01*
G01*
X12255000Y-7900000D02*
G75*
G02*
X12145000Y-7900000I-55000J0D01*
G01*
X12145000Y-7900000D02*
G75*
G02*
X12255000Y-7900000I55000J0D01*
G01*
X12355000Y-6000000D02*
G75*
G02*
X12245000Y-6000000I-55000J0D01*
G01*
X12245000Y-6000000D02*
G75*
G02*
X12355000Y-6000000I55000J0D01*
G01*
X12355000Y-6450000D02*
G75*
G02*
X12245000Y-6450000I-55000J0D01*
G01*
X12245000Y-6450000D02*
G75*
G02*
X12355000Y-6450000I55000J0D01*
G01*
X12905000Y-7450000D02*
G75*
G02*
X12795000Y-7450000I-55000J0D01*
G01*
X12795000Y-7450000D02*
G75*
G02*
X12905000Y-7450000I55000J0D01*
G01*
X12905000Y-7900000D02*
G75*
G02*
X12795000Y-7900000I-55000J0D01*
G01*
X12795000Y-7900000D02*
G75*
G02*
X12905000Y-7900000I55000J0D01*
G01*
X13005000Y-6000000D02*
G75*
G02*
X12895000Y-6000000I-55000J0D01*
G01*
X12895000Y-6000000D02*
G75*
G02*
X13005000Y-6000000I55000J0D01*
G01*
X13005000Y-6450000D02*
G75*
G02*
X12895000Y-6450000I-55000J0D01*
G01*
X12895000Y-6450000D02*
G75*
G02*
X13005000Y-6450000I55000J0D01*
G01*
X13955000Y-7900000D02*
G75*
G02*
X13845000Y-7900000I-55000J0D01*
G01*
X13845000Y-7900000D02*
G75*
G02*
X13955000Y-7900000I55000J0D01*
G01*
X13955000Y-8350000D02*
G75*
G02*
X13845000Y-8350000I-55000J0D01*
G01*
X13845000Y-8350000D02*
G75*
G02*
X13955000Y-8350000I55000J0D01*
G01*
X14105000Y-6350000D02*
G75*
G02*
X13995000Y-6350000I-55000J0D01*
G01*
X13995000Y-6350000D02*
G75*
G02*
X14105000Y-6350000I55000J0D01*
G01*
X14105000Y-6800000D02*
G75*
G02*
X13995000Y-6800000I-55000J0D01*
G01*
X13995000Y-6800000D02*
G75*
G02*
X14105000Y-6800000I55000J0D01*
G01*
X14605000Y-7900000D02*
G75*
G02*
X14495000Y-7900000I-55000J0D01*
G01*
X14495000Y-7900000D02*
G75*
G02*
X14605000Y-7900000I55000J0D01*
G01*
X14605000Y-8350000D02*
G75*
G02*
X14495000Y-8350000I-55000J0D01*
G01*
X14495000Y-8350000D02*
G75*
G02*
X14605000Y-8350000I55000J0D01*
G01*
X14755000Y-6350000D02*
G75*
G02*
X14645000Y-6350000I-55000J0D01*
G01*
X14645000Y-6350000D02*
G75*
G02*
X14755000Y-6350000I55000J0D01*
G01*
X14755000Y-6800000D02*
G75*
G02*
X14645000Y-6800000I-55000J0D01*
G01*
X14645000Y-6800000D02*
G75*
G02*
X14755000Y-6800000I55000J0D01*
G01*
D14*
X8750000Y-5840000D02*
X8750000Y-6160000D01*
X8590000Y-6000000D02*
X8910000Y-6000000D01*
X14600000Y-8890000D02*
X14600000Y-9210000D01*
X14440000Y-9050000D02*
X14760000Y-9050000D01*
D11*
X8508277Y-9863984D02*
X8508277Y-9663984D01*
X8508277Y-9663984D02*
X8555896Y-9663984D01*
X8555896Y-9663984D02*
X8584467Y-9673508D01*
X8584467Y-9673508D02*
X8603515Y-9692555D01*
X8603515Y-9692555D02*
X8613039Y-9711603D01*
X8613039Y-9711603D02*
X8622563Y-9749698D01*
X8622563Y-9749698D02*
X8622563Y-9778270D01*
X8622563Y-9778270D02*
X8613039Y-9816365D01*
X8613039Y-9816365D02*
X8603515Y-9835412D01*
X8603515Y-9835412D02*
X8584467Y-9854460D01*
X8584467Y-9854460D02*
X8555896Y-9863984D01*
X8555896Y-9863984D02*
X8508277Y-9863984D01*
X8708277Y-9863984D02*
X8708277Y-9730650D01*
X8708277Y-9768746D02*
X8717801Y-9749698D01*
X8717801Y-9749698D02*
X8727324Y-9740174D01*
X8727324Y-9740174D02*
X8746372Y-9730650D01*
X8746372Y-9730650D02*
X8765420Y-9730650D01*
X8832086Y-9863984D02*
X8832086Y-9730650D01*
X8832086Y-9663984D02*
X8822563Y-9673508D01*
X8822563Y-9673508D02*
X8832086Y-9683031D01*
X8832086Y-9683031D02*
X8841610Y-9673508D01*
X8841610Y-9673508D02*
X8832086Y-9663984D01*
X8832086Y-9663984D02*
X8832086Y-9683031D01*
X8955896Y-9863984D02*
X8936848Y-9854460D01*
X8936848Y-9854460D02*
X8927324Y-9835412D01*
X8927324Y-9835412D02*
X8927324Y-9663984D01*
X9060658Y-9863984D02*
X9041610Y-9854460D01*
X9041610Y-9854460D02*
X9032086Y-9835412D01*
X9032086Y-9835412D02*
X9032086Y-9663984D01*
X9289229Y-9863984D02*
X9289229Y-9663984D01*
X9289229Y-9663984D02*
X9355896Y-9806841D01*
X9355896Y-9806841D02*
X9422563Y-9663984D01*
X9422563Y-9663984D02*
X9422563Y-9863984D01*
X9603515Y-9863984D02*
X9603515Y-9759222D01*
X9603515Y-9759222D02*
X9593991Y-9740174D01*
X9593991Y-9740174D02*
X9574944Y-9730650D01*
X9574944Y-9730650D02*
X9536848Y-9730650D01*
X9536848Y-9730650D02*
X9517801Y-9740174D01*
X9603515Y-9854460D02*
X9584467Y-9863984D01*
X9584467Y-9863984D02*
X9536848Y-9863984D01*
X9536848Y-9863984D02*
X9517801Y-9854460D01*
X9517801Y-9854460D02*
X9508277Y-9835412D01*
X9508277Y-9835412D02*
X9508277Y-9816365D01*
X9508277Y-9816365D02*
X9517801Y-9797317D01*
X9517801Y-9797317D02*
X9536848Y-9787793D01*
X9536848Y-9787793D02*
X9584467Y-9787793D01*
X9584467Y-9787793D02*
X9603515Y-9778270D01*
X9698753Y-9730650D02*
X9698753Y-9930650D01*
X9698753Y-9740174D02*
X9717801Y-9730650D01*
X9717801Y-9730650D02*
X9755896Y-9730650D01*
X9755896Y-9730650D02*
X9774944Y-9740174D01*
X9774944Y-9740174D02*
X9784467Y-9749698D01*
X9784467Y-9749698D02*
X9793991Y-9768746D01*
X9793991Y-9768746D02*
X9793991Y-9825889D01*
X9793991Y-9825889D02*
X9784467Y-9844936D01*
X9784467Y-9844936D02*
X9774944Y-9854460D01*
X9774944Y-9854460D02*
X9755896Y-9863984D01*
X9755896Y-9863984D02*
X9717801Y-9863984D01*
X9717801Y-9863984D02*
X9698753Y-9854460D01*
X9879705Y-9844936D02*
X9889229Y-9854460D01*
X9889229Y-9854460D02*
X9879705Y-9863984D01*
X9879705Y-9863984D02*
X9870182Y-9854460D01*
X9870182Y-9854460D02*
X9879705Y-9844936D01*
X9879705Y-9844936D02*
X9879705Y-9863984D01*
X9879705Y-9740174D02*
X9889229Y-9749698D01*
X9889229Y-9749698D02*
X9879705Y-9759222D01*
X9879705Y-9759222D02*
X9870182Y-9749698D01*
X9870182Y-9749698D02*
X9879705Y-9740174D01*
X9879705Y-9740174D02*
X9879705Y-9759222D01*
D12*
X8147500Y-10142500D02*
X8247500Y-10242500D01*
X8247500Y-10142500D02*
X8147500Y-10242500D01*
D11*
X8613039Y-10283984D02*
X8498753Y-10283984D01*
X8555896Y-10283984D02*
X8555896Y-10083984D01*
X8555896Y-10083984D02*
X8536848Y-10112555D01*
X8536848Y-10112555D02*
X8517801Y-10131603D01*
X8517801Y-10131603D02*
X8498753Y-10141127D01*
X8698753Y-10264936D02*
X8708277Y-10274460D01*
X8708277Y-10274460D02*
X8698753Y-10283984D01*
X8698753Y-10283984D02*
X8689229Y-10274460D01*
X8689229Y-10274460D02*
X8698753Y-10264936D01*
X8698753Y-10264936D02*
X8698753Y-10283984D01*
X8832086Y-10083984D02*
X8851134Y-10083984D01*
X8851134Y-10083984D02*
X8870182Y-10093508D01*
X8870182Y-10093508D02*
X8879705Y-10103031D01*
X8879705Y-10103031D02*
X8889229Y-10122079D01*
X8889229Y-10122079D02*
X8898753Y-10160174D01*
X8898753Y-10160174D02*
X8898753Y-10207793D01*
X8898753Y-10207793D02*
X8889229Y-10245889D01*
X8889229Y-10245889D02*
X8879705Y-10264936D01*
X8879705Y-10264936D02*
X8870182Y-10274460D01*
X8870182Y-10274460D02*
X8851134Y-10283984D01*
X8851134Y-10283984D02*
X8832086Y-10283984D01*
X8832086Y-10283984D02*
X8813039Y-10274460D01*
X8813039Y-10274460D02*
X8803515Y-10264936D01*
X8803515Y-10264936D02*
X8793991Y-10245889D01*
X8793991Y-10245889D02*
X8784467Y-10207793D01*
X8784467Y-10207793D02*
X8784467Y-10160174D01*
X8784467Y-10160174D02*
X8793991Y-10122079D01*
X8793991Y-10122079D02*
X8803515Y-10103031D01*
X8803515Y-10103031D02*
X8813039Y-10093508D01*
X8813039Y-10093508D02*
X8832086Y-10083984D01*
X9022563Y-10083984D02*
X9041610Y-10083984D01*
X9041610Y-10083984D02*
X9060658Y-10093508D01*
X9060658Y-10093508D02*
X9070182Y-10103031D01*
X9070182Y-10103031D02*
X9079705Y-10122079D01*
X9079705Y-10122079D02*
X9089229Y-10160174D01*
X9089229Y-10160174D02*
X9089229Y-10207793D01*
X9089229Y-10207793D02*
X9079705Y-10245889D01*
X9079705Y-10245889D02*
X9070182Y-10264936D01*
X9070182Y-10264936D02*
X9060658Y-10274460D01*
X9060658Y-10274460D02*
X9041610Y-10283984D01*
X9041610Y-10283984D02*
X9022563Y-10283984D01*
X9022563Y-10283984D02*
X9003515Y-10274460D01*
X9003515Y-10274460D02*
X8993991Y-10264936D01*
X8993991Y-10264936D02*
X8984467Y-10245889D01*
X8984467Y-10245889D02*
X8974944Y-10207793D01*
X8974944Y-10207793D02*
X8974944Y-10160174D01*
X8974944Y-10160174D02*
X8984467Y-10122079D01*
X8984467Y-10122079D02*
X8993991Y-10103031D01*
X8993991Y-10103031D02*
X9003515Y-10093508D01*
X9003515Y-10093508D02*
X9022563Y-10083984D01*
X9213039Y-10083984D02*
X9232086Y-10083984D01*
X9232086Y-10083984D02*
X9251134Y-10093508D01*
X9251134Y-10093508D02*
X9260658Y-10103031D01*
X9260658Y-10103031D02*
X9270182Y-10122079D01*
X9270182Y-10122079D02*
X9279705Y-10160174D01*
X9279705Y-10160174D02*
X9279705Y-10207793D01*
X9279705Y-10207793D02*
X9270182Y-10245889D01*
X9270182Y-10245889D02*
X9260658Y-10264936D01*
X9260658Y-10264936D02*
X9251134Y-10274460D01*
X9251134Y-10274460D02*
X9232086Y-10283984D01*
X9232086Y-10283984D02*
X9213039Y-10283984D01*
X9213039Y-10283984D02*
X9193991Y-10274460D01*
X9193991Y-10274460D02*
X9184467Y-10264936D01*
X9184467Y-10264936D02*
X9174944Y-10245889D01*
X9174944Y-10245889D02*
X9165420Y-10207793D01*
X9165420Y-10207793D02*
X9165420Y-10160174D01*
X9165420Y-10160174D02*
X9174944Y-10122079D01*
X9174944Y-10122079D02*
X9184467Y-10103031D01*
X9184467Y-10103031D02*
X9193991Y-10093508D01*
X9193991Y-10093508D02*
X9213039Y-10083984D01*
X9365420Y-10283984D02*
X9365420Y-10150650D01*
X9365420Y-10169698D02*
X9374944Y-10160174D01*
X9374944Y-10160174D02*
X9393991Y-10150650D01*
X9393991Y-10150650D02*
X9422563Y-10150650D01*
X9422563Y-10150650D02*
X9441610Y-10160174D01*
X9441610Y-10160174D02*
X9451134Y-10179222D01*
X9451134Y-10179222D02*
X9451134Y-10283984D01*
X9451134Y-10179222D02*
X9460658Y-10160174D01*
X9460658Y-10160174D02*
X9479705Y-10150650D01*
X9479705Y-10150650D02*
X9508277Y-10150650D01*
X9508277Y-10150650D02*
X9527325Y-10160174D01*
X9527325Y-10160174D02*
X9536848Y-10179222D01*
X9536848Y-10179222D02*
X9536848Y-10283984D01*
X9632086Y-10283984D02*
X9632086Y-10150650D01*
X9632086Y-10169698D02*
X9641610Y-10160174D01*
X9641610Y-10160174D02*
X9660658Y-10150650D01*
X9660658Y-10150650D02*
X9689229Y-10150650D01*
X9689229Y-10150650D02*
X9708277Y-10160174D01*
X9708277Y-10160174D02*
X9717801Y-10179222D01*
X9717801Y-10179222D02*
X9717801Y-10283984D01*
X9717801Y-10179222D02*
X9727325Y-10160174D01*
X9727325Y-10160174D02*
X9746372Y-10150650D01*
X9746372Y-10150650D02*
X9774944Y-10150650D01*
X9774944Y-10150650D02*
X9793991Y-10160174D01*
X9793991Y-10160174D02*
X9803515Y-10179222D01*
X9803515Y-10179222D02*
X9803515Y-10283984D01*
X10193991Y-10074460D02*
X10022563Y-10331603D01*
X10451134Y-10083984D02*
X10470182Y-10083984D01*
X10470182Y-10083984D02*
X10489229Y-10093508D01*
X10489229Y-10093508D02*
X10498753Y-10103031D01*
X10498753Y-10103031D02*
X10508277Y-10122079D01*
X10508277Y-10122079D02*
X10517801Y-10160174D01*
X10517801Y-10160174D02*
X10517801Y-10207793D01*
X10517801Y-10207793D02*
X10508277Y-10245889D01*
X10508277Y-10245889D02*
X10498753Y-10264936D01*
X10498753Y-10264936D02*
X10489229Y-10274460D01*
X10489229Y-10274460D02*
X10470182Y-10283984D01*
X10470182Y-10283984D02*
X10451134Y-10283984D01*
X10451134Y-10283984D02*
X10432087Y-10274460D01*
X10432087Y-10274460D02*
X10422563Y-10264936D01*
X10422563Y-10264936D02*
X10413039Y-10245889D01*
X10413039Y-10245889D02*
X10403515Y-10207793D01*
X10403515Y-10207793D02*
X10403515Y-10160174D01*
X10403515Y-10160174D02*
X10413039Y-10122079D01*
X10413039Y-10122079D02*
X10422563Y-10103031D01*
X10422563Y-10103031D02*
X10432087Y-10093508D01*
X10432087Y-10093508D02*
X10451134Y-10083984D01*
X10603515Y-10264936D02*
X10613039Y-10274460D01*
X10613039Y-10274460D02*
X10603515Y-10283984D01*
X10603515Y-10283984D02*
X10593991Y-10274460D01*
X10593991Y-10274460D02*
X10603515Y-10264936D01*
X10603515Y-10264936D02*
X10603515Y-10283984D01*
X10736848Y-10083984D02*
X10755896Y-10083984D01*
X10755896Y-10083984D02*
X10774944Y-10093508D01*
X10774944Y-10093508D02*
X10784468Y-10103031D01*
X10784468Y-10103031D02*
X10793991Y-10122079D01*
X10793991Y-10122079D02*
X10803515Y-10160174D01*
X10803515Y-10160174D02*
X10803515Y-10207793D01*
X10803515Y-10207793D02*
X10793991Y-10245889D01*
X10793991Y-10245889D02*
X10784468Y-10264936D01*
X10784468Y-10264936D02*
X10774944Y-10274460D01*
X10774944Y-10274460D02*
X10755896Y-10283984D01*
X10755896Y-10283984D02*
X10736848Y-10283984D01*
X10736848Y-10283984D02*
X10717801Y-10274460D01*
X10717801Y-10274460D02*
X10708277Y-10264936D01*
X10708277Y-10264936D02*
X10698753Y-10245889D01*
X10698753Y-10245889D02*
X10689229Y-10207793D01*
X10689229Y-10207793D02*
X10689229Y-10160174D01*
X10689229Y-10160174D02*
X10698753Y-10122079D01*
X10698753Y-10122079D02*
X10708277Y-10103031D01*
X10708277Y-10103031D02*
X10717801Y-10093508D01*
X10717801Y-10093508D02*
X10736848Y-10083984D01*
X10870182Y-10083984D02*
X10993991Y-10083984D01*
X10993991Y-10083984D02*
X10927325Y-10160174D01*
X10927325Y-10160174D02*
X10955896Y-10160174D01*
X10955896Y-10160174D02*
X10974944Y-10169698D01*
X10974944Y-10169698D02*
X10984468Y-10179222D01*
X10984468Y-10179222D02*
X10993991Y-10198270D01*
X10993991Y-10198270D02*
X10993991Y-10245889D01*
X10993991Y-10245889D02*
X10984468Y-10264936D01*
X10984468Y-10264936D02*
X10974944Y-10274460D01*
X10974944Y-10274460D02*
X10955896Y-10283984D01*
X10955896Y-10283984D02*
X10898753Y-10283984D01*
X10898753Y-10283984D02*
X10879706Y-10274460D01*
X10879706Y-10274460D02*
X10870182Y-10264936D01*
X11089229Y-10283984D02*
X11127325Y-10283984D01*
X11127325Y-10283984D02*
X11146372Y-10274460D01*
X11146372Y-10274460D02*
X11155896Y-10264936D01*
X11155896Y-10264936D02*
X11174944Y-10236365D01*
X11174944Y-10236365D02*
X11184468Y-10198270D01*
X11184468Y-10198270D02*
X11184468Y-10122079D01*
X11184468Y-10122079D02*
X11174944Y-10103031D01*
X11174944Y-10103031D02*
X11165420Y-10093508D01*
X11165420Y-10093508D02*
X11146372Y-10083984D01*
X11146372Y-10083984D02*
X11108277Y-10083984D01*
X11108277Y-10083984D02*
X11089229Y-10093508D01*
X11089229Y-10093508D02*
X11079706Y-10103031D01*
X11079706Y-10103031D02*
X11070182Y-10122079D01*
X11070182Y-10122079D02*
X11070182Y-10169698D01*
X11070182Y-10169698D02*
X11079706Y-10188746D01*
X11079706Y-10188746D02*
X11089229Y-10198270D01*
X11089229Y-10198270D02*
X11108277Y-10207793D01*
X11108277Y-10207793D02*
X11146372Y-10207793D01*
X11146372Y-10207793D02*
X11165420Y-10198270D01*
X11165420Y-10198270D02*
X11174944Y-10188746D01*
X11174944Y-10188746D02*
X11184468Y-10169698D01*
X11355896Y-10150650D02*
X11355896Y-10283984D01*
X11308277Y-10074460D02*
X11260658Y-10217317D01*
X11260658Y-10217317D02*
X11384467Y-10217317D01*
X11451134Y-10083984D02*
X11451134Y-10122079D01*
X11527325Y-10083984D02*
X11527325Y-10122079D01*
X11822563Y-10360174D02*
X11813039Y-10350650D01*
X11813039Y-10350650D02*
X11793991Y-10322079D01*
X11793991Y-10322079D02*
X11784468Y-10303031D01*
X11784468Y-10303031D02*
X11774944Y-10274460D01*
X11774944Y-10274460D02*
X11765420Y-10226841D01*
X11765420Y-10226841D02*
X11765420Y-10188746D01*
X11765420Y-10188746D02*
X11774944Y-10141127D01*
X11774944Y-10141127D02*
X11784468Y-10112555D01*
X11784468Y-10112555D02*
X11793991Y-10093508D01*
X11793991Y-10093508D02*
X11813039Y-10064936D01*
X11813039Y-10064936D02*
X11822563Y-10055412D01*
X11908277Y-10283984D02*
X11946372Y-10283984D01*
X11946372Y-10283984D02*
X11965420Y-10274460D01*
X11965420Y-10274460D02*
X11974944Y-10264936D01*
X11974944Y-10264936D02*
X11993991Y-10236365D01*
X11993991Y-10236365D02*
X12003515Y-10198270D01*
X12003515Y-10198270D02*
X12003515Y-10122079D01*
X12003515Y-10122079D02*
X11993991Y-10103031D01*
X11993991Y-10103031D02*
X11984468Y-10093508D01*
X11984468Y-10093508D02*
X11965420Y-10083984D01*
X11965420Y-10083984D02*
X11927325Y-10083984D01*
X11927325Y-10083984D02*
X11908277Y-10093508D01*
X11908277Y-10093508D02*
X11898753Y-10103031D01*
X11898753Y-10103031D02*
X11889229Y-10122079D01*
X11889229Y-10122079D02*
X11889229Y-10169698D01*
X11889229Y-10169698D02*
X11898753Y-10188746D01*
X11898753Y-10188746D02*
X11908277Y-10198270D01*
X11908277Y-10198270D02*
X11927325Y-10207793D01*
X11927325Y-10207793D02*
X11965420Y-10207793D01*
X11965420Y-10207793D02*
X11984468Y-10198270D01*
X11984468Y-10198270D02*
X11993991Y-10188746D01*
X11993991Y-10188746D02*
X12003515Y-10169698D01*
X12241610Y-10283984D02*
X12241610Y-10083984D01*
X12327325Y-10283984D02*
X12327325Y-10179222D01*
X12327325Y-10179222D02*
X12317801Y-10160174D01*
X12317801Y-10160174D02*
X12298753Y-10150650D01*
X12298753Y-10150650D02*
X12270182Y-10150650D01*
X12270182Y-10150650D02*
X12251134Y-10160174D01*
X12251134Y-10160174D02*
X12241610Y-10169698D01*
X12451134Y-10283984D02*
X12432087Y-10274460D01*
X12432087Y-10274460D02*
X12422563Y-10264936D01*
X12422563Y-10264936D02*
X12413039Y-10245889D01*
X12413039Y-10245889D02*
X12413039Y-10188746D01*
X12413039Y-10188746D02*
X12422563Y-10169698D01*
X12422563Y-10169698D02*
X12432087Y-10160174D01*
X12432087Y-10160174D02*
X12451134Y-10150650D01*
X12451134Y-10150650D02*
X12479706Y-10150650D01*
X12479706Y-10150650D02*
X12498753Y-10160174D01*
X12498753Y-10160174D02*
X12508277Y-10169698D01*
X12508277Y-10169698D02*
X12517801Y-10188746D01*
X12517801Y-10188746D02*
X12517801Y-10245889D01*
X12517801Y-10245889D02*
X12508277Y-10264936D01*
X12508277Y-10264936D02*
X12498753Y-10274460D01*
X12498753Y-10274460D02*
X12479706Y-10283984D01*
X12479706Y-10283984D02*
X12451134Y-10283984D01*
X12632087Y-10283984D02*
X12613039Y-10274460D01*
X12613039Y-10274460D02*
X12603515Y-10255412D01*
X12603515Y-10255412D02*
X12603515Y-10083984D01*
X12784468Y-10274460D02*
X12765420Y-10283984D01*
X12765420Y-10283984D02*
X12727325Y-10283984D01*
X12727325Y-10283984D02*
X12708277Y-10274460D01*
X12708277Y-10274460D02*
X12698753Y-10255412D01*
X12698753Y-10255412D02*
X12698753Y-10179222D01*
X12698753Y-10179222D02*
X12708277Y-10160174D01*
X12708277Y-10160174D02*
X12727325Y-10150650D01*
X12727325Y-10150650D02*
X12765420Y-10150650D01*
X12765420Y-10150650D02*
X12784468Y-10160174D01*
X12784468Y-10160174D02*
X12793991Y-10179222D01*
X12793991Y-10179222D02*
X12793991Y-10198270D01*
X12793991Y-10198270D02*
X12698753Y-10217317D01*
X12870182Y-10274460D02*
X12889230Y-10283984D01*
X12889230Y-10283984D02*
X12927325Y-10283984D01*
X12927325Y-10283984D02*
X12946372Y-10274460D01*
X12946372Y-10274460D02*
X12955896Y-10255412D01*
X12955896Y-10255412D02*
X12955896Y-10245889D01*
X12955896Y-10245889D02*
X12946372Y-10226841D01*
X12946372Y-10226841D02*
X12927325Y-10217317D01*
X12927325Y-10217317D02*
X12898753Y-10217317D01*
X12898753Y-10217317D02*
X12879706Y-10207793D01*
X12879706Y-10207793D02*
X12870182Y-10188746D01*
X12870182Y-10188746D02*
X12870182Y-10179222D01*
X12870182Y-10179222D02*
X12879706Y-10160174D01*
X12879706Y-10160174D02*
X12898753Y-10150650D01*
X12898753Y-10150650D02*
X12927325Y-10150650D01*
X12927325Y-10150650D02*
X12946372Y-10160174D01*
X13022563Y-10360174D02*
X13032087Y-10350650D01*
X13032087Y-10350650D02*
X13051134Y-10322079D01*
X13051134Y-10322079D02*
X13060658Y-10303031D01*
X13060658Y-10303031D02*
X13070182Y-10274460D01*
X13070182Y-10274460D02*
X13079706Y-10226841D01*
X13079706Y-10226841D02*
X13079706Y-10188746D01*
X13079706Y-10188746D02*
X13070182Y-10141127D01*
X13070182Y-10141127D02*
X13060658Y-10112555D01*
X13060658Y-10112555D02*
X13051134Y-10093508D01*
X13051134Y-10093508D02*
X13032087Y-10064936D01*
X13032087Y-10064936D02*
X13022563Y-10055412D01*
D13*
X8247500Y-10456500D02*
G75*
G02*
X8137500Y-10456500I-55000J0D01*
G01*
X8137500Y-10456500D02*
G75*
G02*
X8247500Y-10456500I55000J0D01*
G01*
D11*
X8613039Y-10547984D02*
X8498753Y-10547984D01*
X8555896Y-10547984D02*
X8555896Y-10347984D01*
X8555896Y-10347984D02*
X8536848Y-10376555D01*
X8536848Y-10376555D02*
X8517801Y-10395603D01*
X8517801Y-10395603D02*
X8498753Y-10405127D01*
X8698753Y-10528936D02*
X8708277Y-10538460D01*
X8708277Y-10538460D02*
X8698753Y-10547984D01*
X8698753Y-10547984D02*
X8689229Y-10538460D01*
X8689229Y-10538460D02*
X8698753Y-10528936D01*
X8698753Y-10528936D02*
X8698753Y-10547984D01*
X8898753Y-10547984D02*
X8784467Y-10547984D01*
X8841610Y-10547984D02*
X8841610Y-10347984D01*
X8841610Y-10347984D02*
X8822563Y-10376555D01*
X8822563Y-10376555D02*
X8803515Y-10395603D01*
X8803515Y-10395603D02*
X8784467Y-10405127D01*
X9022563Y-10347984D02*
X9041610Y-10347984D01*
X9041610Y-10347984D02*
X9060658Y-10357508D01*
X9060658Y-10357508D02*
X9070182Y-10367031D01*
X9070182Y-10367031D02*
X9079705Y-10386079D01*
X9079705Y-10386079D02*
X9089229Y-10424174D01*
X9089229Y-10424174D02*
X9089229Y-10471793D01*
X9089229Y-10471793D02*
X9079705Y-10509889D01*
X9079705Y-10509889D02*
X9070182Y-10528936D01*
X9070182Y-10528936D02*
X9060658Y-10538460D01*
X9060658Y-10538460D02*
X9041610Y-10547984D01*
X9041610Y-10547984D02*
X9022563Y-10547984D01*
X9022563Y-10547984D02*
X9003515Y-10538460D01*
X9003515Y-10538460D02*
X8993991Y-10528936D01*
X8993991Y-10528936D02*
X8984467Y-10509889D01*
X8984467Y-10509889D02*
X8974944Y-10471793D01*
X8974944Y-10471793D02*
X8974944Y-10424174D01*
X8974944Y-10424174D02*
X8984467Y-10386079D01*
X8984467Y-10386079D02*
X8993991Y-10367031D01*
X8993991Y-10367031D02*
X9003515Y-10357508D01*
X9003515Y-10357508D02*
X9022563Y-10347984D01*
X9213039Y-10347984D02*
X9232086Y-10347984D01*
X9232086Y-10347984D02*
X9251134Y-10357508D01*
X9251134Y-10357508D02*
X9260658Y-10367031D01*
X9260658Y-10367031D02*
X9270182Y-10386079D01*
X9270182Y-10386079D02*
X9279705Y-10424174D01*
X9279705Y-10424174D02*
X9279705Y-10471793D01*
X9279705Y-10471793D02*
X9270182Y-10509889D01*
X9270182Y-10509889D02*
X9260658Y-10528936D01*
X9260658Y-10528936D02*
X9251134Y-10538460D01*
X9251134Y-10538460D02*
X9232086Y-10547984D01*
X9232086Y-10547984D02*
X9213039Y-10547984D01*
X9213039Y-10547984D02*
X9193991Y-10538460D01*
X9193991Y-10538460D02*
X9184467Y-10528936D01*
X9184467Y-10528936D02*
X9174944Y-10509889D01*
X9174944Y-10509889D02*
X9165420Y-10471793D01*
X9165420Y-10471793D02*
X9165420Y-10424174D01*
X9165420Y-10424174D02*
X9174944Y-10386079D01*
X9174944Y-10386079D02*
X9184467Y-10367031D01*
X9184467Y-10367031D02*
X9193991Y-10357508D01*
X9193991Y-10357508D02*
X9213039Y-10347984D01*
X9365420Y-10547984D02*
X9365420Y-10414650D01*
X9365420Y-10433698D02*
X9374944Y-10424174D01*
X9374944Y-10424174D02*
X9393991Y-10414650D01*
X9393991Y-10414650D02*
X9422563Y-10414650D01*
X9422563Y-10414650D02*
X9441610Y-10424174D01*
X9441610Y-10424174D02*
X9451134Y-10443222D01*
X9451134Y-10443222D02*
X9451134Y-10547984D01*
X9451134Y-10443222D02*
X9460658Y-10424174D01*
X9460658Y-10424174D02*
X9479705Y-10414650D01*
X9479705Y-10414650D02*
X9508277Y-10414650D01*
X9508277Y-10414650D02*
X9527325Y-10424174D01*
X9527325Y-10424174D02*
X9536848Y-10443222D01*
X9536848Y-10443222D02*
X9536848Y-10547984D01*
X9632086Y-10547984D02*
X9632086Y-10414650D01*
X9632086Y-10433698D02*
X9641610Y-10424174D01*
X9641610Y-10424174D02*
X9660658Y-10414650D01*
X9660658Y-10414650D02*
X9689229Y-10414650D01*
X9689229Y-10414650D02*
X9708277Y-10424174D01*
X9708277Y-10424174D02*
X9717801Y-10443222D01*
X9717801Y-10443222D02*
X9717801Y-10547984D01*
X9717801Y-10443222D02*
X9727325Y-10424174D01*
X9727325Y-10424174D02*
X9746372Y-10414650D01*
X9746372Y-10414650D02*
X9774944Y-10414650D01*
X9774944Y-10414650D02*
X9793991Y-10424174D01*
X9793991Y-10424174D02*
X9803515Y-10443222D01*
X9803515Y-10443222D02*
X9803515Y-10547984D01*
X10193991Y-10338460D02*
X10022563Y-10595603D01*
X10451134Y-10347984D02*
X10470182Y-10347984D01*
X10470182Y-10347984D02*
X10489229Y-10357508D01*
X10489229Y-10357508D02*
X10498753Y-10367031D01*
X10498753Y-10367031D02*
X10508277Y-10386079D01*
X10508277Y-10386079D02*
X10517801Y-10424174D01*
X10517801Y-10424174D02*
X10517801Y-10471793D01*
X10517801Y-10471793D02*
X10508277Y-10509889D01*
X10508277Y-10509889D02*
X10498753Y-10528936D01*
X10498753Y-10528936D02*
X10489229Y-10538460D01*
X10489229Y-10538460D02*
X10470182Y-10547984D01*
X10470182Y-10547984D02*
X10451134Y-10547984D01*
X10451134Y-10547984D02*
X10432087Y-10538460D01*
X10432087Y-10538460D02*
X10422563Y-10528936D01*
X10422563Y-10528936D02*
X10413039Y-10509889D01*
X10413039Y-10509889D02*
X10403515Y-10471793D01*
X10403515Y-10471793D02*
X10403515Y-10424174D01*
X10403515Y-10424174D02*
X10413039Y-10386079D01*
X10413039Y-10386079D02*
X10422563Y-10367031D01*
X10422563Y-10367031D02*
X10432087Y-10357508D01*
X10432087Y-10357508D02*
X10451134Y-10347984D01*
X10603515Y-10528936D02*
X10613039Y-10538460D01*
X10613039Y-10538460D02*
X10603515Y-10547984D01*
X10603515Y-10547984D02*
X10593991Y-10538460D01*
X10593991Y-10538460D02*
X10603515Y-10528936D01*
X10603515Y-10528936D02*
X10603515Y-10547984D01*
X10736848Y-10347984D02*
X10755896Y-10347984D01*
X10755896Y-10347984D02*
X10774944Y-10357508D01*
X10774944Y-10357508D02*
X10784468Y-10367031D01*
X10784468Y-10367031D02*
X10793991Y-10386079D01*
X10793991Y-10386079D02*
X10803515Y-10424174D01*
X10803515Y-10424174D02*
X10803515Y-10471793D01*
X10803515Y-10471793D02*
X10793991Y-10509889D01*
X10793991Y-10509889D02*
X10784468Y-10528936D01*
X10784468Y-10528936D02*
X10774944Y-10538460D01*
X10774944Y-10538460D02*
X10755896Y-10547984D01*
X10755896Y-10547984D02*
X10736848Y-10547984D01*
X10736848Y-10547984D02*
X10717801Y-10538460D01*
X10717801Y-10538460D02*
X10708277Y-10528936D01*
X10708277Y-10528936D02*
X10698753Y-10509889D01*
X10698753Y-10509889D02*
X10689229Y-10471793D01*
X10689229Y-10471793D02*
X10689229Y-10424174D01*
X10689229Y-10424174D02*
X10698753Y-10386079D01*
X10698753Y-10386079D02*
X10708277Y-10367031D01*
X10708277Y-10367031D02*
X10717801Y-10357508D01*
X10717801Y-10357508D02*
X10736848Y-10347984D01*
X10974944Y-10414650D02*
X10974944Y-10547984D01*
X10927325Y-10338460D02*
X10879706Y-10481317D01*
X10879706Y-10481317D02*
X11003515Y-10481317D01*
X11060658Y-10347984D02*
X11184468Y-10347984D01*
X11184468Y-10347984D02*
X11117801Y-10424174D01*
X11117801Y-10424174D02*
X11146372Y-10424174D01*
X11146372Y-10424174D02*
X11165420Y-10433698D01*
X11165420Y-10433698D02*
X11174944Y-10443222D01*
X11174944Y-10443222D02*
X11184468Y-10462270D01*
X11184468Y-10462270D02*
X11184468Y-10509889D01*
X11184468Y-10509889D02*
X11174944Y-10528936D01*
X11174944Y-10528936D02*
X11165420Y-10538460D01*
X11165420Y-10538460D02*
X11146372Y-10547984D01*
X11146372Y-10547984D02*
X11089229Y-10547984D01*
X11089229Y-10547984D02*
X11070182Y-10538460D01*
X11070182Y-10538460D02*
X11060658Y-10528936D01*
X11251134Y-10347984D02*
X11374944Y-10347984D01*
X11374944Y-10347984D02*
X11308277Y-10424174D01*
X11308277Y-10424174D02*
X11336848Y-10424174D01*
X11336848Y-10424174D02*
X11355896Y-10433698D01*
X11355896Y-10433698D02*
X11365420Y-10443222D01*
X11365420Y-10443222D02*
X11374944Y-10462270D01*
X11374944Y-10462270D02*
X11374944Y-10509889D01*
X11374944Y-10509889D02*
X11365420Y-10528936D01*
X11365420Y-10528936D02*
X11355896Y-10538460D01*
X11355896Y-10538460D02*
X11336848Y-10547984D01*
X11336848Y-10547984D02*
X11279706Y-10547984D01*
X11279706Y-10547984D02*
X11260658Y-10538460D01*
X11260658Y-10538460D02*
X11251134Y-10528936D01*
X11451134Y-10347984D02*
X11451134Y-10386079D01*
X11527325Y-10347984D02*
X11527325Y-10386079D01*
X11822563Y-10624174D02*
X11813039Y-10614650D01*
X11813039Y-10614650D02*
X11793991Y-10586079D01*
X11793991Y-10586079D02*
X11784468Y-10567031D01*
X11784468Y-10567031D02*
X11774944Y-10538460D01*
X11774944Y-10538460D02*
X11765420Y-10490841D01*
X11765420Y-10490841D02*
X11765420Y-10452746D01*
X11765420Y-10452746D02*
X11774944Y-10405127D01*
X11774944Y-10405127D02*
X11784468Y-10376555D01*
X11784468Y-10376555D02*
X11793991Y-10357508D01*
X11793991Y-10357508D02*
X11813039Y-10328936D01*
X11813039Y-10328936D02*
X11822563Y-10319412D01*
X11879706Y-10347984D02*
X12003515Y-10347984D01*
X12003515Y-10347984D02*
X11936848Y-10424174D01*
X11936848Y-10424174D02*
X11965420Y-10424174D01*
X11965420Y-10424174D02*
X11984468Y-10433698D01*
X11984468Y-10433698D02*
X11993991Y-10443222D01*
X11993991Y-10443222D02*
X12003515Y-10462270D01*
X12003515Y-10462270D02*
X12003515Y-10509889D01*
X12003515Y-10509889D02*
X11993991Y-10528936D01*
X11993991Y-10528936D02*
X11984468Y-10538460D01*
X11984468Y-10538460D02*
X11965420Y-10547984D01*
X11965420Y-10547984D02*
X11908277Y-10547984D01*
X11908277Y-10547984D02*
X11889229Y-10538460D01*
X11889229Y-10538460D02*
X11879706Y-10528936D01*
X12079706Y-10367031D02*
X12089229Y-10357508D01*
X12089229Y-10357508D02*
X12108277Y-10347984D01*
X12108277Y-10347984D02*
X12155896Y-10347984D01*
X12155896Y-10347984D02*
X12174944Y-10357508D01*
X12174944Y-10357508D02*
X12184468Y-10367031D01*
X12184468Y-10367031D02*
X12193991Y-10386079D01*
X12193991Y-10386079D02*
X12193991Y-10405127D01*
X12193991Y-10405127D02*
X12184468Y-10433698D01*
X12184468Y-10433698D02*
X12070182Y-10547984D01*
X12070182Y-10547984D02*
X12193991Y-10547984D01*
X12432087Y-10547984D02*
X12432087Y-10347984D01*
X12517801Y-10547984D02*
X12517801Y-10443222D01*
X12517801Y-10443222D02*
X12508277Y-10424174D01*
X12508277Y-10424174D02*
X12489230Y-10414650D01*
X12489230Y-10414650D02*
X12460658Y-10414650D01*
X12460658Y-10414650D02*
X12441610Y-10424174D01*
X12441610Y-10424174D02*
X12432087Y-10433698D01*
X12641610Y-10547984D02*
X12622563Y-10538460D01*
X12622563Y-10538460D02*
X12613039Y-10528936D01*
X12613039Y-10528936D02*
X12603515Y-10509889D01*
X12603515Y-10509889D02*
X12603515Y-10452746D01*
X12603515Y-10452746D02*
X12613039Y-10433698D01*
X12613039Y-10433698D02*
X12622563Y-10424174D01*
X12622563Y-10424174D02*
X12641610Y-10414650D01*
X12641610Y-10414650D02*
X12670182Y-10414650D01*
X12670182Y-10414650D02*
X12689230Y-10424174D01*
X12689230Y-10424174D02*
X12698753Y-10433698D01*
X12698753Y-10433698D02*
X12708277Y-10452746D01*
X12708277Y-10452746D02*
X12708277Y-10509889D01*
X12708277Y-10509889D02*
X12698753Y-10528936D01*
X12698753Y-10528936D02*
X12689230Y-10538460D01*
X12689230Y-10538460D02*
X12670182Y-10547984D01*
X12670182Y-10547984D02*
X12641610Y-10547984D01*
X12822563Y-10547984D02*
X12803515Y-10538460D01*
X12803515Y-10538460D02*
X12793991Y-10519412D01*
X12793991Y-10519412D02*
X12793991Y-10347984D01*
X12974944Y-10538460D02*
X12955896Y-10547984D01*
X12955896Y-10547984D02*
X12917801Y-10547984D01*
X12917801Y-10547984D02*
X12898753Y-10538460D01*
X12898753Y-10538460D02*
X12889230Y-10519412D01*
X12889230Y-10519412D02*
X12889230Y-10443222D01*
X12889230Y-10443222D02*
X12898753Y-10424174D01*
X12898753Y-10424174D02*
X12917801Y-10414650D01*
X12917801Y-10414650D02*
X12955896Y-10414650D01*
X12955896Y-10414650D02*
X12974944Y-10424174D01*
X12974944Y-10424174D02*
X12984468Y-10443222D01*
X12984468Y-10443222D02*
X12984468Y-10462270D01*
X12984468Y-10462270D02*
X12889230Y-10481317D01*
X13060658Y-10538460D02*
X13079706Y-10547984D01*
X13079706Y-10547984D02*
X13117801Y-10547984D01*
X13117801Y-10547984D02*
X13136849Y-10538460D01*
X13136849Y-10538460D02*
X13146372Y-10519412D01*
X13146372Y-10519412D02*
X13146372Y-10509889D01*
X13146372Y-10509889D02*
X13136849Y-10490841D01*
X13136849Y-10490841D02*
X13117801Y-10481317D01*
X13117801Y-10481317D02*
X13089230Y-10481317D01*
X13089230Y-10481317D02*
X13070182Y-10471793D01*
X13070182Y-10471793D02*
X13060658Y-10452746D01*
X13060658Y-10452746D02*
X13060658Y-10443222D01*
X13060658Y-10443222D02*
X13070182Y-10424174D01*
X13070182Y-10424174D02*
X13089230Y-10414650D01*
X13089230Y-10414650D02*
X13117801Y-10414650D01*
X13117801Y-10414650D02*
X13136849Y-10424174D01*
X13213039Y-10624174D02*
X13222563Y-10614650D01*
X13222563Y-10614650D02*
X13241611Y-10586079D01*
X13241611Y-10586079D02*
X13251134Y-10567031D01*
X13251134Y-10567031D02*
X13260658Y-10538460D01*
X13260658Y-10538460D02*
X13270182Y-10490841D01*
X13270182Y-10490841D02*
X13270182Y-10452746D01*
X13270182Y-10452746D02*
X13260658Y-10405127D01*
X13260658Y-10405127D02*
X13251134Y-10376555D01*
X13251134Y-10376555D02*
X13241611Y-10357508D01*
X13241611Y-10357508D02*
X13222563Y-10328936D01*
X13222563Y-10328936D02*
X13213039Y-10319412D01*
X8147500Y-10620500D02*
X8147500Y-10820500D01*
X8047500Y-10720500D02*
X8247500Y-10720500D01*
X8489229Y-10611984D02*
X8613039Y-10611984D01*
X8613039Y-10611984D02*
X8546372Y-10688174D01*
X8546372Y-10688174D02*
X8574944Y-10688174D01*
X8574944Y-10688174D02*
X8593991Y-10697698D01*
X8593991Y-10697698D02*
X8603515Y-10707222D01*
X8603515Y-10707222D02*
X8613039Y-10726270D01*
X8613039Y-10726270D02*
X8613039Y-10773889D01*
X8613039Y-10773889D02*
X8603515Y-10792936D01*
X8603515Y-10792936D02*
X8593991Y-10802460D01*
X8593991Y-10802460D02*
X8574944Y-10811984D01*
X8574944Y-10811984D02*
X8517801Y-10811984D01*
X8517801Y-10811984D02*
X8498753Y-10802460D01*
X8498753Y-10802460D02*
X8489229Y-10792936D01*
X8698753Y-10792936D02*
X8708277Y-10802460D01*
X8708277Y-10802460D02*
X8698753Y-10811984D01*
X8698753Y-10811984D02*
X8689229Y-10802460D01*
X8689229Y-10802460D02*
X8698753Y-10792936D01*
X8698753Y-10792936D02*
X8698753Y-10811984D01*
X8784467Y-10631031D02*
X8793991Y-10621508D01*
X8793991Y-10621508D02*
X8813039Y-10611984D01*
X8813039Y-10611984D02*
X8860658Y-10611984D01*
X8860658Y-10611984D02*
X8879705Y-10621508D01*
X8879705Y-10621508D02*
X8889229Y-10631031D01*
X8889229Y-10631031D02*
X8898753Y-10650079D01*
X8898753Y-10650079D02*
X8898753Y-10669127D01*
X8898753Y-10669127D02*
X8889229Y-10697698D01*
X8889229Y-10697698D02*
X8774944Y-10811984D01*
X8774944Y-10811984D02*
X8898753Y-10811984D01*
X9022563Y-10611984D02*
X9041610Y-10611984D01*
X9041610Y-10611984D02*
X9060658Y-10621508D01*
X9060658Y-10621508D02*
X9070182Y-10631031D01*
X9070182Y-10631031D02*
X9079705Y-10650079D01*
X9079705Y-10650079D02*
X9089229Y-10688174D01*
X9089229Y-10688174D02*
X9089229Y-10735793D01*
X9089229Y-10735793D02*
X9079705Y-10773889D01*
X9079705Y-10773889D02*
X9070182Y-10792936D01*
X9070182Y-10792936D02*
X9060658Y-10802460D01*
X9060658Y-10802460D02*
X9041610Y-10811984D01*
X9041610Y-10811984D02*
X9022563Y-10811984D01*
X9022563Y-10811984D02*
X9003515Y-10802460D01*
X9003515Y-10802460D02*
X8993991Y-10792936D01*
X8993991Y-10792936D02*
X8984467Y-10773889D01*
X8984467Y-10773889D02*
X8974944Y-10735793D01*
X8974944Y-10735793D02*
X8974944Y-10688174D01*
X8974944Y-10688174D02*
X8984467Y-10650079D01*
X8984467Y-10650079D02*
X8993991Y-10631031D01*
X8993991Y-10631031D02*
X9003515Y-10621508D01*
X9003515Y-10621508D02*
X9022563Y-10611984D01*
X9213039Y-10611984D02*
X9232086Y-10611984D01*
X9232086Y-10611984D02*
X9251134Y-10621508D01*
X9251134Y-10621508D02*
X9260658Y-10631031D01*
X9260658Y-10631031D02*
X9270182Y-10650079D01*
X9270182Y-10650079D02*
X9279705Y-10688174D01*
X9279705Y-10688174D02*
X9279705Y-10735793D01*
X9279705Y-10735793D02*
X9270182Y-10773889D01*
X9270182Y-10773889D02*
X9260658Y-10792936D01*
X9260658Y-10792936D02*
X9251134Y-10802460D01*
X9251134Y-10802460D02*
X9232086Y-10811984D01*
X9232086Y-10811984D02*
X9213039Y-10811984D01*
X9213039Y-10811984D02*
X9193991Y-10802460D01*
X9193991Y-10802460D02*
X9184467Y-10792936D01*
X9184467Y-10792936D02*
X9174944Y-10773889D01*
X9174944Y-10773889D02*
X9165420Y-10735793D01*
X9165420Y-10735793D02*
X9165420Y-10688174D01*
X9165420Y-10688174D02*
X9174944Y-10650079D01*
X9174944Y-10650079D02*
X9184467Y-10631031D01*
X9184467Y-10631031D02*
X9193991Y-10621508D01*
X9193991Y-10621508D02*
X9213039Y-10611984D01*
X9365420Y-10811984D02*
X9365420Y-10678650D01*
X9365420Y-10697698D02*
X9374944Y-10688174D01*
X9374944Y-10688174D02*
X9393991Y-10678650D01*
X9393991Y-10678650D02*
X9422563Y-10678650D01*
X9422563Y-10678650D02*
X9441610Y-10688174D01*
X9441610Y-10688174D02*
X9451134Y-10707222D01*
X9451134Y-10707222D02*
X9451134Y-10811984D01*
X9451134Y-10707222D02*
X9460658Y-10688174D01*
X9460658Y-10688174D02*
X9479705Y-10678650D01*
X9479705Y-10678650D02*
X9508277Y-10678650D01*
X9508277Y-10678650D02*
X9527325Y-10688174D01*
X9527325Y-10688174D02*
X9536848Y-10707222D01*
X9536848Y-10707222D02*
X9536848Y-10811984D01*
X9632086Y-10811984D02*
X9632086Y-10678650D01*
X9632086Y-10697698D02*
X9641610Y-10688174D01*
X9641610Y-10688174D02*
X9660658Y-10678650D01*
X9660658Y-10678650D02*
X9689229Y-10678650D01*
X9689229Y-10678650D02*
X9708277Y-10688174D01*
X9708277Y-10688174D02*
X9717801Y-10707222D01*
X9717801Y-10707222D02*
X9717801Y-10811984D01*
X9717801Y-10707222D02*
X9727325Y-10688174D01*
X9727325Y-10688174D02*
X9746372Y-10678650D01*
X9746372Y-10678650D02*
X9774944Y-10678650D01*
X9774944Y-10678650D02*
X9793991Y-10688174D01*
X9793991Y-10688174D02*
X9803515Y-10707222D01*
X9803515Y-10707222D02*
X9803515Y-10811984D01*
X10193991Y-10602460D02*
X10022563Y-10859603D01*
X10451134Y-10611984D02*
X10470182Y-10611984D01*
X10470182Y-10611984D02*
X10489229Y-10621508D01*
X10489229Y-10621508D02*
X10498753Y-10631031D01*
X10498753Y-10631031D02*
X10508277Y-10650079D01*
X10508277Y-10650079D02*
X10517801Y-10688174D01*
X10517801Y-10688174D02*
X10517801Y-10735793D01*
X10517801Y-10735793D02*
X10508277Y-10773889D01*
X10508277Y-10773889D02*
X10498753Y-10792936D01*
X10498753Y-10792936D02*
X10489229Y-10802460D01*
X10489229Y-10802460D02*
X10470182Y-10811984D01*
X10470182Y-10811984D02*
X10451134Y-10811984D01*
X10451134Y-10811984D02*
X10432087Y-10802460D01*
X10432087Y-10802460D02*
X10422563Y-10792936D01*
X10422563Y-10792936D02*
X10413039Y-10773889D01*
X10413039Y-10773889D02*
X10403515Y-10735793D01*
X10403515Y-10735793D02*
X10403515Y-10688174D01*
X10403515Y-10688174D02*
X10413039Y-10650079D01*
X10413039Y-10650079D02*
X10422563Y-10631031D01*
X10422563Y-10631031D02*
X10432087Y-10621508D01*
X10432087Y-10621508D02*
X10451134Y-10611984D01*
X10603515Y-10792936D02*
X10613039Y-10802460D01*
X10613039Y-10802460D02*
X10603515Y-10811984D01*
X10603515Y-10811984D02*
X10593991Y-10802460D01*
X10593991Y-10802460D02*
X10603515Y-10792936D01*
X10603515Y-10792936D02*
X10603515Y-10811984D01*
X10803515Y-10811984D02*
X10689229Y-10811984D01*
X10746372Y-10811984D02*
X10746372Y-10611984D01*
X10746372Y-10611984D02*
X10727325Y-10640555D01*
X10727325Y-10640555D02*
X10708277Y-10659603D01*
X10708277Y-10659603D02*
X10689229Y-10669127D01*
X10879706Y-10631031D02*
X10889229Y-10621508D01*
X10889229Y-10621508D02*
X10908277Y-10611984D01*
X10908277Y-10611984D02*
X10955896Y-10611984D01*
X10955896Y-10611984D02*
X10974944Y-10621508D01*
X10974944Y-10621508D02*
X10984468Y-10631031D01*
X10984468Y-10631031D02*
X10993991Y-10650079D01*
X10993991Y-10650079D02*
X10993991Y-10669127D01*
X10993991Y-10669127D02*
X10984468Y-10697698D01*
X10984468Y-10697698D02*
X10870182Y-10811984D01*
X10870182Y-10811984D02*
X10993991Y-10811984D01*
X11165420Y-10611984D02*
X11127325Y-10611984D01*
X11127325Y-10611984D02*
X11108277Y-10621508D01*
X11108277Y-10621508D02*
X11098753Y-10631031D01*
X11098753Y-10631031D02*
X11079706Y-10659603D01*
X11079706Y-10659603D02*
X11070182Y-10697698D01*
X11070182Y-10697698D02*
X11070182Y-10773889D01*
X11070182Y-10773889D02*
X11079706Y-10792936D01*
X11079706Y-10792936D02*
X11089229Y-10802460D01*
X11089229Y-10802460D02*
X11108277Y-10811984D01*
X11108277Y-10811984D02*
X11146372Y-10811984D01*
X11146372Y-10811984D02*
X11165420Y-10802460D01*
X11165420Y-10802460D02*
X11174944Y-10792936D01*
X11174944Y-10792936D02*
X11184468Y-10773889D01*
X11184468Y-10773889D02*
X11184468Y-10726270D01*
X11184468Y-10726270D02*
X11174944Y-10707222D01*
X11174944Y-10707222D02*
X11165420Y-10697698D01*
X11165420Y-10697698D02*
X11146372Y-10688174D01*
X11146372Y-10688174D02*
X11108277Y-10688174D01*
X11108277Y-10688174D02*
X11089229Y-10697698D01*
X11089229Y-10697698D02*
X11079706Y-10707222D01*
X11079706Y-10707222D02*
X11070182Y-10726270D01*
X11308277Y-10611984D02*
X11327325Y-10611984D01*
X11327325Y-10611984D02*
X11346372Y-10621508D01*
X11346372Y-10621508D02*
X11355896Y-10631031D01*
X11355896Y-10631031D02*
X11365420Y-10650079D01*
X11365420Y-10650079D02*
X11374944Y-10688174D01*
X11374944Y-10688174D02*
X11374944Y-10735793D01*
X11374944Y-10735793D02*
X11365420Y-10773889D01*
X11365420Y-10773889D02*
X11355896Y-10792936D01*
X11355896Y-10792936D02*
X11346372Y-10802460D01*
X11346372Y-10802460D02*
X11327325Y-10811984D01*
X11327325Y-10811984D02*
X11308277Y-10811984D01*
X11308277Y-10811984D02*
X11289229Y-10802460D01*
X11289229Y-10802460D02*
X11279706Y-10792936D01*
X11279706Y-10792936D02*
X11270182Y-10773889D01*
X11270182Y-10773889D02*
X11260658Y-10735793D01*
X11260658Y-10735793D02*
X11260658Y-10688174D01*
X11260658Y-10688174D02*
X11270182Y-10650079D01*
X11270182Y-10650079D02*
X11279706Y-10631031D01*
X11279706Y-10631031D02*
X11289229Y-10621508D01*
X11289229Y-10621508D02*
X11308277Y-10611984D01*
X11451134Y-10611984D02*
X11451134Y-10650079D01*
X11527325Y-10611984D02*
X11527325Y-10650079D01*
X11822563Y-10888174D02*
X11813039Y-10878650D01*
X11813039Y-10878650D02*
X11793991Y-10850079D01*
X11793991Y-10850079D02*
X11784468Y-10831031D01*
X11784468Y-10831031D02*
X11774944Y-10802460D01*
X11774944Y-10802460D02*
X11765420Y-10754841D01*
X11765420Y-10754841D02*
X11765420Y-10716746D01*
X11765420Y-10716746D02*
X11774944Y-10669127D01*
X11774944Y-10669127D02*
X11784468Y-10640555D01*
X11784468Y-10640555D02*
X11793991Y-10621508D01*
X11793991Y-10621508D02*
X11813039Y-10592936D01*
X11813039Y-10592936D02*
X11822563Y-10583412D01*
X11889229Y-10631031D02*
X11898753Y-10621508D01*
X11898753Y-10621508D02*
X11917801Y-10611984D01*
X11917801Y-10611984D02*
X11965420Y-10611984D01*
X11965420Y-10611984D02*
X11984468Y-10621508D01*
X11984468Y-10621508D02*
X11993991Y-10631031D01*
X11993991Y-10631031D02*
X12003515Y-10650079D01*
X12003515Y-10650079D02*
X12003515Y-10669127D01*
X12003515Y-10669127D02*
X11993991Y-10697698D01*
X11993991Y-10697698D02*
X11879706Y-10811984D01*
X11879706Y-10811984D02*
X12003515Y-10811984D01*
X12241610Y-10811984D02*
X12241610Y-10611984D01*
X12327325Y-10811984D02*
X12327325Y-10707222D01*
X12327325Y-10707222D02*
X12317801Y-10688174D01*
X12317801Y-10688174D02*
X12298753Y-10678650D01*
X12298753Y-10678650D02*
X12270182Y-10678650D01*
X12270182Y-10678650D02*
X12251134Y-10688174D01*
X12251134Y-10688174D02*
X12241610Y-10697698D01*
X12451134Y-10811984D02*
X12432087Y-10802460D01*
X12432087Y-10802460D02*
X12422563Y-10792936D01*
X12422563Y-10792936D02*
X12413039Y-10773889D01*
X12413039Y-10773889D02*
X12413039Y-10716746D01*
X12413039Y-10716746D02*
X12422563Y-10697698D01*
X12422563Y-10697698D02*
X12432087Y-10688174D01*
X12432087Y-10688174D02*
X12451134Y-10678650D01*
X12451134Y-10678650D02*
X12479706Y-10678650D01*
X12479706Y-10678650D02*
X12498753Y-10688174D01*
X12498753Y-10688174D02*
X12508277Y-10697698D01*
X12508277Y-10697698D02*
X12517801Y-10716746D01*
X12517801Y-10716746D02*
X12517801Y-10773889D01*
X12517801Y-10773889D02*
X12508277Y-10792936D01*
X12508277Y-10792936D02*
X12498753Y-10802460D01*
X12498753Y-10802460D02*
X12479706Y-10811984D01*
X12479706Y-10811984D02*
X12451134Y-10811984D01*
X12632087Y-10811984D02*
X12613039Y-10802460D01*
X12613039Y-10802460D02*
X12603515Y-10783412D01*
X12603515Y-10783412D02*
X12603515Y-10611984D01*
X12784468Y-10802460D02*
X12765420Y-10811984D01*
X12765420Y-10811984D02*
X12727325Y-10811984D01*
X12727325Y-10811984D02*
X12708277Y-10802460D01*
X12708277Y-10802460D02*
X12698753Y-10783412D01*
X12698753Y-10783412D02*
X12698753Y-10707222D01*
X12698753Y-10707222D02*
X12708277Y-10688174D01*
X12708277Y-10688174D02*
X12727325Y-10678650D01*
X12727325Y-10678650D02*
X12765420Y-10678650D01*
X12765420Y-10678650D02*
X12784468Y-10688174D01*
X12784468Y-10688174D02*
X12793991Y-10707222D01*
X12793991Y-10707222D02*
X12793991Y-10726270D01*
X12793991Y-10726270D02*
X12698753Y-10745317D01*
X12870182Y-10802460D02*
X12889230Y-10811984D01*
X12889230Y-10811984D02*
X12927325Y-10811984D01*
X12927325Y-10811984D02*
X12946372Y-10802460D01*
X12946372Y-10802460D02*
X12955896Y-10783412D01*
X12955896Y-10783412D02*
X12955896Y-10773889D01*
X12955896Y-10773889D02*
X12946372Y-10754841D01*
X12946372Y-10754841D02*
X12927325Y-10745317D01*
X12927325Y-10745317D02*
X12898753Y-10745317D01*
X12898753Y-10745317D02*
X12879706Y-10735793D01*
X12879706Y-10735793D02*
X12870182Y-10716746D01*
X12870182Y-10716746D02*
X12870182Y-10707222D01*
X12870182Y-10707222D02*
X12879706Y-10688174D01*
X12879706Y-10688174D02*
X12898753Y-10678650D01*
X12898753Y-10678650D02*
X12927325Y-10678650D01*
X12927325Y-10678650D02*
X12946372Y-10688174D01*
X13022563Y-10888174D02*
X13032087Y-10878650D01*
X13032087Y-10878650D02*
X13051134Y-10850079D01*
X13051134Y-10850079D02*
X13060658Y-10831031D01*
X13060658Y-10831031D02*
X13070182Y-10802460D01*
X13070182Y-10802460D02*
X13079706Y-10754841D01*
X13079706Y-10754841D02*
X13079706Y-10716746D01*
X13079706Y-10716746D02*
X13070182Y-10669127D01*
X13070182Y-10669127D02*
X13060658Y-10640555D01*
X13060658Y-10640555D02*
X13051134Y-10621508D01*
X13051134Y-10621508D02*
X13032087Y-10592936D01*
X13032087Y-10592936D02*
X13022563Y-10583412D01*
X13384468Y-10888174D02*
X13374944Y-10878650D01*
X13374944Y-10878650D02*
X13355896Y-10850079D01*
X13355896Y-10850079D02*
X13346372Y-10831031D01*
X13346372Y-10831031D02*
X13336849Y-10802460D01*
X13336849Y-10802460D02*
X13327325Y-10754841D01*
X13327325Y-10754841D02*
X13327325Y-10716746D01*
X13327325Y-10716746D02*
X13336849Y-10669127D01*
X13336849Y-10669127D02*
X13346372Y-10640555D01*
X13346372Y-10640555D02*
X13355896Y-10621508D01*
X13355896Y-10621508D02*
X13374944Y-10592936D01*
X13374944Y-10592936D02*
X13384468Y-10583412D01*
X13460658Y-10678650D02*
X13460658Y-10811984D01*
X13460658Y-10697698D02*
X13470182Y-10688174D01*
X13470182Y-10688174D02*
X13489230Y-10678650D01*
X13489230Y-10678650D02*
X13517801Y-10678650D01*
X13517801Y-10678650D02*
X13536849Y-10688174D01*
X13536849Y-10688174D02*
X13546372Y-10707222D01*
X13546372Y-10707222D02*
X13546372Y-10811984D01*
X13670182Y-10811984D02*
X13651134Y-10802460D01*
X13651134Y-10802460D02*
X13641611Y-10792936D01*
X13641611Y-10792936D02*
X13632087Y-10773889D01*
X13632087Y-10773889D02*
X13632087Y-10716746D01*
X13632087Y-10716746D02*
X13641611Y-10697698D01*
X13641611Y-10697698D02*
X13651134Y-10688174D01*
X13651134Y-10688174D02*
X13670182Y-10678650D01*
X13670182Y-10678650D02*
X13698753Y-10678650D01*
X13698753Y-10678650D02*
X13717801Y-10688174D01*
X13717801Y-10688174D02*
X13727325Y-10697698D01*
X13727325Y-10697698D02*
X13736849Y-10716746D01*
X13736849Y-10716746D02*
X13736849Y-10773889D01*
X13736849Y-10773889D02*
X13727325Y-10792936D01*
X13727325Y-10792936D02*
X13717801Y-10802460D01*
X13717801Y-10802460D02*
X13698753Y-10811984D01*
X13698753Y-10811984D02*
X13670182Y-10811984D01*
X13793992Y-10678650D02*
X13870182Y-10678650D01*
X13822563Y-10611984D02*
X13822563Y-10783412D01*
X13822563Y-10783412D02*
X13832087Y-10802460D01*
X13832087Y-10802460D02*
X13851134Y-10811984D01*
X13851134Y-10811984D02*
X13870182Y-10811984D01*
X14089230Y-10678650D02*
X14089230Y-10878650D01*
X14089230Y-10688174D02*
X14108277Y-10678650D01*
X14108277Y-10678650D02*
X14146373Y-10678650D01*
X14146373Y-10678650D02*
X14165420Y-10688174D01*
X14165420Y-10688174D02*
X14174944Y-10697698D01*
X14174944Y-10697698D02*
X14184468Y-10716746D01*
X14184468Y-10716746D02*
X14184468Y-10773889D01*
X14184468Y-10773889D02*
X14174944Y-10792936D01*
X14174944Y-10792936D02*
X14165420Y-10802460D01*
X14165420Y-10802460D02*
X14146373Y-10811984D01*
X14146373Y-10811984D02*
X14108277Y-10811984D01*
X14108277Y-10811984D02*
X14089230Y-10802460D01*
X14298753Y-10811984D02*
X14279706Y-10802460D01*
X14279706Y-10802460D02*
X14270182Y-10783412D01*
X14270182Y-10783412D02*
X14270182Y-10611984D01*
X14460658Y-10811984D02*
X14460658Y-10707222D01*
X14460658Y-10707222D02*
X14451134Y-10688174D01*
X14451134Y-10688174D02*
X14432087Y-10678650D01*
X14432087Y-10678650D02*
X14393992Y-10678650D01*
X14393992Y-10678650D02*
X14374944Y-10688174D01*
X14460658Y-10802460D02*
X14441611Y-10811984D01*
X14441611Y-10811984D02*
X14393992Y-10811984D01*
X14393992Y-10811984D02*
X14374944Y-10802460D01*
X14374944Y-10802460D02*
X14365420Y-10783412D01*
X14365420Y-10783412D02*
X14365420Y-10764365D01*
X14365420Y-10764365D02*
X14374944Y-10745317D01*
X14374944Y-10745317D02*
X14393992Y-10735793D01*
X14393992Y-10735793D02*
X14441611Y-10735793D01*
X14441611Y-10735793D02*
X14460658Y-10726270D01*
X14527325Y-10678650D02*
X14603515Y-10678650D01*
X14555896Y-10611984D02*
X14555896Y-10783412D01*
X14555896Y-10783412D02*
X14565420Y-10802460D01*
X14565420Y-10802460D02*
X14584468Y-10811984D01*
X14584468Y-10811984D02*
X14603515Y-10811984D01*
X14746373Y-10802460D02*
X14727325Y-10811984D01*
X14727325Y-10811984D02*
X14689230Y-10811984D01*
X14689230Y-10811984D02*
X14670182Y-10802460D01*
X14670182Y-10802460D02*
X14660658Y-10783412D01*
X14660658Y-10783412D02*
X14660658Y-10707222D01*
X14660658Y-10707222D02*
X14670182Y-10688174D01*
X14670182Y-10688174D02*
X14689230Y-10678650D01*
X14689230Y-10678650D02*
X14727325Y-10678650D01*
X14727325Y-10678650D02*
X14746373Y-10688174D01*
X14746373Y-10688174D02*
X14755896Y-10707222D01*
X14755896Y-10707222D02*
X14755896Y-10726270D01*
X14755896Y-10726270D02*
X14660658Y-10745317D01*
X14927325Y-10811984D02*
X14927325Y-10611984D01*
X14927325Y-10802460D02*
X14908277Y-10811984D01*
X14908277Y-10811984D02*
X14870182Y-10811984D01*
X14870182Y-10811984D02*
X14851134Y-10802460D01*
X14851134Y-10802460D02*
X14841611Y-10792936D01*
X14841611Y-10792936D02*
X14832087Y-10773889D01*
X14832087Y-10773889D02*
X14832087Y-10716746D01*
X14832087Y-10716746D02*
X14841611Y-10697698D01*
X14841611Y-10697698D02*
X14851134Y-10688174D01*
X14851134Y-10688174D02*
X14870182Y-10678650D01*
X14870182Y-10678650D02*
X14908277Y-10678650D01*
X14908277Y-10678650D02*
X14927325Y-10688174D01*
X15003515Y-10888174D02*
X15013039Y-10878650D01*
X15013039Y-10878650D02*
X15032087Y-10850079D01*
X15032087Y-10850079D02*
X15041611Y-10831031D01*
X15041611Y-10831031D02*
X15051134Y-10802460D01*
X15051134Y-10802460D02*
X15060658Y-10754841D01*
X15060658Y-10754841D02*
X15060658Y-10716746D01*
X15060658Y-10716746D02*
X15051134Y-10669127D01*
X15051134Y-10669127D02*
X15041611Y-10640555D01*
X15041611Y-10640555D02*
X15032087Y-10621508D01*
X15032087Y-10621508D02*
X15013039Y-10592936D01*
X15013039Y-10592936D02*
X15003515Y-10583412D01*
M02*
