%TF.GenerationSoftware,KiCad,Pcbnew,8.0.5*%
%TF.CreationDate,2024-11-12T13:58:08+11:00*%
%TF.ProjectId,wheel,77686565-6c2e-46b6-9963-61645f706362,rev?*%
%TF.SameCoordinates,Original*%
%TF.FileFunction,Copper,L1,Top*%
%TF.FilePolarity,Positive*%
%FSLAX46Y46*%
G04 Gerber Fmt 4.6, Leading zero omitted, Abs format (unit mm)*
G04 Created by KiCad (PCBNEW 8.0.5) date 2024-11-12 13:58:08*
%MOMM*%
%LPD*%
G01*
G04 APERTURE LIST*
%ADD10C,0.150000*%
%TA.AperFunction,ComponentPad*%
%ADD11C,2.000000*%
%TD*%
%TA.AperFunction,ComponentPad*%
%ADD12R,1.700000X1.700000*%
%TD*%
%TA.AperFunction,ComponentPad*%
%ADD13O,1.700000X1.700000*%
%TD*%
%TA.AperFunction,Conductor*%
%ADD14C,1.600000*%
%TD*%
%TA.AperFunction,Conductor*%
%ADD15C,0.200000*%
%TD*%
G04 APERTURE END LIST*
D10*
G36*
X145315795Y-62140930D02*
G01*
X142230556Y-62140930D01*
X142230556Y-61145295D01*
X142341667Y-61145295D01*
X142341667Y-61240533D01*
X142343108Y-61255165D01*
X142344139Y-61257654D01*
X142344330Y-61260342D01*
X142349585Y-61274074D01*
X142397204Y-61369312D01*
X142401168Y-61375611D01*
X142401926Y-61377439D01*
X142403614Y-61379495D01*
X142405036Y-61381755D01*
X142406534Y-61383054D01*
X142411253Y-61388804D01*
X142458872Y-61436423D01*
X142464621Y-61441141D01*
X142465921Y-61442640D01*
X142468180Y-61444061D01*
X142470237Y-61445750D01*
X142472064Y-61446507D01*
X142478364Y-61450472D01*
X142573602Y-61498091D01*
X142574671Y-61498500D01*
X142575107Y-61498823D01*
X142581243Y-61501015D01*
X142587333Y-61503346D01*
X142587873Y-61503384D01*
X142588953Y-61503770D01*
X142771443Y-61549392D01*
X142848430Y-61587886D01*
X142878837Y-61618293D01*
X142913095Y-61686809D01*
X142913095Y-61746637D01*
X142878836Y-61815153D01*
X142848429Y-61845561D01*
X142779914Y-61879819D01*
X142571694Y-61879819D01*
X142440384Y-61836049D01*
X142426047Y-61832789D01*
X142396857Y-61834864D01*
X142370684Y-61847950D01*
X142351510Y-61870057D01*
X142342256Y-61897820D01*
X142344331Y-61927010D01*
X142357417Y-61953183D01*
X142379524Y-61972357D01*
X142392950Y-61978351D01*
X142535806Y-62025970D01*
X142543061Y-62027619D01*
X142544892Y-62028378D01*
X142547545Y-62028639D01*
X142550143Y-62029230D01*
X142552117Y-62029089D01*
X142559524Y-62029819D01*
X142797619Y-62029819D01*
X142812251Y-62028378D01*
X142814740Y-62027346D01*
X142817428Y-62027156D01*
X142831160Y-62021901D01*
X142926398Y-61974282D01*
X142932697Y-61970317D01*
X142934525Y-61969560D01*
X142936581Y-61967872D01*
X142938841Y-61966450D01*
X142940141Y-61964950D01*
X142945891Y-61960232D01*
X142993509Y-61912613D01*
X142998227Y-61906863D01*
X142999726Y-61905564D01*
X143001147Y-61903305D01*
X143002837Y-61901247D01*
X143003594Y-61899417D01*
X143007558Y-61893121D01*
X143055177Y-61797883D01*
X143060432Y-61784152D01*
X143060623Y-61781462D01*
X143061654Y-61778974D01*
X143063095Y-61764342D01*
X143063095Y-61669104D01*
X143061654Y-61654472D01*
X143060623Y-61651983D01*
X143060432Y-61649294D01*
X143055177Y-61635563D01*
X143007558Y-61540325D01*
X143003593Y-61534025D01*
X143002836Y-61532198D01*
X143001147Y-61530141D01*
X142999726Y-61527882D01*
X142998227Y-61526582D01*
X142993509Y-61520833D01*
X142945890Y-61473214D01*
X142940140Y-61468495D01*
X142938841Y-61466997D01*
X142936581Y-61465575D01*
X142934525Y-61463887D01*
X142932697Y-61463129D01*
X142926398Y-61459165D01*
X142831160Y-61411546D01*
X142830090Y-61411136D01*
X142829655Y-61410814D01*
X142823509Y-61408618D01*
X142817428Y-61406291D01*
X142816888Y-61406252D01*
X142815809Y-61405867D01*
X142633319Y-61360244D01*
X142556332Y-61321751D01*
X142525925Y-61291344D01*
X142491667Y-61222828D01*
X142491667Y-61163000D01*
X142525925Y-61094484D01*
X142556332Y-61064077D01*
X142624848Y-61029819D01*
X142833068Y-61029819D01*
X142964377Y-61073589D01*
X142978714Y-61076849D01*
X143007904Y-61074774D01*
X143034078Y-61061688D01*
X143053252Y-61039580D01*
X143062506Y-61011818D01*
X143060431Y-60982628D01*
X143047928Y-60957623D01*
X143246481Y-60957623D01*
X143248469Y-60972191D01*
X143486564Y-61972191D01*
X143488293Y-61977210D01*
X143488533Y-61979012D01*
X143489475Y-61980640D01*
X143491354Y-61986091D01*
X143497740Y-61994915D01*
X143503195Y-62004337D01*
X143506252Y-62006677D01*
X143508511Y-62009798D01*
X143517786Y-62015505D01*
X143526433Y-62022124D01*
X143530153Y-62023116D01*
X143533433Y-62025134D01*
X143544187Y-62026858D01*
X143554709Y-62029664D01*
X143558524Y-62029157D01*
X143562328Y-62029767D01*
X143572926Y-62027243D01*
X143583717Y-62025810D01*
X143587048Y-62023881D01*
X143590796Y-62022989D01*
X143599620Y-62016602D01*
X143609042Y-62011148D01*
X143611382Y-62008090D01*
X143614503Y-62005832D01*
X143620210Y-61996556D01*
X143626829Y-61987910D01*
X143628854Y-61982510D01*
X143629839Y-61980910D01*
X143630126Y-61979118D01*
X143631992Y-61974144D01*
X143749999Y-61531613D01*
X143868008Y-61974144D01*
X143869873Y-61979119D01*
X143870161Y-61980910D01*
X143871145Y-61982509D01*
X143873171Y-61987911D01*
X143879791Y-61996559D01*
X143885497Y-62005832D01*
X143888617Y-62008090D01*
X143890958Y-62011148D01*
X143900379Y-62016602D01*
X143909204Y-62022989D01*
X143912951Y-62023881D01*
X143916283Y-62025810D01*
X143927076Y-62027244D01*
X143937672Y-62029767D01*
X143941473Y-62029157D01*
X143945292Y-62029665D01*
X143955823Y-62026856D01*
X143966567Y-62025134D01*
X143969843Y-62023118D01*
X143973567Y-62022125D01*
X143982217Y-62015503D01*
X143991489Y-62009798D01*
X143993747Y-62006677D01*
X143996805Y-62004337D01*
X144002260Y-61994914D01*
X144008646Y-61986091D01*
X144010523Y-61980642D01*
X144011467Y-61979013D01*
X144011706Y-61977209D01*
X144013436Y-61972191D01*
X144251532Y-60972191D01*
X144253520Y-60957623D01*
X144250724Y-60940187D01*
X144390727Y-60940187D01*
X144390727Y-60969451D01*
X144401926Y-60996487D01*
X144422618Y-61017179D01*
X144449654Y-61028378D01*
X144464286Y-61029819D01*
X145017211Y-61029819D01*
X144633445Y-61925275D01*
X144629006Y-61939292D01*
X144628649Y-61968553D01*
X144639517Y-61995723D01*
X144659956Y-62016667D01*
X144686854Y-62028194D01*
X144716115Y-62028551D01*
X144743285Y-62017683D01*
X144764229Y-61997244D01*
X144771317Y-61984363D01*
X145199888Y-60984363D01*
X145204327Y-60970347D01*
X145204332Y-60969881D01*
X145204511Y-60969451D01*
X145204511Y-60955265D01*
X145204684Y-60941085D01*
X145204511Y-60940652D01*
X145204511Y-60940187D01*
X145199089Y-60927097D01*
X145193816Y-60913915D01*
X145193490Y-60913581D01*
X145193312Y-60913151D01*
X145183272Y-60903111D01*
X145173377Y-60892972D01*
X145172949Y-60892788D01*
X145172620Y-60892459D01*
X145159485Y-60887018D01*
X145146479Y-60881444D01*
X145146014Y-60881438D01*
X145145584Y-60881260D01*
X145130952Y-60879819D01*
X144464286Y-60879819D01*
X144449654Y-60881260D01*
X144422618Y-60892459D01*
X144401926Y-60913151D01*
X144390727Y-60940187D01*
X144250724Y-60940187D01*
X144248887Y-60928728D01*
X144233551Y-60903806D01*
X144209844Y-60886650D01*
X144181376Y-60879871D01*
X144152481Y-60884504D01*
X144127559Y-60899840D01*
X144110402Y-60923547D01*
X144105612Y-60937448D01*
X143936359Y-61648303D01*
X143822468Y-61221208D01*
X143821182Y-61217780D01*
X143820991Y-61216339D01*
X143819999Y-61214626D01*
X143817305Y-61207442D01*
X143811290Y-61199583D01*
X143806329Y-61191015D01*
X143802470Y-61188061D01*
X143799518Y-61184204D01*
X143790953Y-61179245D01*
X143783091Y-61173227D01*
X143778394Y-61171974D01*
X143774193Y-61169542D01*
X143764386Y-61168239D01*
X143754816Y-61165687D01*
X143749997Y-61166327D01*
X143745185Y-61165688D01*
X143735624Y-61168237D01*
X143725807Y-61169542D01*
X143721601Y-61171976D01*
X143716909Y-61173228D01*
X143709049Y-61179243D01*
X143700482Y-61184204D01*
X143697528Y-61188062D01*
X143693671Y-61191015D01*
X143688712Y-61199580D01*
X143682695Y-61207441D01*
X143679998Y-61214630D01*
X143679009Y-61216340D01*
X143678817Y-61217779D01*
X143677532Y-61221208D01*
X143563640Y-61648303D01*
X143394389Y-60937447D01*
X143389599Y-60923547D01*
X143372442Y-60899840D01*
X143347520Y-60884504D01*
X143318625Y-60879871D01*
X143290157Y-60886649D01*
X143266450Y-60903806D01*
X143251114Y-60928728D01*
X143246481Y-60957623D01*
X143047928Y-60957623D01*
X143047344Y-60956455D01*
X143025237Y-60937281D01*
X143011812Y-60931287D01*
X142868955Y-60883668D01*
X142861701Y-60882018D01*
X142859870Y-60881260D01*
X142857215Y-60880998D01*
X142854618Y-60880408D01*
X142852643Y-60880548D01*
X142845238Y-60879819D01*
X142607143Y-60879819D01*
X142592511Y-60881260D01*
X142590022Y-60882290D01*
X142587333Y-60882482D01*
X142573602Y-60887737D01*
X142478364Y-60935356D01*
X142472064Y-60939320D01*
X142470237Y-60940078D01*
X142468180Y-60941766D01*
X142465921Y-60943188D01*
X142464621Y-60944686D01*
X142458872Y-60949405D01*
X142411253Y-60997024D01*
X142406534Y-61002773D01*
X142405036Y-61004073D01*
X142403614Y-61006332D01*
X142401926Y-61008389D01*
X142401168Y-61010216D01*
X142397204Y-61016516D01*
X142349585Y-61111754D01*
X142344330Y-61125486D01*
X142344139Y-61128173D01*
X142343108Y-61130663D01*
X142341667Y-61145295D01*
X142230556Y-61145295D01*
X142230556Y-60768708D01*
X145315795Y-60768708D01*
X145315795Y-62140930D01*
G37*
G36*
X126443668Y-72445029D02*
G01*
X126474075Y-72475436D01*
X126508333Y-72543952D01*
X126508333Y-72746637D01*
X126474074Y-72815153D01*
X126443667Y-72845561D01*
X126375152Y-72879819D01*
X126220086Y-72879819D01*
X126151570Y-72845561D01*
X126121163Y-72815153D01*
X126086905Y-72746637D01*
X126086905Y-72543952D01*
X126121163Y-72475436D01*
X126151570Y-72445029D01*
X126220086Y-72410771D01*
X126375152Y-72410771D01*
X126443668Y-72445029D01*
G37*
G36*
X126769444Y-73140930D02*
G01*
X123730556Y-73140930D01*
X123730556Y-72145295D01*
X123841667Y-72145295D01*
X123841667Y-72240533D01*
X123843108Y-72255165D01*
X123844139Y-72257654D01*
X123844330Y-72260342D01*
X123849585Y-72274074D01*
X123897204Y-72369312D01*
X123901168Y-72375611D01*
X123901926Y-72377439D01*
X123903614Y-72379495D01*
X123905036Y-72381755D01*
X123906534Y-72383054D01*
X123911253Y-72388804D01*
X123958872Y-72436423D01*
X123964621Y-72441141D01*
X123965921Y-72442640D01*
X123968180Y-72444061D01*
X123970237Y-72445750D01*
X123972064Y-72446507D01*
X123978364Y-72450472D01*
X124073602Y-72498091D01*
X124074671Y-72498500D01*
X124075107Y-72498823D01*
X124081243Y-72501015D01*
X124087333Y-72503346D01*
X124087873Y-72503384D01*
X124088953Y-72503770D01*
X124271443Y-72549392D01*
X124348430Y-72587886D01*
X124378837Y-72618293D01*
X124413095Y-72686809D01*
X124413095Y-72746637D01*
X124378836Y-72815153D01*
X124348429Y-72845561D01*
X124279914Y-72879819D01*
X124071694Y-72879819D01*
X123940384Y-72836049D01*
X123926047Y-72832789D01*
X123896857Y-72834864D01*
X123870684Y-72847950D01*
X123851510Y-72870057D01*
X123842256Y-72897820D01*
X123844331Y-72927010D01*
X123857417Y-72953183D01*
X123879524Y-72972357D01*
X123892950Y-72978351D01*
X124035806Y-73025970D01*
X124043061Y-73027619D01*
X124044892Y-73028378D01*
X124047545Y-73028639D01*
X124050143Y-73029230D01*
X124052117Y-73029089D01*
X124059524Y-73029819D01*
X124297619Y-73029819D01*
X124312251Y-73028378D01*
X124314740Y-73027346D01*
X124317428Y-73027156D01*
X124331160Y-73021901D01*
X124426398Y-72974282D01*
X124432697Y-72970317D01*
X124434525Y-72969560D01*
X124436581Y-72967872D01*
X124438841Y-72966450D01*
X124440141Y-72964950D01*
X124445891Y-72960232D01*
X124493509Y-72912613D01*
X124498227Y-72906863D01*
X124499726Y-72905564D01*
X124501147Y-72903305D01*
X124502837Y-72901247D01*
X124503594Y-72899417D01*
X124507558Y-72893121D01*
X124555177Y-72797883D01*
X124560432Y-72784152D01*
X124560623Y-72781462D01*
X124561654Y-72778974D01*
X124563095Y-72764342D01*
X124563095Y-72669104D01*
X124561654Y-72654472D01*
X124560623Y-72651983D01*
X124560432Y-72649294D01*
X124555177Y-72635563D01*
X124507558Y-72540325D01*
X124503593Y-72534025D01*
X124502836Y-72532198D01*
X124501147Y-72530141D01*
X124499726Y-72527882D01*
X124498227Y-72526582D01*
X124493509Y-72520833D01*
X124445890Y-72473214D01*
X124440140Y-72468495D01*
X124438841Y-72466997D01*
X124436581Y-72465575D01*
X124434525Y-72463887D01*
X124432697Y-72463129D01*
X124426398Y-72459165D01*
X124331160Y-72411546D01*
X124330090Y-72411136D01*
X124329655Y-72410814D01*
X124323509Y-72408618D01*
X124317428Y-72406291D01*
X124316888Y-72406252D01*
X124315809Y-72405867D01*
X124133319Y-72360244D01*
X124056332Y-72321751D01*
X124025925Y-72291344D01*
X123991667Y-72222828D01*
X123991667Y-72163000D01*
X124025925Y-72094484D01*
X124056332Y-72064077D01*
X124124848Y-72029819D01*
X124333068Y-72029819D01*
X124464377Y-72073589D01*
X124478714Y-72076849D01*
X124507904Y-72074774D01*
X124534078Y-72061688D01*
X124553252Y-72039580D01*
X124562506Y-72011818D01*
X124560431Y-71982628D01*
X124547928Y-71957623D01*
X124746481Y-71957623D01*
X124748469Y-71972191D01*
X124986564Y-72972191D01*
X124988293Y-72977210D01*
X124988533Y-72979012D01*
X124989475Y-72980640D01*
X124991354Y-72986091D01*
X124997740Y-72994915D01*
X125003195Y-73004337D01*
X125006252Y-73006677D01*
X125008511Y-73009798D01*
X125017786Y-73015505D01*
X125026433Y-73022124D01*
X125030153Y-73023116D01*
X125033433Y-73025134D01*
X125044187Y-73026858D01*
X125054709Y-73029664D01*
X125058524Y-73029157D01*
X125062328Y-73029767D01*
X125072926Y-73027243D01*
X125083717Y-73025810D01*
X125087048Y-73023881D01*
X125090796Y-73022989D01*
X125099620Y-73016602D01*
X125109042Y-73011148D01*
X125111382Y-73008090D01*
X125114503Y-73005832D01*
X125120210Y-72996556D01*
X125126829Y-72987910D01*
X125128854Y-72982510D01*
X125129839Y-72980910D01*
X125130126Y-72979118D01*
X125131992Y-72974144D01*
X125249999Y-72531613D01*
X125368008Y-72974144D01*
X125369873Y-72979119D01*
X125370161Y-72980910D01*
X125371145Y-72982509D01*
X125373171Y-72987911D01*
X125379791Y-72996559D01*
X125385497Y-73005832D01*
X125388617Y-73008090D01*
X125390958Y-73011148D01*
X125400379Y-73016602D01*
X125409204Y-73022989D01*
X125412951Y-73023881D01*
X125416283Y-73025810D01*
X125427076Y-73027244D01*
X125437672Y-73029767D01*
X125441473Y-73029157D01*
X125445292Y-73029665D01*
X125455823Y-73026856D01*
X125466567Y-73025134D01*
X125469843Y-73023118D01*
X125473567Y-73022125D01*
X125482217Y-73015503D01*
X125491489Y-73009798D01*
X125493747Y-73006677D01*
X125496805Y-73004337D01*
X125502260Y-72994914D01*
X125508646Y-72986091D01*
X125510523Y-72980642D01*
X125511467Y-72979013D01*
X125511706Y-72977209D01*
X125513436Y-72972191D01*
X125653627Y-72383390D01*
X125936905Y-72383390D01*
X125936905Y-72764342D01*
X125938346Y-72778974D01*
X125939377Y-72781463D01*
X125939568Y-72784151D01*
X125944823Y-72797883D01*
X125992442Y-72893121D01*
X125996405Y-72899417D01*
X125997163Y-72901247D01*
X125998852Y-72903305D01*
X126000274Y-72905564D01*
X126001772Y-72906863D01*
X126006490Y-72912612D01*
X126054109Y-72960232D01*
X126059858Y-72964950D01*
X126061159Y-72966450D01*
X126063418Y-72967872D01*
X126065475Y-72969560D01*
X126067302Y-72970317D01*
X126073602Y-72974282D01*
X126168840Y-73021901D01*
X126182571Y-73027156D01*
X126185260Y-73027347D01*
X126187749Y-73028378D01*
X126202381Y-73029819D01*
X126392857Y-73029819D01*
X126407489Y-73028378D01*
X126409978Y-73027346D01*
X126412666Y-73027156D01*
X126426398Y-73021901D01*
X126521636Y-72974282D01*
X126527935Y-72970317D01*
X126529763Y-72969560D01*
X126531819Y-72967872D01*
X126534079Y-72966450D01*
X126535379Y-72964950D01*
X126541129Y-72960232D01*
X126588747Y-72912613D01*
X126593465Y-72906863D01*
X126594964Y-72905564D01*
X126596385Y-72903305D01*
X126598075Y-72901247D01*
X126598832Y-72899417D01*
X126602796Y-72893121D01*
X126650415Y-72797883D01*
X126655670Y-72784152D01*
X126655861Y-72781462D01*
X126656892Y-72778974D01*
X126658333Y-72764342D01*
X126658333Y-72526247D01*
X126656892Y-72511615D01*
X126655861Y-72509126D01*
X126655670Y-72506437D01*
X126650415Y-72492706D01*
X126602796Y-72397468D01*
X126598831Y-72391168D01*
X126598074Y-72389341D01*
X126596385Y-72387284D01*
X126594964Y-72385025D01*
X126593465Y-72383725D01*
X126588747Y-72377976D01*
X126541128Y-72330357D01*
X126535378Y-72325638D01*
X126534079Y-72324140D01*
X126531819Y-72322718D01*
X126529763Y-72321030D01*
X126527935Y-72320272D01*
X126521636Y-72316308D01*
X126426398Y-72268689D01*
X126412666Y-72263434D01*
X126409978Y-72263243D01*
X126407489Y-72262212D01*
X126392857Y-72260771D01*
X126202381Y-72260771D01*
X126187749Y-72262212D01*
X126185260Y-72263242D01*
X126182571Y-72263434D01*
X126168840Y-72268689D01*
X126110610Y-72297804D01*
X126129134Y-72223707D01*
X126213046Y-72097838D01*
X126246808Y-72064077D01*
X126315324Y-72029819D01*
X126488095Y-72029819D01*
X126502727Y-72028378D01*
X126529763Y-72017179D01*
X126550455Y-71996487D01*
X126561654Y-71969451D01*
X126561654Y-71940187D01*
X126550455Y-71913151D01*
X126529763Y-71892459D01*
X126502727Y-71881260D01*
X126488095Y-71879819D01*
X126297619Y-71879819D01*
X126282987Y-71881260D01*
X126280498Y-71882290D01*
X126277809Y-71882482D01*
X126264078Y-71887737D01*
X126168840Y-71935356D01*
X126162540Y-71939320D01*
X126160713Y-71940078D01*
X126158656Y-71941766D01*
X126156397Y-71943188D01*
X126155097Y-71944686D01*
X126149348Y-71949405D01*
X126101729Y-71997024D01*
X126101695Y-71997064D01*
X126101674Y-71997079D01*
X126096890Y-72002920D01*
X126092402Y-72008389D01*
X126092392Y-72008411D01*
X126092358Y-72008454D01*
X125997120Y-72151311D01*
X125992813Y-72159389D01*
X125991710Y-72160878D01*
X125991081Y-72162637D01*
X125990203Y-72164285D01*
X125989843Y-72166101D01*
X125986763Y-72174724D01*
X125939144Y-72365200D01*
X125938768Y-72367736D01*
X125938346Y-72368758D01*
X125937803Y-72374270D01*
X125936994Y-72379744D01*
X125937156Y-72380836D01*
X125936905Y-72383390D01*
X125653627Y-72383390D01*
X125751532Y-71972191D01*
X125753520Y-71957623D01*
X125748887Y-71928728D01*
X125733551Y-71903806D01*
X125709844Y-71886650D01*
X125681376Y-71879871D01*
X125652481Y-71884504D01*
X125627559Y-71899840D01*
X125610402Y-71923547D01*
X125605612Y-71937448D01*
X125436359Y-72648303D01*
X125322468Y-72221208D01*
X125321182Y-72217780D01*
X125320991Y-72216339D01*
X125319999Y-72214626D01*
X125317305Y-72207442D01*
X125311290Y-72199583D01*
X125306329Y-72191015D01*
X125302470Y-72188061D01*
X125299518Y-72184204D01*
X125290953Y-72179245D01*
X125283091Y-72173227D01*
X125278394Y-72171974D01*
X125274193Y-72169542D01*
X125264386Y-72168239D01*
X125254816Y-72165687D01*
X125249997Y-72166327D01*
X125245185Y-72165688D01*
X125235624Y-72168237D01*
X125225807Y-72169542D01*
X125221601Y-72171976D01*
X125216909Y-72173228D01*
X125209049Y-72179243D01*
X125200482Y-72184204D01*
X125197528Y-72188062D01*
X125193671Y-72191015D01*
X125188712Y-72199580D01*
X125182695Y-72207441D01*
X125179998Y-72214630D01*
X125179009Y-72216340D01*
X125178817Y-72217779D01*
X125177532Y-72221208D01*
X125063640Y-72648303D01*
X124894389Y-71937447D01*
X124889599Y-71923547D01*
X124872442Y-71899840D01*
X124847520Y-71884504D01*
X124818625Y-71879871D01*
X124790157Y-71886649D01*
X124766450Y-71903806D01*
X124751114Y-71928728D01*
X124746481Y-71957623D01*
X124547928Y-71957623D01*
X124547344Y-71956455D01*
X124525237Y-71937281D01*
X124511812Y-71931287D01*
X124368955Y-71883668D01*
X124361701Y-71882018D01*
X124359870Y-71881260D01*
X124357215Y-71880998D01*
X124354618Y-71880408D01*
X124352643Y-71880548D01*
X124345238Y-71879819D01*
X124107143Y-71879819D01*
X124092511Y-71881260D01*
X124090022Y-71882290D01*
X124087333Y-71882482D01*
X124073602Y-71887737D01*
X123978364Y-71935356D01*
X123972064Y-71939320D01*
X123970237Y-71940078D01*
X123968180Y-71941766D01*
X123965921Y-71943188D01*
X123964621Y-71944686D01*
X123958872Y-71949405D01*
X123911253Y-71997024D01*
X123906534Y-72002773D01*
X123905036Y-72004073D01*
X123903614Y-72006332D01*
X123901926Y-72008389D01*
X123901168Y-72010216D01*
X123897204Y-72016516D01*
X123849585Y-72111754D01*
X123844330Y-72125486D01*
X123844139Y-72128173D01*
X123843108Y-72130663D01*
X123841667Y-72145295D01*
X123730556Y-72145295D01*
X123730556Y-71768708D01*
X126769444Y-71768708D01*
X126769444Y-73140930D01*
G37*
G36*
X127769444Y-58640930D02*
G01*
X124730556Y-58640930D01*
X124730556Y-57645295D01*
X124841667Y-57645295D01*
X124841667Y-57740533D01*
X124843108Y-57755165D01*
X124844139Y-57757654D01*
X124844330Y-57760342D01*
X124849585Y-57774074D01*
X124897204Y-57869312D01*
X124901168Y-57875611D01*
X124901926Y-57877439D01*
X124903614Y-57879495D01*
X124905036Y-57881755D01*
X124906534Y-57883054D01*
X124911253Y-57888804D01*
X124958872Y-57936423D01*
X124964621Y-57941141D01*
X124965921Y-57942640D01*
X124968180Y-57944061D01*
X124970237Y-57945750D01*
X124972064Y-57946507D01*
X124978364Y-57950472D01*
X125073602Y-57998091D01*
X125074671Y-57998500D01*
X125075107Y-57998823D01*
X125081243Y-58001015D01*
X125087333Y-58003346D01*
X125087873Y-58003384D01*
X125088953Y-58003770D01*
X125271443Y-58049392D01*
X125348430Y-58087886D01*
X125378837Y-58118293D01*
X125413095Y-58186809D01*
X125413095Y-58246637D01*
X125378836Y-58315153D01*
X125348429Y-58345561D01*
X125279914Y-58379819D01*
X125071694Y-58379819D01*
X124940384Y-58336049D01*
X124926047Y-58332789D01*
X124896857Y-58334864D01*
X124870684Y-58347950D01*
X124851510Y-58370057D01*
X124842256Y-58397820D01*
X124844331Y-58427010D01*
X124857417Y-58453183D01*
X124879524Y-58472357D01*
X124892950Y-58478351D01*
X125035806Y-58525970D01*
X125043061Y-58527619D01*
X125044892Y-58528378D01*
X125047545Y-58528639D01*
X125050143Y-58529230D01*
X125052117Y-58529089D01*
X125059524Y-58529819D01*
X125297619Y-58529819D01*
X125312251Y-58528378D01*
X125314740Y-58527346D01*
X125317428Y-58527156D01*
X125331160Y-58521901D01*
X125426398Y-58474282D01*
X125432697Y-58470317D01*
X125434525Y-58469560D01*
X125436581Y-58467872D01*
X125438841Y-58466450D01*
X125440141Y-58464950D01*
X125445891Y-58460232D01*
X125493509Y-58412613D01*
X125498227Y-58406863D01*
X125499726Y-58405564D01*
X125501147Y-58403305D01*
X125502837Y-58401247D01*
X125503594Y-58399417D01*
X125507558Y-58393121D01*
X125555177Y-58297883D01*
X125560432Y-58284152D01*
X125560623Y-58281462D01*
X125561654Y-58278974D01*
X125563095Y-58264342D01*
X125563095Y-58169104D01*
X125561654Y-58154472D01*
X125560623Y-58151983D01*
X125560432Y-58149294D01*
X125555177Y-58135563D01*
X125507558Y-58040325D01*
X125503593Y-58034025D01*
X125502836Y-58032198D01*
X125501147Y-58030141D01*
X125499726Y-58027882D01*
X125498227Y-58026582D01*
X125493509Y-58020833D01*
X125445890Y-57973214D01*
X125440140Y-57968495D01*
X125438841Y-57966997D01*
X125436581Y-57965575D01*
X125434525Y-57963887D01*
X125432697Y-57963129D01*
X125426398Y-57959165D01*
X125331160Y-57911546D01*
X125330090Y-57911136D01*
X125329655Y-57910814D01*
X125323509Y-57908618D01*
X125317428Y-57906291D01*
X125316888Y-57906252D01*
X125315809Y-57905867D01*
X125133319Y-57860244D01*
X125056332Y-57821751D01*
X125025925Y-57791344D01*
X124991667Y-57722828D01*
X124991667Y-57663000D01*
X125025925Y-57594484D01*
X125056332Y-57564077D01*
X125124848Y-57529819D01*
X125333068Y-57529819D01*
X125464377Y-57573589D01*
X125478714Y-57576849D01*
X125507904Y-57574774D01*
X125534078Y-57561688D01*
X125553252Y-57539580D01*
X125562506Y-57511818D01*
X125560431Y-57482628D01*
X125547928Y-57457623D01*
X125746481Y-57457623D01*
X125748469Y-57472191D01*
X125986564Y-58472191D01*
X125988293Y-58477210D01*
X125988533Y-58479012D01*
X125989475Y-58480640D01*
X125991354Y-58486091D01*
X125997740Y-58494915D01*
X126003195Y-58504337D01*
X126006252Y-58506677D01*
X126008511Y-58509798D01*
X126017786Y-58515505D01*
X126026433Y-58522124D01*
X126030153Y-58523116D01*
X126033433Y-58525134D01*
X126044187Y-58526858D01*
X126054709Y-58529664D01*
X126058524Y-58529157D01*
X126062328Y-58529767D01*
X126072926Y-58527243D01*
X126083717Y-58525810D01*
X126087048Y-58523881D01*
X126090796Y-58522989D01*
X126099620Y-58516602D01*
X126109042Y-58511148D01*
X126111382Y-58508090D01*
X126114503Y-58505832D01*
X126120210Y-58496556D01*
X126126829Y-58487910D01*
X126128854Y-58482510D01*
X126129839Y-58480910D01*
X126130126Y-58479118D01*
X126131992Y-58474144D01*
X126249999Y-58031613D01*
X126368008Y-58474144D01*
X126369873Y-58479119D01*
X126370161Y-58480910D01*
X126371145Y-58482509D01*
X126373171Y-58487911D01*
X126379791Y-58496559D01*
X126385497Y-58505832D01*
X126388617Y-58508090D01*
X126390958Y-58511148D01*
X126400379Y-58516602D01*
X126409204Y-58522989D01*
X126412951Y-58523881D01*
X126416283Y-58525810D01*
X126427076Y-58527244D01*
X126437672Y-58529767D01*
X126441473Y-58529157D01*
X126445292Y-58529665D01*
X126455823Y-58526856D01*
X126466567Y-58525134D01*
X126469843Y-58523118D01*
X126473567Y-58522125D01*
X126482217Y-58515503D01*
X126491489Y-58509798D01*
X126493747Y-58506677D01*
X126496805Y-58504337D01*
X126502260Y-58494914D01*
X126508646Y-58486091D01*
X126510523Y-58480642D01*
X126511467Y-58479013D01*
X126511706Y-58477209D01*
X126513436Y-58472191D01*
X126640565Y-57938249D01*
X126937255Y-57938249D01*
X126938346Y-57941864D01*
X126938346Y-57945640D01*
X126942540Y-57955765D01*
X126945708Y-57966265D01*
X126948099Y-57969188D01*
X126949545Y-57972677D01*
X126957298Y-57980430D01*
X126964239Y-57988913D01*
X126967565Y-57990697D01*
X126970237Y-57993369D01*
X126980364Y-57997564D01*
X126990026Y-58002747D01*
X126993785Y-58003122D01*
X126997274Y-58004568D01*
X127008235Y-58004568D01*
X127019145Y-58005659D01*
X127022761Y-58004568D01*
X127026536Y-58004568D01*
X127036661Y-58000373D01*
X127047161Y-57997206D01*
X127050084Y-57994814D01*
X127053573Y-57993369D01*
X127064938Y-57984042D01*
X127103951Y-57945029D01*
X127172467Y-57910771D01*
X127375152Y-57910771D01*
X127443668Y-57945029D01*
X127474075Y-57975436D01*
X127508333Y-58043952D01*
X127508333Y-58246637D01*
X127474074Y-58315153D01*
X127443667Y-58345561D01*
X127375152Y-58379819D01*
X127172467Y-58379819D01*
X127103951Y-58345561D01*
X127064939Y-58306548D01*
X127053573Y-58297220D01*
X127026537Y-58286021D01*
X126997274Y-58286021D01*
X126970238Y-58297219D01*
X126949545Y-58317912D01*
X126938346Y-58344948D01*
X126938346Y-58374211D01*
X126949544Y-58401247D01*
X126958871Y-58412612D01*
X127006490Y-58460232D01*
X127012239Y-58464950D01*
X127013540Y-58466450D01*
X127015799Y-58467872D01*
X127017856Y-58469560D01*
X127019683Y-58470317D01*
X127025983Y-58474282D01*
X127121221Y-58521901D01*
X127134952Y-58527156D01*
X127137641Y-58527347D01*
X127140130Y-58528378D01*
X127154762Y-58529819D01*
X127392857Y-58529819D01*
X127407489Y-58528378D01*
X127409978Y-58527346D01*
X127412666Y-58527156D01*
X127426398Y-58521901D01*
X127521636Y-58474282D01*
X127527935Y-58470317D01*
X127529763Y-58469560D01*
X127531819Y-58467872D01*
X127534079Y-58466450D01*
X127535379Y-58464950D01*
X127541129Y-58460232D01*
X127588747Y-58412613D01*
X127593465Y-58406863D01*
X127594964Y-58405564D01*
X127596385Y-58403305D01*
X127598075Y-58401247D01*
X127598832Y-58399417D01*
X127602796Y-58393121D01*
X127650415Y-58297883D01*
X127655670Y-58284152D01*
X127655861Y-58281462D01*
X127656892Y-58278974D01*
X127658333Y-58264342D01*
X127658333Y-58026247D01*
X127656892Y-58011615D01*
X127655861Y-58009126D01*
X127655670Y-58006437D01*
X127650415Y-57992706D01*
X127602796Y-57897468D01*
X127598831Y-57891168D01*
X127598074Y-57889341D01*
X127596385Y-57887284D01*
X127594964Y-57885025D01*
X127593465Y-57883725D01*
X127588747Y-57877976D01*
X127541128Y-57830357D01*
X127535378Y-57825638D01*
X127534079Y-57824140D01*
X127531819Y-57822718D01*
X127529763Y-57821030D01*
X127527935Y-57820272D01*
X127521636Y-57816308D01*
X127426398Y-57768689D01*
X127412666Y-57763434D01*
X127409978Y-57763243D01*
X127407489Y-57762212D01*
X127392857Y-57760771D01*
X127154762Y-57760771D01*
X127140130Y-57762212D01*
X127137641Y-57763242D01*
X127134952Y-57763434D01*
X127121221Y-57768689D01*
X127102579Y-57778009D01*
X127127398Y-57529819D01*
X127535714Y-57529819D01*
X127550346Y-57528378D01*
X127577382Y-57517179D01*
X127598074Y-57496487D01*
X127609273Y-57469451D01*
X127609273Y-57440187D01*
X127598074Y-57413151D01*
X127577382Y-57392459D01*
X127550346Y-57381260D01*
X127535714Y-57379819D01*
X127059524Y-57379819D01*
X127054112Y-57380351D01*
X127052284Y-57380169D01*
X127050497Y-57380707D01*
X127044892Y-57381260D01*
X127034765Y-57385454D01*
X127024268Y-57388622D01*
X127021344Y-57391013D01*
X127017856Y-57392459D01*
X127010102Y-57400212D01*
X127001620Y-57407153D01*
X126999835Y-57410479D01*
X126997164Y-57413151D01*
X126992968Y-57423280D01*
X126987786Y-57432940D01*
X126986678Y-57438464D01*
X126985965Y-57440187D01*
X126985965Y-57442023D01*
X126984896Y-57447356D01*
X126937277Y-57923546D01*
X126937255Y-57938249D01*
X126640565Y-57938249D01*
X126751532Y-57472191D01*
X126753520Y-57457623D01*
X126748887Y-57428728D01*
X126733551Y-57403806D01*
X126709844Y-57386650D01*
X126681376Y-57379871D01*
X126652481Y-57384504D01*
X126627559Y-57399840D01*
X126610402Y-57423547D01*
X126605612Y-57437448D01*
X126436359Y-58148303D01*
X126322468Y-57721208D01*
X126321182Y-57717780D01*
X126320991Y-57716339D01*
X126319999Y-57714626D01*
X126317305Y-57707442D01*
X126311290Y-57699583D01*
X126306329Y-57691015D01*
X126302470Y-57688061D01*
X126299518Y-57684204D01*
X126290953Y-57679245D01*
X126283091Y-57673227D01*
X126278394Y-57671974D01*
X126274193Y-57669542D01*
X126264386Y-57668239D01*
X126254816Y-57665687D01*
X126249997Y-57666327D01*
X126245185Y-57665688D01*
X126235624Y-57668237D01*
X126225807Y-57669542D01*
X126221601Y-57671976D01*
X126216909Y-57673228D01*
X126209049Y-57679243D01*
X126200482Y-57684204D01*
X126197528Y-57688062D01*
X126193671Y-57691015D01*
X126188712Y-57699580D01*
X126182695Y-57707441D01*
X126179998Y-57714630D01*
X126179009Y-57716340D01*
X126178817Y-57717779D01*
X126177532Y-57721208D01*
X126063640Y-58148303D01*
X125894389Y-57437447D01*
X125889599Y-57423547D01*
X125872442Y-57399840D01*
X125847520Y-57384504D01*
X125818625Y-57379871D01*
X125790157Y-57386649D01*
X125766450Y-57403806D01*
X125751114Y-57428728D01*
X125746481Y-57457623D01*
X125547928Y-57457623D01*
X125547344Y-57456455D01*
X125525237Y-57437281D01*
X125511812Y-57431287D01*
X125368955Y-57383668D01*
X125361701Y-57382018D01*
X125359870Y-57381260D01*
X125357215Y-57380998D01*
X125354618Y-57380408D01*
X125352643Y-57380548D01*
X125345238Y-57379819D01*
X125107143Y-57379819D01*
X125092511Y-57381260D01*
X125090022Y-57382290D01*
X125087333Y-57382482D01*
X125073602Y-57387737D01*
X124978364Y-57435356D01*
X124972064Y-57439320D01*
X124970237Y-57440078D01*
X124968180Y-57441766D01*
X124965921Y-57443188D01*
X124964621Y-57444686D01*
X124958872Y-57449405D01*
X124911253Y-57497024D01*
X124906534Y-57502773D01*
X124905036Y-57504073D01*
X124903614Y-57506332D01*
X124901926Y-57508389D01*
X124901168Y-57510216D01*
X124897204Y-57516516D01*
X124849585Y-57611754D01*
X124844330Y-57625486D01*
X124844139Y-57628173D01*
X124843108Y-57630663D01*
X124841667Y-57645295D01*
X124730556Y-57645295D01*
X124730556Y-57268708D01*
X127769444Y-57268708D01*
X127769444Y-58640930D01*
G37*
G36*
X110315622Y-62140930D02*
G01*
X107230556Y-62140930D01*
X107230556Y-61145295D01*
X107341667Y-61145295D01*
X107341667Y-61240533D01*
X107343108Y-61255165D01*
X107344139Y-61257654D01*
X107344330Y-61260342D01*
X107349585Y-61274074D01*
X107397204Y-61369312D01*
X107401168Y-61375611D01*
X107401926Y-61377439D01*
X107403614Y-61379495D01*
X107405036Y-61381755D01*
X107406534Y-61383054D01*
X107411253Y-61388804D01*
X107458872Y-61436423D01*
X107464621Y-61441141D01*
X107465921Y-61442640D01*
X107468180Y-61444061D01*
X107470237Y-61445750D01*
X107472064Y-61446507D01*
X107478364Y-61450472D01*
X107573602Y-61498091D01*
X107574671Y-61498500D01*
X107575107Y-61498823D01*
X107581243Y-61501015D01*
X107587333Y-61503346D01*
X107587873Y-61503384D01*
X107588953Y-61503770D01*
X107771443Y-61549392D01*
X107848430Y-61587886D01*
X107878837Y-61618293D01*
X107913095Y-61686809D01*
X107913095Y-61746637D01*
X107878836Y-61815153D01*
X107848429Y-61845561D01*
X107779914Y-61879819D01*
X107571694Y-61879819D01*
X107440384Y-61836049D01*
X107426047Y-61832789D01*
X107396857Y-61834864D01*
X107370684Y-61847950D01*
X107351510Y-61870057D01*
X107342256Y-61897820D01*
X107344331Y-61927010D01*
X107357417Y-61953183D01*
X107379524Y-61972357D01*
X107392950Y-61978351D01*
X107535806Y-62025970D01*
X107543061Y-62027619D01*
X107544892Y-62028378D01*
X107547545Y-62028639D01*
X107550143Y-62029230D01*
X107552117Y-62029089D01*
X107559524Y-62029819D01*
X107797619Y-62029819D01*
X107812251Y-62028378D01*
X107814740Y-62027346D01*
X107817428Y-62027156D01*
X107831160Y-62021901D01*
X107926398Y-61974282D01*
X107932697Y-61970317D01*
X107934525Y-61969560D01*
X107936581Y-61967872D01*
X107938841Y-61966450D01*
X107940141Y-61964950D01*
X107945891Y-61960232D01*
X107993509Y-61912613D01*
X107998227Y-61906863D01*
X107999726Y-61905564D01*
X108001147Y-61903305D01*
X108002837Y-61901247D01*
X108003594Y-61899417D01*
X108007558Y-61893121D01*
X108055177Y-61797883D01*
X108060432Y-61784152D01*
X108060623Y-61781462D01*
X108061654Y-61778974D01*
X108063095Y-61764342D01*
X108063095Y-61669104D01*
X108061654Y-61654472D01*
X108060623Y-61651983D01*
X108060432Y-61649294D01*
X108055177Y-61635563D01*
X108007558Y-61540325D01*
X108003593Y-61534025D01*
X108002836Y-61532198D01*
X108001147Y-61530141D01*
X107999726Y-61527882D01*
X107998227Y-61526582D01*
X107993509Y-61520833D01*
X107945890Y-61473214D01*
X107940140Y-61468495D01*
X107938841Y-61466997D01*
X107936581Y-61465575D01*
X107934525Y-61463887D01*
X107932697Y-61463129D01*
X107926398Y-61459165D01*
X107831160Y-61411546D01*
X107830090Y-61411136D01*
X107829655Y-61410814D01*
X107823509Y-61408618D01*
X107817428Y-61406291D01*
X107816888Y-61406252D01*
X107815809Y-61405867D01*
X107633319Y-61360244D01*
X107556332Y-61321751D01*
X107525925Y-61291344D01*
X107491667Y-61222828D01*
X107491667Y-61163000D01*
X107525925Y-61094484D01*
X107556332Y-61064077D01*
X107624848Y-61029819D01*
X107833068Y-61029819D01*
X107964377Y-61073589D01*
X107978714Y-61076849D01*
X108007904Y-61074774D01*
X108034078Y-61061688D01*
X108053252Y-61039580D01*
X108062506Y-61011818D01*
X108060431Y-60982628D01*
X108047928Y-60957623D01*
X108246481Y-60957623D01*
X108248469Y-60972191D01*
X108486564Y-61972191D01*
X108488293Y-61977210D01*
X108488533Y-61979012D01*
X108489475Y-61980640D01*
X108491354Y-61986091D01*
X108497740Y-61994915D01*
X108503195Y-62004337D01*
X108506252Y-62006677D01*
X108508511Y-62009798D01*
X108517786Y-62015505D01*
X108526433Y-62022124D01*
X108530153Y-62023116D01*
X108533433Y-62025134D01*
X108544187Y-62026858D01*
X108554709Y-62029664D01*
X108558524Y-62029157D01*
X108562328Y-62029767D01*
X108572926Y-62027243D01*
X108583717Y-62025810D01*
X108587048Y-62023881D01*
X108590796Y-62022989D01*
X108599620Y-62016602D01*
X108609042Y-62011148D01*
X108611382Y-62008090D01*
X108614503Y-62005832D01*
X108620210Y-61996556D01*
X108626829Y-61987910D01*
X108628854Y-61982510D01*
X108629839Y-61980910D01*
X108630126Y-61979118D01*
X108631992Y-61974144D01*
X108749999Y-61531613D01*
X108868008Y-61974144D01*
X108869873Y-61979119D01*
X108870161Y-61980910D01*
X108871145Y-61982509D01*
X108873171Y-61987911D01*
X108879791Y-61996559D01*
X108885497Y-62005832D01*
X108888617Y-62008090D01*
X108890958Y-62011148D01*
X108900379Y-62016602D01*
X108909204Y-62022989D01*
X108912951Y-62023881D01*
X108916283Y-62025810D01*
X108927076Y-62027244D01*
X108937672Y-62029767D01*
X108941473Y-62029157D01*
X108945292Y-62029665D01*
X108955823Y-62026856D01*
X108966567Y-62025134D01*
X108969843Y-62023118D01*
X108973567Y-62022125D01*
X108982217Y-62015503D01*
X108991489Y-62009798D01*
X108993747Y-62006677D01*
X108996805Y-62004337D01*
X109002260Y-61994914D01*
X109008646Y-61986091D01*
X109010523Y-61980642D01*
X109011467Y-61979013D01*
X109011706Y-61977209D01*
X109013436Y-61972191D01*
X109099171Y-61612105D01*
X109437494Y-61612105D01*
X109438346Y-61624090D01*
X109438346Y-61636117D01*
X109439378Y-61638608D01*
X109439569Y-61641295D01*
X109444943Y-61652044D01*
X109449545Y-61663153D01*
X109451450Y-61665058D01*
X109452655Y-61667468D01*
X109461737Y-61675345D01*
X109470237Y-61683845D01*
X109472725Y-61684875D01*
X109474762Y-61686642D01*
X109486165Y-61690443D01*
X109497273Y-61695044D01*
X109501099Y-61695420D01*
X109502525Y-61695896D01*
X109504499Y-61695755D01*
X109511905Y-61696485D01*
X109913095Y-61696485D01*
X109913095Y-61954819D01*
X109914536Y-61969451D01*
X109925735Y-61996487D01*
X109946427Y-62017179D01*
X109973463Y-62028378D01*
X110002727Y-62028378D01*
X110029763Y-62017179D01*
X110050455Y-61996487D01*
X110061654Y-61969451D01*
X110063095Y-61954819D01*
X110063095Y-61696485D01*
X110130952Y-61696485D01*
X110145584Y-61695044D01*
X110172620Y-61683845D01*
X110193312Y-61663153D01*
X110204511Y-61636117D01*
X110204511Y-61606853D01*
X110193312Y-61579817D01*
X110172620Y-61559125D01*
X110145584Y-61547926D01*
X110130952Y-61546485D01*
X110063095Y-61546485D01*
X110063095Y-61288152D01*
X110061654Y-61273520D01*
X110050455Y-61246484D01*
X110029763Y-61225792D01*
X110002727Y-61214593D01*
X109973463Y-61214593D01*
X109946427Y-61225792D01*
X109925735Y-61246484D01*
X109914536Y-61273520D01*
X109913095Y-61288152D01*
X109913095Y-61546485D01*
X109615962Y-61546485D01*
X109821151Y-60930918D01*
X109824411Y-60916581D01*
X109822336Y-60887391D01*
X109809250Y-60861217D01*
X109787142Y-60842043D01*
X109759380Y-60832789D01*
X109730190Y-60834864D01*
X109704017Y-60847951D01*
X109684843Y-60870058D01*
X109678849Y-60883483D01*
X109440754Y-61597768D01*
X109439104Y-61605021D01*
X109438346Y-61606853D01*
X109438346Y-61608358D01*
X109437494Y-61612105D01*
X109099171Y-61612105D01*
X109251532Y-60972191D01*
X109253520Y-60957623D01*
X109248887Y-60928728D01*
X109233551Y-60903806D01*
X109209844Y-60886650D01*
X109181376Y-60879871D01*
X109152481Y-60884504D01*
X109127559Y-60899840D01*
X109110402Y-60923547D01*
X109105612Y-60937448D01*
X108936359Y-61648303D01*
X108822468Y-61221208D01*
X108821182Y-61217780D01*
X108820991Y-61216339D01*
X108819999Y-61214626D01*
X108817305Y-61207442D01*
X108811290Y-61199583D01*
X108806329Y-61191015D01*
X108802470Y-61188061D01*
X108799518Y-61184204D01*
X108790953Y-61179245D01*
X108783091Y-61173227D01*
X108778394Y-61171974D01*
X108774193Y-61169542D01*
X108764386Y-61168239D01*
X108754816Y-61165687D01*
X108749997Y-61166327D01*
X108745185Y-61165688D01*
X108735624Y-61168237D01*
X108725807Y-61169542D01*
X108721601Y-61171976D01*
X108716909Y-61173228D01*
X108709049Y-61179243D01*
X108700482Y-61184204D01*
X108697528Y-61188062D01*
X108693671Y-61191015D01*
X108688712Y-61199580D01*
X108682695Y-61207441D01*
X108679998Y-61214630D01*
X108679009Y-61216340D01*
X108678817Y-61217779D01*
X108677532Y-61221208D01*
X108563640Y-61648303D01*
X108394389Y-60937447D01*
X108389599Y-60923547D01*
X108372442Y-60899840D01*
X108347520Y-60884504D01*
X108318625Y-60879871D01*
X108290157Y-60886649D01*
X108266450Y-60903806D01*
X108251114Y-60928728D01*
X108246481Y-60957623D01*
X108047928Y-60957623D01*
X108047344Y-60956455D01*
X108025237Y-60937281D01*
X108011812Y-60931287D01*
X107868955Y-60883668D01*
X107861701Y-60882018D01*
X107859870Y-60881260D01*
X107857215Y-60880998D01*
X107854618Y-60880408D01*
X107852643Y-60880548D01*
X107845238Y-60879819D01*
X107607143Y-60879819D01*
X107592511Y-60881260D01*
X107590022Y-60882290D01*
X107587333Y-60882482D01*
X107573602Y-60887737D01*
X107478364Y-60935356D01*
X107472064Y-60939320D01*
X107470237Y-60940078D01*
X107468180Y-60941766D01*
X107465921Y-60943188D01*
X107464621Y-60944686D01*
X107458872Y-60949405D01*
X107411253Y-60997024D01*
X107406534Y-61002773D01*
X107405036Y-61004073D01*
X107403614Y-61006332D01*
X107401926Y-61008389D01*
X107401168Y-61010216D01*
X107397204Y-61016516D01*
X107349585Y-61111754D01*
X107344330Y-61125486D01*
X107344139Y-61128173D01*
X107343108Y-61130663D01*
X107341667Y-61145295D01*
X107230556Y-61145295D01*
X107230556Y-60721678D01*
X110315622Y-60721678D01*
X110315622Y-62140930D01*
G37*
G36*
X92769444Y-65640930D02*
G01*
X89730556Y-65640930D01*
X89730556Y-64645295D01*
X89841667Y-64645295D01*
X89841667Y-64740533D01*
X89843108Y-64755165D01*
X89844139Y-64757654D01*
X89844330Y-64760342D01*
X89849585Y-64774074D01*
X89897204Y-64869312D01*
X89901168Y-64875611D01*
X89901926Y-64877439D01*
X89903614Y-64879495D01*
X89905036Y-64881755D01*
X89906534Y-64883054D01*
X89911253Y-64888804D01*
X89958872Y-64936423D01*
X89964621Y-64941141D01*
X89965921Y-64942640D01*
X89968180Y-64944061D01*
X89970237Y-64945750D01*
X89972064Y-64946507D01*
X89978364Y-64950472D01*
X90073602Y-64998091D01*
X90074671Y-64998500D01*
X90075107Y-64998823D01*
X90081243Y-65001015D01*
X90087333Y-65003346D01*
X90087873Y-65003384D01*
X90088953Y-65003770D01*
X90271443Y-65049392D01*
X90348430Y-65087886D01*
X90378837Y-65118293D01*
X90413095Y-65186809D01*
X90413095Y-65246637D01*
X90378836Y-65315153D01*
X90348429Y-65345561D01*
X90279914Y-65379819D01*
X90071694Y-65379819D01*
X89940384Y-65336049D01*
X89926047Y-65332789D01*
X89896857Y-65334864D01*
X89870684Y-65347950D01*
X89851510Y-65370057D01*
X89842256Y-65397820D01*
X89844331Y-65427010D01*
X89857417Y-65453183D01*
X89879524Y-65472357D01*
X89892950Y-65478351D01*
X90035806Y-65525970D01*
X90043061Y-65527619D01*
X90044892Y-65528378D01*
X90047545Y-65528639D01*
X90050143Y-65529230D01*
X90052117Y-65529089D01*
X90059524Y-65529819D01*
X90297619Y-65529819D01*
X90312251Y-65528378D01*
X90314740Y-65527346D01*
X90317428Y-65527156D01*
X90331160Y-65521901D01*
X90426398Y-65474282D01*
X90432697Y-65470317D01*
X90434525Y-65469560D01*
X90436581Y-65467872D01*
X90438841Y-65466450D01*
X90440141Y-65464950D01*
X90445891Y-65460232D01*
X90493509Y-65412613D01*
X90498227Y-65406863D01*
X90499726Y-65405564D01*
X90501147Y-65403305D01*
X90502837Y-65401247D01*
X90503594Y-65399417D01*
X90507558Y-65393121D01*
X90555177Y-65297883D01*
X90560432Y-65284152D01*
X90560623Y-65281462D01*
X90561654Y-65278974D01*
X90563095Y-65264342D01*
X90563095Y-65169104D01*
X90561654Y-65154472D01*
X90560623Y-65151983D01*
X90560432Y-65149294D01*
X90555177Y-65135563D01*
X90507558Y-65040325D01*
X90503593Y-65034025D01*
X90502836Y-65032198D01*
X90501147Y-65030141D01*
X90499726Y-65027882D01*
X90498227Y-65026582D01*
X90493509Y-65020833D01*
X90445890Y-64973214D01*
X90440140Y-64968495D01*
X90438841Y-64966997D01*
X90436581Y-64965575D01*
X90434525Y-64963887D01*
X90432697Y-64963129D01*
X90426398Y-64959165D01*
X90331160Y-64911546D01*
X90330090Y-64911136D01*
X90329655Y-64910814D01*
X90323509Y-64908618D01*
X90317428Y-64906291D01*
X90316888Y-64906252D01*
X90315809Y-64905867D01*
X90133319Y-64860244D01*
X90056332Y-64821751D01*
X90025925Y-64791344D01*
X89991667Y-64722828D01*
X89991667Y-64663000D01*
X90025925Y-64594484D01*
X90056332Y-64564077D01*
X90124848Y-64529819D01*
X90333068Y-64529819D01*
X90464377Y-64573589D01*
X90478714Y-64576849D01*
X90507904Y-64574774D01*
X90534078Y-64561688D01*
X90553252Y-64539580D01*
X90562506Y-64511818D01*
X90560431Y-64482628D01*
X90547928Y-64457623D01*
X90746481Y-64457623D01*
X90748469Y-64472191D01*
X90986564Y-65472191D01*
X90988293Y-65477210D01*
X90988533Y-65479012D01*
X90989475Y-65480640D01*
X90991354Y-65486091D01*
X90997740Y-65494915D01*
X91003195Y-65504337D01*
X91006252Y-65506677D01*
X91008511Y-65509798D01*
X91017786Y-65515505D01*
X91026433Y-65522124D01*
X91030153Y-65523116D01*
X91033433Y-65525134D01*
X91044187Y-65526858D01*
X91054709Y-65529664D01*
X91058524Y-65529157D01*
X91062328Y-65529767D01*
X91072926Y-65527243D01*
X91083717Y-65525810D01*
X91087048Y-65523881D01*
X91090796Y-65522989D01*
X91099620Y-65516602D01*
X91109042Y-65511148D01*
X91111382Y-65508090D01*
X91114503Y-65505832D01*
X91120210Y-65496556D01*
X91126829Y-65487910D01*
X91128854Y-65482510D01*
X91129839Y-65480910D01*
X91130126Y-65479118D01*
X91131992Y-65474144D01*
X91249999Y-65031613D01*
X91368008Y-65474144D01*
X91369873Y-65479119D01*
X91370161Y-65480910D01*
X91371145Y-65482509D01*
X91373171Y-65487911D01*
X91379791Y-65496559D01*
X91385497Y-65505832D01*
X91388617Y-65508090D01*
X91390958Y-65511148D01*
X91400379Y-65516602D01*
X91409204Y-65522989D01*
X91412951Y-65523881D01*
X91416283Y-65525810D01*
X91427076Y-65527244D01*
X91437672Y-65529767D01*
X91441473Y-65529157D01*
X91445292Y-65529665D01*
X91455823Y-65526856D01*
X91466567Y-65525134D01*
X91469843Y-65523118D01*
X91473567Y-65522125D01*
X91482217Y-65515503D01*
X91491489Y-65509798D01*
X91493747Y-65506677D01*
X91496805Y-65504337D01*
X91502260Y-65494914D01*
X91508646Y-65486091D01*
X91510523Y-65480642D01*
X91511467Y-65479013D01*
X91511706Y-65477209D01*
X91513436Y-65472191D01*
X91751532Y-64472191D01*
X91753520Y-64457623D01*
X91750724Y-64440187D01*
X91890727Y-64440187D01*
X91890727Y-64469451D01*
X91901926Y-64496487D01*
X91922618Y-64517179D01*
X91949654Y-64528378D01*
X91964286Y-64529819D01*
X92418051Y-64529819D01*
X92193557Y-64786383D01*
X92189035Y-64792707D01*
X92187640Y-64794103D01*
X92187091Y-64795426D01*
X92185006Y-64798344D01*
X92181104Y-64809881D01*
X92176441Y-64821139D01*
X92176441Y-64823669D01*
X92175631Y-64826065D01*
X92176441Y-64838218D01*
X92176441Y-64850403D01*
X92177408Y-64852739D01*
X92177577Y-64855263D01*
X92182979Y-64866188D01*
X92187640Y-64877439D01*
X92189426Y-64879225D01*
X92190549Y-64881495D01*
X92199721Y-64889520D01*
X92208332Y-64898131D01*
X92210668Y-64899099D01*
X92212573Y-64900765D01*
X92224110Y-64904666D01*
X92235368Y-64909330D01*
X92238938Y-64909681D01*
X92240294Y-64910140D01*
X92242261Y-64910008D01*
X92250000Y-64910771D01*
X92375152Y-64910771D01*
X92443668Y-64945029D01*
X92474075Y-64975436D01*
X92508333Y-65043952D01*
X92508333Y-65246637D01*
X92474074Y-65315153D01*
X92443667Y-65345561D01*
X92375152Y-65379819D01*
X92124848Y-65379819D01*
X92056332Y-65345561D01*
X92017320Y-65306548D01*
X92005954Y-65297220D01*
X91978918Y-65286021D01*
X91949655Y-65286021D01*
X91922619Y-65297219D01*
X91901926Y-65317912D01*
X91890727Y-65344948D01*
X91890727Y-65374211D01*
X91901925Y-65401247D01*
X91911252Y-65412612D01*
X91958871Y-65460232D01*
X91964620Y-65464950D01*
X91965921Y-65466450D01*
X91968180Y-65467872D01*
X91970237Y-65469560D01*
X91972064Y-65470317D01*
X91978364Y-65474282D01*
X92073602Y-65521901D01*
X92087333Y-65527156D01*
X92090022Y-65527347D01*
X92092511Y-65528378D01*
X92107143Y-65529819D01*
X92392857Y-65529819D01*
X92407489Y-65528378D01*
X92409978Y-65527346D01*
X92412666Y-65527156D01*
X92426398Y-65521901D01*
X92521636Y-65474282D01*
X92527935Y-65470317D01*
X92529763Y-65469560D01*
X92531819Y-65467872D01*
X92534079Y-65466450D01*
X92535379Y-65464950D01*
X92541129Y-65460232D01*
X92588747Y-65412613D01*
X92593465Y-65406863D01*
X92594964Y-65405564D01*
X92596385Y-65403305D01*
X92598075Y-65401247D01*
X92598832Y-65399417D01*
X92602796Y-65393121D01*
X92650415Y-65297883D01*
X92655670Y-65284152D01*
X92655861Y-65281462D01*
X92656892Y-65278974D01*
X92658333Y-65264342D01*
X92658333Y-65026247D01*
X92656892Y-65011615D01*
X92655861Y-65009126D01*
X92655670Y-65006437D01*
X92650415Y-64992706D01*
X92602796Y-64897468D01*
X92598831Y-64891168D01*
X92598074Y-64889341D01*
X92596385Y-64887284D01*
X92594964Y-64885025D01*
X92593465Y-64883725D01*
X92588747Y-64877976D01*
X92541128Y-64830357D01*
X92535378Y-64825638D01*
X92534079Y-64824140D01*
X92531819Y-64822718D01*
X92529763Y-64821030D01*
X92527935Y-64820272D01*
X92521636Y-64816308D01*
X92426398Y-64768689D01*
X92412880Y-64763516D01*
X92639776Y-64504207D01*
X92644297Y-64497882D01*
X92645693Y-64496487D01*
X92646241Y-64495163D01*
X92648327Y-64492246D01*
X92652228Y-64480708D01*
X92656892Y-64469451D01*
X92656892Y-64466920D01*
X92657702Y-64464525D01*
X92656892Y-64452371D01*
X92656892Y-64440187D01*
X92655924Y-64437850D01*
X92655756Y-64435327D01*
X92650353Y-64424401D01*
X92645693Y-64413151D01*
X92643906Y-64411364D01*
X92642784Y-64409095D01*
X92633611Y-64401069D01*
X92625001Y-64392459D01*
X92622664Y-64391490D01*
X92620760Y-64389825D01*
X92609222Y-64385923D01*
X92597965Y-64381260D01*
X92594394Y-64380908D01*
X92593039Y-64380450D01*
X92591071Y-64380581D01*
X92583333Y-64379819D01*
X91964286Y-64379819D01*
X91949654Y-64381260D01*
X91922618Y-64392459D01*
X91901926Y-64413151D01*
X91890727Y-64440187D01*
X91750724Y-64440187D01*
X91748887Y-64428728D01*
X91733551Y-64403806D01*
X91709844Y-64386650D01*
X91681376Y-64379871D01*
X91652481Y-64384504D01*
X91627559Y-64399840D01*
X91610402Y-64423547D01*
X91605612Y-64437448D01*
X91436359Y-65148303D01*
X91322468Y-64721208D01*
X91321182Y-64717780D01*
X91320991Y-64716339D01*
X91319999Y-64714626D01*
X91317305Y-64707442D01*
X91311290Y-64699583D01*
X91306329Y-64691015D01*
X91302470Y-64688061D01*
X91299518Y-64684204D01*
X91290953Y-64679245D01*
X91283091Y-64673227D01*
X91278394Y-64671974D01*
X91274193Y-64669542D01*
X91264386Y-64668239D01*
X91254816Y-64665687D01*
X91249997Y-64666327D01*
X91245185Y-64665688D01*
X91235624Y-64668237D01*
X91225807Y-64669542D01*
X91221601Y-64671976D01*
X91216909Y-64673228D01*
X91209049Y-64679243D01*
X91200482Y-64684204D01*
X91197528Y-64688062D01*
X91193671Y-64691015D01*
X91188712Y-64699580D01*
X91182695Y-64707441D01*
X91179998Y-64714630D01*
X91179009Y-64716340D01*
X91178817Y-64717779D01*
X91177532Y-64721208D01*
X91063640Y-65148303D01*
X90894389Y-64437447D01*
X90889599Y-64423547D01*
X90872442Y-64399840D01*
X90847520Y-64384504D01*
X90818625Y-64379871D01*
X90790157Y-64386649D01*
X90766450Y-64403806D01*
X90751114Y-64428728D01*
X90746481Y-64457623D01*
X90547928Y-64457623D01*
X90547344Y-64456455D01*
X90525237Y-64437281D01*
X90511812Y-64431287D01*
X90368955Y-64383668D01*
X90361701Y-64382018D01*
X90359870Y-64381260D01*
X90357215Y-64380998D01*
X90354618Y-64380408D01*
X90352643Y-64380548D01*
X90345238Y-64379819D01*
X90107143Y-64379819D01*
X90092511Y-64381260D01*
X90090022Y-64382290D01*
X90087333Y-64382482D01*
X90073602Y-64387737D01*
X89978364Y-64435356D01*
X89972064Y-64439320D01*
X89970237Y-64440078D01*
X89968180Y-64441766D01*
X89965921Y-64443188D01*
X89964621Y-64444686D01*
X89958872Y-64449405D01*
X89911253Y-64497024D01*
X89906534Y-64502773D01*
X89905036Y-64504073D01*
X89903614Y-64506332D01*
X89901926Y-64508389D01*
X89901168Y-64510216D01*
X89897204Y-64516516D01*
X89849585Y-64611754D01*
X89844330Y-64625486D01*
X89844139Y-64628173D01*
X89843108Y-64630663D01*
X89841667Y-64645295D01*
X89730556Y-64645295D01*
X89730556Y-64268708D01*
X92769444Y-64268708D01*
X92769444Y-65640930D01*
G37*
G36*
X109269444Y-76640930D02*
G01*
X106230556Y-76640930D01*
X106230556Y-75645295D01*
X106341667Y-75645295D01*
X106341667Y-75740533D01*
X106343108Y-75755165D01*
X106344139Y-75757654D01*
X106344330Y-75760342D01*
X106349585Y-75774074D01*
X106397204Y-75869312D01*
X106401168Y-75875611D01*
X106401926Y-75877439D01*
X106403614Y-75879495D01*
X106405036Y-75881755D01*
X106406534Y-75883054D01*
X106411253Y-75888804D01*
X106458872Y-75936423D01*
X106464621Y-75941141D01*
X106465921Y-75942640D01*
X106468180Y-75944061D01*
X106470237Y-75945750D01*
X106472064Y-75946507D01*
X106478364Y-75950472D01*
X106573602Y-75998091D01*
X106574671Y-75998500D01*
X106575107Y-75998823D01*
X106581243Y-76001015D01*
X106587333Y-76003346D01*
X106587873Y-76003384D01*
X106588953Y-76003770D01*
X106771443Y-76049392D01*
X106848430Y-76087886D01*
X106878837Y-76118293D01*
X106913095Y-76186809D01*
X106913095Y-76246637D01*
X106878836Y-76315153D01*
X106848429Y-76345561D01*
X106779914Y-76379819D01*
X106571694Y-76379819D01*
X106440384Y-76336049D01*
X106426047Y-76332789D01*
X106396857Y-76334864D01*
X106370684Y-76347950D01*
X106351510Y-76370057D01*
X106342256Y-76397820D01*
X106344331Y-76427010D01*
X106357417Y-76453183D01*
X106379524Y-76472357D01*
X106392950Y-76478351D01*
X106535806Y-76525970D01*
X106543061Y-76527619D01*
X106544892Y-76528378D01*
X106547545Y-76528639D01*
X106550143Y-76529230D01*
X106552117Y-76529089D01*
X106559524Y-76529819D01*
X106797619Y-76529819D01*
X106812251Y-76528378D01*
X106814740Y-76527346D01*
X106817428Y-76527156D01*
X106831160Y-76521901D01*
X106926398Y-76474282D01*
X106932697Y-76470317D01*
X106934525Y-76469560D01*
X106936581Y-76467872D01*
X106938841Y-76466450D01*
X106940141Y-76464950D01*
X106945891Y-76460232D01*
X106993509Y-76412613D01*
X106998227Y-76406863D01*
X106999726Y-76405564D01*
X107001147Y-76403305D01*
X107002837Y-76401247D01*
X107003594Y-76399417D01*
X107007558Y-76393121D01*
X107055177Y-76297883D01*
X107060432Y-76284152D01*
X107060623Y-76281462D01*
X107061654Y-76278974D01*
X107063095Y-76264342D01*
X107063095Y-76169104D01*
X107061654Y-76154472D01*
X107060623Y-76151983D01*
X107060432Y-76149294D01*
X107055177Y-76135563D01*
X107007558Y-76040325D01*
X107003593Y-76034025D01*
X107002836Y-76032198D01*
X107001147Y-76030141D01*
X106999726Y-76027882D01*
X106998227Y-76026582D01*
X106993509Y-76020833D01*
X106945890Y-75973214D01*
X106940140Y-75968495D01*
X106938841Y-75966997D01*
X106936581Y-75965575D01*
X106934525Y-75963887D01*
X106932697Y-75963129D01*
X106926398Y-75959165D01*
X106831160Y-75911546D01*
X106830090Y-75911136D01*
X106829655Y-75910814D01*
X106823509Y-75908618D01*
X106817428Y-75906291D01*
X106816888Y-75906252D01*
X106815809Y-75905867D01*
X106633319Y-75860244D01*
X106556332Y-75821751D01*
X106525925Y-75791344D01*
X106491667Y-75722828D01*
X106491667Y-75663000D01*
X106525925Y-75594484D01*
X106556332Y-75564077D01*
X106624848Y-75529819D01*
X106833068Y-75529819D01*
X106964377Y-75573589D01*
X106978714Y-75576849D01*
X107007904Y-75574774D01*
X107034078Y-75561688D01*
X107053252Y-75539580D01*
X107062506Y-75511818D01*
X107060431Y-75482628D01*
X107047928Y-75457623D01*
X107246481Y-75457623D01*
X107248469Y-75472191D01*
X107486564Y-76472191D01*
X107488293Y-76477210D01*
X107488533Y-76479012D01*
X107489475Y-76480640D01*
X107491354Y-76486091D01*
X107497740Y-76494915D01*
X107503195Y-76504337D01*
X107506252Y-76506677D01*
X107508511Y-76509798D01*
X107517786Y-76515505D01*
X107526433Y-76522124D01*
X107530153Y-76523116D01*
X107533433Y-76525134D01*
X107544187Y-76526858D01*
X107554709Y-76529664D01*
X107558524Y-76529157D01*
X107562328Y-76529767D01*
X107572926Y-76527243D01*
X107583717Y-76525810D01*
X107587048Y-76523881D01*
X107590796Y-76522989D01*
X107599620Y-76516602D01*
X107609042Y-76511148D01*
X107611382Y-76508090D01*
X107614503Y-76505832D01*
X107620210Y-76496556D01*
X107626829Y-76487910D01*
X107628854Y-76482510D01*
X107629839Y-76480910D01*
X107630126Y-76479118D01*
X107631992Y-76474144D01*
X107749999Y-76031613D01*
X107868008Y-76474144D01*
X107869873Y-76479119D01*
X107870161Y-76480910D01*
X107871145Y-76482509D01*
X107873171Y-76487911D01*
X107879791Y-76496559D01*
X107885497Y-76505832D01*
X107888617Y-76508090D01*
X107890958Y-76511148D01*
X107900379Y-76516602D01*
X107909204Y-76522989D01*
X107912951Y-76523881D01*
X107916283Y-76525810D01*
X107927076Y-76527244D01*
X107937672Y-76529767D01*
X107941473Y-76529157D01*
X107945292Y-76529665D01*
X107955823Y-76526856D01*
X107966567Y-76525134D01*
X107969843Y-76523118D01*
X107973567Y-76522125D01*
X107982217Y-76515503D01*
X107991489Y-76509798D01*
X107993747Y-76506677D01*
X107996805Y-76504337D01*
X108002260Y-76494914D01*
X108008646Y-76486091D01*
X108010523Y-76480642D01*
X108011467Y-76479013D01*
X108011706Y-76477209D01*
X108013436Y-76472191D01*
X108021056Y-76440187D01*
X108390727Y-76440187D01*
X108390727Y-76469451D01*
X108401926Y-76496487D01*
X108422618Y-76517179D01*
X108449654Y-76528378D01*
X108464286Y-76529819D01*
X109083333Y-76529819D01*
X109097965Y-76528378D01*
X109125001Y-76517179D01*
X109145693Y-76496487D01*
X109156892Y-76469451D01*
X109156892Y-76440187D01*
X109145693Y-76413151D01*
X109125001Y-76392459D01*
X109097965Y-76381260D01*
X109083333Y-76379819D01*
X108645352Y-76379819D01*
X109088747Y-75936423D01*
X109098075Y-75925058D01*
X109099106Y-75922567D01*
X109100871Y-75920533D01*
X109106865Y-75907107D01*
X109154484Y-75764251D01*
X109156133Y-75756995D01*
X109156892Y-75755165D01*
X109157153Y-75752511D01*
X109157744Y-75749914D01*
X109157603Y-75747939D01*
X109158333Y-75740533D01*
X109158333Y-75645295D01*
X109156892Y-75630663D01*
X109155861Y-75628174D01*
X109155670Y-75625485D01*
X109150415Y-75611754D01*
X109102796Y-75516516D01*
X109098831Y-75510216D01*
X109098074Y-75508389D01*
X109096385Y-75506332D01*
X109094964Y-75504073D01*
X109093465Y-75502773D01*
X109088747Y-75497024D01*
X109041128Y-75449405D01*
X109035378Y-75444686D01*
X109034079Y-75443188D01*
X109031819Y-75441766D01*
X109029763Y-75440078D01*
X109027935Y-75439320D01*
X109021636Y-75435356D01*
X108926398Y-75387737D01*
X108912666Y-75382482D01*
X108909978Y-75382291D01*
X108907489Y-75381260D01*
X108892857Y-75379819D01*
X108654762Y-75379819D01*
X108640130Y-75381260D01*
X108637641Y-75382290D01*
X108634952Y-75382482D01*
X108621221Y-75387737D01*
X108525983Y-75435356D01*
X108519683Y-75439320D01*
X108517856Y-75440078D01*
X108515799Y-75441766D01*
X108513540Y-75443188D01*
X108512240Y-75444686D01*
X108506491Y-75449405D01*
X108458872Y-75497024D01*
X108449545Y-75508389D01*
X108438346Y-75535426D01*
X108438346Y-75564688D01*
X108449545Y-75591725D01*
X108470237Y-75612417D01*
X108497274Y-75623616D01*
X108526536Y-75623616D01*
X108553573Y-75612417D01*
X108564938Y-75603090D01*
X108603951Y-75564077D01*
X108672467Y-75529819D01*
X108875152Y-75529819D01*
X108943668Y-75564077D01*
X108974075Y-75594484D01*
X109008333Y-75663000D01*
X109008333Y-75728363D01*
X108970161Y-75842876D01*
X108411253Y-76401786D01*
X108401926Y-76413151D01*
X108390727Y-76440187D01*
X108021056Y-76440187D01*
X108251532Y-75472191D01*
X108253520Y-75457623D01*
X108248887Y-75428728D01*
X108233551Y-75403806D01*
X108209844Y-75386650D01*
X108181376Y-75379871D01*
X108152481Y-75384504D01*
X108127559Y-75399840D01*
X108110402Y-75423547D01*
X108105612Y-75437448D01*
X107936359Y-76148303D01*
X107822468Y-75721208D01*
X107821182Y-75717780D01*
X107820991Y-75716339D01*
X107819999Y-75714626D01*
X107817305Y-75707442D01*
X107811290Y-75699583D01*
X107806329Y-75691015D01*
X107802470Y-75688061D01*
X107799518Y-75684204D01*
X107790953Y-75679245D01*
X107783091Y-75673227D01*
X107778394Y-75671974D01*
X107774193Y-75669542D01*
X107764386Y-75668239D01*
X107754816Y-75665687D01*
X107749997Y-75666327D01*
X107745185Y-75665688D01*
X107735624Y-75668237D01*
X107725807Y-75669542D01*
X107721601Y-75671976D01*
X107716909Y-75673228D01*
X107709049Y-75679243D01*
X107700482Y-75684204D01*
X107697528Y-75688062D01*
X107693671Y-75691015D01*
X107688712Y-75699580D01*
X107682695Y-75707441D01*
X107679998Y-75714630D01*
X107679009Y-75716340D01*
X107678817Y-75717779D01*
X107677532Y-75721208D01*
X107563640Y-76148303D01*
X107394389Y-75437447D01*
X107389599Y-75423547D01*
X107372442Y-75399840D01*
X107347520Y-75384504D01*
X107318625Y-75379871D01*
X107290157Y-75386649D01*
X107266450Y-75403806D01*
X107251114Y-75428728D01*
X107246481Y-75457623D01*
X107047928Y-75457623D01*
X107047344Y-75456455D01*
X107025237Y-75437281D01*
X107011812Y-75431287D01*
X106868955Y-75383668D01*
X106861701Y-75382018D01*
X106859870Y-75381260D01*
X106857215Y-75380998D01*
X106854618Y-75380408D01*
X106852643Y-75380548D01*
X106845238Y-75379819D01*
X106607143Y-75379819D01*
X106592511Y-75381260D01*
X106590022Y-75382290D01*
X106587333Y-75382482D01*
X106573602Y-75387737D01*
X106478364Y-75435356D01*
X106472064Y-75439320D01*
X106470237Y-75440078D01*
X106468180Y-75441766D01*
X106465921Y-75443188D01*
X106464621Y-75444686D01*
X106458872Y-75449405D01*
X106411253Y-75497024D01*
X106406534Y-75502773D01*
X106405036Y-75504073D01*
X106403614Y-75506332D01*
X106401926Y-75508389D01*
X106401168Y-75510216D01*
X106397204Y-75516516D01*
X106349585Y-75611754D01*
X106344330Y-75625486D01*
X106344139Y-75628173D01*
X106343108Y-75630663D01*
X106341667Y-75645295D01*
X106230556Y-75645295D01*
X106230556Y-75268708D01*
X109269444Y-75268708D01*
X109269444Y-76640930D01*
G37*
G36*
X91768003Y-81140930D02*
G01*
X88730556Y-81140930D01*
X88730556Y-80145295D01*
X88841667Y-80145295D01*
X88841667Y-80240533D01*
X88843108Y-80255165D01*
X88844139Y-80257654D01*
X88844330Y-80260342D01*
X88849585Y-80274074D01*
X88897204Y-80369312D01*
X88901168Y-80375611D01*
X88901926Y-80377439D01*
X88903614Y-80379495D01*
X88905036Y-80381755D01*
X88906534Y-80383054D01*
X88911253Y-80388804D01*
X88958872Y-80436423D01*
X88964621Y-80441141D01*
X88965921Y-80442640D01*
X88968180Y-80444061D01*
X88970237Y-80445750D01*
X88972064Y-80446507D01*
X88978364Y-80450472D01*
X89073602Y-80498091D01*
X89074671Y-80498500D01*
X89075107Y-80498823D01*
X89081243Y-80501015D01*
X89087333Y-80503346D01*
X89087873Y-80503384D01*
X89088953Y-80503770D01*
X89271443Y-80549392D01*
X89348430Y-80587886D01*
X89378837Y-80618293D01*
X89413095Y-80686809D01*
X89413095Y-80746637D01*
X89378836Y-80815153D01*
X89348429Y-80845561D01*
X89279914Y-80879819D01*
X89071694Y-80879819D01*
X88940384Y-80836049D01*
X88926047Y-80832789D01*
X88896857Y-80834864D01*
X88870684Y-80847950D01*
X88851510Y-80870057D01*
X88842256Y-80897820D01*
X88844331Y-80927010D01*
X88857417Y-80953183D01*
X88879524Y-80972357D01*
X88892950Y-80978351D01*
X89035806Y-81025970D01*
X89043061Y-81027619D01*
X89044892Y-81028378D01*
X89047545Y-81028639D01*
X89050143Y-81029230D01*
X89052117Y-81029089D01*
X89059524Y-81029819D01*
X89297619Y-81029819D01*
X89312251Y-81028378D01*
X89314740Y-81027346D01*
X89317428Y-81027156D01*
X89331160Y-81021901D01*
X89426398Y-80974282D01*
X89432697Y-80970317D01*
X89434525Y-80969560D01*
X89436581Y-80967872D01*
X89438841Y-80966450D01*
X89440141Y-80964950D01*
X89445891Y-80960232D01*
X89493509Y-80912613D01*
X89498227Y-80906863D01*
X89499726Y-80905564D01*
X89501147Y-80903305D01*
X89502837Y-80901247D01*
X89503594Y-80899417D01*
X89507558Y-80893121D01*
X89555177Y-80797883D01*
X89560432Y-80784152D01*
X89560623Y-80781462D01*
X89561654Y-80778974D01*
X89563095Y-80764342D01*
X89563095Y-80669104D01*
X89561654Y-80654472D01*
X89560623Y-80651983D01*
X89560432Y-80649294D01*
X89555177Y-80635563D01*
X89507558Y-80540325D01*
X89503593Y-80534025D01*
X89502836Y-80532198D01*
X89501147Y-80530141D01*
X89499726Y-80527882D01*
X89498227Y-80526582D01*
X89493509Y-80520833D01*
X89445890Y-80473214D01*
X89440140Y-80468495D01*
X89438841Y-80466997D01*
X89436581Y-80465575D01*
X89434525Y-80463887D01*
X89432697Y-80463129D01*
X89426398Y-80459165D01*
X89331160Y-80411546D01*
X89330090Y-80411136D01*
X89329655Y-80410814D01*
X89323509Y-80408618D01*
X89317428Y-80406291D01*
X89316888Y-80406252D01*
X89315809Y-80405867D01*
X89133319Y-80360244D01*
X89056332Y-80321751D01*
X89025925Y-80291344D01*
X88991667Y-80222828D01*
X88991667Y-80163000D01*
X89025925Y-80094484D01*
X89056332Y-80064077D01*
X89124848Y-80029819D01*
X89333068Y-80029819D01*
X89464377Y-80073589D01*
X89478714Y-80076849D01*
X89507904Y-80074774D01*
X89534078Y-80061688D01*
X89553252Y-80039580D01*
X89562506Y-80011818D01*
X89560431Y-79982628D01*
X89547928Y-79957623D01*
X89746481Y-79957623D01*
X89748469Y-79972191D01*
X89986564Y-80972191D01*
X89988293Y-80977210D01*
X89988533Y-80979012D01*
X89989475Y-80980640D01*
X89991354Y-80986091D01*
X89997740Y-80994915D01*
X90003195Y-81004337D01*
X90006252Y-81006677D01*
X90008511Y-81009798D01*
X90017786Y-81015505D01*
X90026433Y-81022124D01*
X90030153Y-81023116D01*
X90033433Y-81025134D01*
X90044187Y-81026858D01*
X90054709Y-81029664D01*
X90058524Y-81029157D01*
X90062328Y-81029767D01*
X90072926Y-81027243D01*
X90083717Y-81025810D01*
X90087048Y-81023881D01*
X90090796Y-81022989D01*
X90099620Y-81016602D01*
X90109042Y-81011148D01*
X90111382Y-81008090D01*
X90114503Y-81005832D01*
X90120210Y-80996556D01*
X90126829Y-80987910D01*
X90128854Y-80982510D01*
X90129839Y-80980910D01*
X90130126Y-80979118D01*
X90131992Y-80974144D01*
X90249999Y-80531613D01*
X90368008Y-80974144D01*
X90369873Y-80979119D01*
X90370161Y-80980910D01*
X90371145Y-80982509D01*
X90373171Y-80987911D01*
X90379791Y-80996559D01*
X90385497Y-81005832D01*
X90388617Y-81008090D01*
X90390958Y-81011148D01*
X90400379Y-81016602D01*
X90409204Y-81022989D01*
X90412951Y-81023881D01*
X90416283Y-81025810D01*
X90427076Y-81027244D01*
X90437672Y-81029767D01*
X90441473Y-81029157D01*
X90445292Y-81029665D01*
X90455823Y-81026856D01*
X90466567Y-81025134D01*
X90469843Y-81023118D01*
X90473567Y-81022125D01*
X90482217Y-81015503D01*
X90491489Y-81009798D01*
X90493747Y-81006677D01*
X90496805Y-81004337D01*
X90502260Y-80994914D01*
X90508646Y-80986091D01*
X90510523Y-80980642D01*
X90511467Y-80979013D01*
X90511706Y-80977209D01*
X90513436Y-80972191D01*
X90689874Y-80231152D01*
X90937494Y-80231152D01*
X90939568Y-80260342D01*
X90952655Y-80286517D01*
X90974763Y-80305690D01*
X91002524Y-80314944D01*
X91031714Y-80312870D01*
X91045446Y-80307615D01*
X91140684Y-80259996D01*
X91146983Y-80256031D01*
X91148811Y-80255274D01*
X91150867Y-80253585D01*
X91153127Y-80252164D01*
X91154426Y-80250665D01*
X91160176Y-80245947D01*
X91222619Y-80183504D01*
X91222619Y-80879819D01*
X91011905Y-80879819D01*
X90997273Y-80881260D01*
X90970237Y-80892459D01*
X90949545Y-80913151D01*
X90938346Y-80940187D01*
X90938346Y-80969451D01*
X90949545Y-80996487D01*
X90970237Y-81017179D01*
X90997273Y-81028378D01*
X91011905Y-81029819D01*
X91583333Y-81029819D01*
X91597965Y-81028378D01*
X91625001Y-81017179D01*
X91645693Y-80996487D01*
X91656892Y-80969451D01*
X91656892Y-80940187D01*
X91645693Y-80913151D01*
X91625001Y-80892459D01*
X91597965Y-80881260D01*
X91583333Y-80879819D01*
X91372619Y-80879819D01*
X91372619Y-79954819D01*
X91372613Y-79954766D01*
X91372619Y-79954740D01*
X91372603Y-79954663D01*
X91371178Y-79940187D01*
X91368336Y-79933326D01*
X91366880Y-79926045D01*
X91362790Y-79919938D01*
X91359979Y-79913151D01*
X91354730Y-79907902D01*
X91350597Y-79901730D01*
X91344480Y-79897652D01*
X91339287Y-79892459D01*
X91332427Y-79889617D01*
X91326248Y-79885498D01*
X91319039Y-79884072D01*
X91312251Y-79881260D01*
X91304824Y-79881260D01*
X91297540Y-79879819D01*
X91290335Y-79881260D01*
X91282987Y-79881260D01*
X91276126Y-79884101D01*
X91268846Y-79885558D01*
X91262740Y-79889646D01*
X91255951Y-79892459D01*
X91250700Y-79897709D01*
X91244531Y-79901841D01*
X91235310Y-79913099D01*
X91235259Y-79913151D01*
X91235249Y-79913173D01*
X91235215Y-79913216D01*
X91144095Y-80049896D01*
X91062716Y-80131275D01*
X90978364Y-80173451D01*
X90965921Y-80181283D01*
X90946748Y-80203391D01*
X90937494Y-80231152D01*
X90689874Y-80231152D01*
X90751532Y-79972191D01*
X90753520Y-79957623D01*
X90748887Y-79928728D01*
X90733551Y-79903806D01*
X90709844Y-79886650D01*
X90681376Y-79879871D01*
X90652481Y-79884504D01*
X90627559Y-79899840D01*
X90610402Y-79923547D01*
X90605612Y-79937448D01*
X90436359Y-80648303D01*
X90322468Y-80221208D01*
X90321182Y-80217780D01*
X90320991Y-80216339D01*
X90319999Y-80214626D01*
X90317305Y-80207442D01*
X90311290Y-80199583D01*
X90306329Y-80191015D01*
X90302470Y-80188061D01*
X90299518Y-80184204D01*
X90290953Y-80179245D01*
X90283091Y-80173227D01*
X90278394Y-80171974D01*
X90274193Y-80169542D01*
X90264386Y-80168239D01*
X90254816Y-80165687D01*
X90249997Y-80166327D01*
X90245185Y-80165688D01*
X90235624Y-80168237D01*
X90225807Y-80169542D01*
X90221601Y-80171976D01*
X90216909Y-80173228D01*
X90209049Y-80179243D01*
X90200482Y-80184204D01*
X90197528Y-80188062D01*
X90193671Y-80191015D01*
X90188712Y-80199580D01*
X90182695Y-80207441D01*
X90179998Y-80214630D01*
X90179009Y-80216340D01*
X90178817Y-80217779D01*
X90177532Y-80221208D01*
X90063640Y-80648303D01*
X89894389Y-79937447D01*
X89889599Y-79923547D01*
X89872442Y-79899840D01*
X89847520Y-79884504D01*
X89818625Y-79879871D01*
X89790157Y-79886649D01*
X89766450Y-79903806D01*
X89751114Y-79928728D01*
X89746481Y-79957623D01*
X89547928Y-79957623D01*
X89547344Y-79956455D01*
X89525237Y-79937281D01*
X89511812Y-79931287D01*
X89368955Y-79883668D01*
X89361701Y-79882018D01*
X89359870Y-79881260D01*
X89357215Y-79880998D01*
X89354618Y-79880408D01*
X89352643Y-79880548D01*
X89345238Y-79879819D01*
X89107143Y-79879819D01*
X89092511Y-79881260D01*
X89090022Y-79882290D01*
X89087333Y-79882482D01*
X89073602Y-79887737D01*
X88978364Y-79935356D01*
X88972064Y-79939320D01*
X88970237Y-79940078D01*
X88968180Y-79941766D01*
X88965921Y-79943188D01*
X88964621Y-79944686D01*
X88958872Y-79949405D01*
X88911253Y-79997024D01*
X88906534Y-80002773D01*
X88905036Y-80004073D01*
X88903614Y-80006332D01*
X88901926Y-80008389D01*
X88901168Y-80010216D01*
X88897204Y-80016516D01*
X88849585Y-80111754D01*
X88844330Y-80125486D01*
X88844139Y-80128173D01*
X88843108Y-80130663D01*
X88841667Y-80145295D01*
X88730556Y-80145295D01*
X88730556Y-79768708D01*
X91768003Y-79768708D01*
X91768003Y-81140930D01*
G37*
G36*
X105920930Y-94398955D02*
G01*
X104548708Y-94398955D01*
X104548708Y-93818701D01*
X104661260Y-93818701D01*
X104661260Y-93847965D01*
X104672459Y-93875001D01*
X104693151Y-93895693D01*
X104720187Y-93906892D01*
X104734819Y-93908333D01*
X105436934Y-93908333D01*
X105551447Y-93946504D01*
X105621648Y-94016704D01*
X105659819Y-94131217D01*
X105659819Y-94214285D01*
X105661260Y-94228917D01*
X105672459Y-94255953D01*
X105693151Y-94276645D01*
X105720187Y-94287844D01*
X105749451Y-94287844D01*
X105776487Y-94276645D01*
X105797179Y-94255953D01*
X105808378Y-94228917D01*
X105809819Y-94214285D01*
X105809819Y-94119047D01*
X105809089Y-94111640D01*
X105809230Y-94109666D01*
X105808639Y-94107068D01*
X105808378Y-94104415D01*
X105807619Y-94102584D01*
X105805970Y-94095329D01*
X105758351Y-93952473D01*
X105752357Y-93939047D01*
X105750592Y-93937012D01*
X105749561Y-93934522D01*
X105740233Y-93923157D01*
X105644994Y-93827919D01*
X105633628Y-93818591D01*
X105631137Y-93817559D01*
X105629103Y-93815795D01*
X105615678Y-93809801D01*
X105472821Y-93762182D01*
X105465567Y-93760532D01*
X105463736Y-93759774D01*
X105461081Y-93759512D01*
X105458484Y-93758922D01*
X105456509Y-93759062D01*
X105449104Y-93758333D01*
X104734819Y-93758333D01*
X104720187Y-93759774D01*
X104693151Y-93770973D01*
X104672459Y-93791665D01*
X104661260Y-93818701D01*
X104548708Y-93818701D01*
X104548708Y-93119126D01*
X104659819Y-93119126D01*
X104661260Y-93126330D01*
X104661260Y-93133679D01*
X104664101Y-93140539D01*
X104665558Y-93147820D01*
X104669646Y-93153925D01*
X104672459Y-93160715D01*
X104677709Y-93165965D01*
X104681841Y-93172135D01*
X104693099Y-93181355D01*
X104693151Y-93181407D01*
X104693173Y-93181416D01*
X104693216Y-93181451D01*
X104829894Y-93272569D01*
X104911275Y-93353950D01*
X104953451Y-93438302D01*
X104961283Y-93450745D01*
X104983391Y-93469918D01*
X105011152Y-93479172D01*
X105040342Y-93477098D01*
X105066517Y-93464010D01*
X105085690Y-93441903D01*
X105094944Y-93414141D01*
X105092870Y-93384951D01*
X105087615Y-93371220D01*
X105039996Y-93275982D01*
X105036033Y-93269687D01*
X105035275Y-93267855D01*
X105033583Y-93265793D01*
X105032164Y-93263539D01*
X105030667Y-93262240D01*
X105025947Y-93256490D01*
X104963504Y-93194047D01*
X105659819Y-93194047D01*
X105659819Y-93404761D01*
X105661260Y-93419393D01*
X105672459Y-93446429D01*
X105693151Y-93467121D01*
X105720187Y-93478320D01*
X105749451Y-93478320D01*
X105776487Y-93467121D01*
X105797179Y-93446429D01*
X105808378Y-93419393D01*
X105809819Y-93404761D01*
X105809819Y-92833333D01*
X105808378Y-92818701D01*
X105797179Y-92791665D01*
X105776487Y-92770973D01*
X105749451Y-92759774D01*
X105720187Y-92759774D01*
X105693151Y-92770973D01*
X105672459Y-92791665D01*
X105661260Y-92818701D01*
X105659819Y-92833333D01*
X105659819Y-93044047D01*
X104734819Y-93044047D01*
X104734766Y-93044052D01*
X104734740Y-93044047D01*
X104734663Y-93044062D01*
X104720187Y-93045488D01*
X104713326Y-93048329D01*
X104706046Y-93049786D01*
X104699940Y-93053874D01*
X104693151Y-93056687D01*
X104687900Y-93061937D01*
X104681731Y-93066069D01*
X104677654Y-93072183D01*
X104672459Y-93077379D01*
X104669617Y-93084239D01*
X104665498Y-93090418D01*
X104664072Y-93097626D01*
X104661260Y-93104415D01*
X104661260Y-93111841D01*
X104659819Y-93119126D01*
X104548708Y-93119126D01*
X104548708Y-92648663D01*
X105920930Y-92648663D01*
X105920930Y-94398955D01*
G37*
G36*
X143443668Y-76992648D02*
G01*
X143474075Y-77023055D01*
X143508333Y-77091571D01*
X143508333Y-77246637D01*
X143474074Y-77315153D01*
X143443667Y-77345561D01*
X143375152Y-77379819D01*
X143220086Y-77379819D01*
X143151570Y-77345561D01*
X143121163Y-77315153D01*
X143086905Y-77246637D01*
X143086905Y-77091571D01*
X143121163Y-77023055D01*
X143151570Y-76992648D01*
X143220086Y-76958390D01*
X143375152Y-76958390D01*
X143443668Y-76992648D01*
G37*
G36*
X143443668Y-76564077D02*
G01*
X143474075Y-76594484D01*
X143508333Y-76663000D01*
X143508333Y-76675209D01*
X143474075Y-76743725D01*
X143443668Y-76774132D01*
X143375152Y-76808390D01*
X143220086Y-76808390D01*
X143151570Y-76774132D01*
X143121163Y-76743725D01*
X143086905Y-76675209D01*
X143086905Y-76663000D01*
X143121163Y-76594484D01*
X143151570Y-76564077D01*
X143220086Y-76529819D01*
X143375152Y-76529819D01*
X143443668Y-76564077D01*
G37*
G36*
X143769444Y-77640930D02*
G01*
X140730556Y-77640930D01*
X140730556Y-76645295D01*
X140841667Y-76645295D01*
X140841667Y-76740533D01*
X140843108Y-76755165D01*
X140844139Y-76757654D01*
X140844330Y-76760342D01*
X140849585Y-76774074D01*
X140897204Y-76869312D01*
X140901168Y-76875611D01*
X140901926Y-76877439D01*
X140903614Y-76879495D01*
X140905036Y-76881755D01*
X140906534Y-76883054D01*
X140911253Y-76888804D01*
X140958872Y-76936423D01*
X140964621Y-76941141D01*
X140965921Y-76942640D01*
X140968180Y-76944061D01*
X140970237Y-76945750D01*
X140972064Y-76946507D01*
X140978364Y-76950472D01*
X141073602Y-76998091D01*
X141074671Y-76998500D01*
X141075107Y-76998823D01*
X141081243Y-77001015D01*
X141087333Y-77003346D01*
X141087873Y-77003384D01*
X141088953Y-77003770D01*
X141271443Y-77049392D01*
X141348430Y-77087886D01*
X141378837Y-77118293D01*
X141413095Y-77186809D01*
X141413095Y-77246637D01*
X141378836Y-77315153D01*
X141348429Y-77345561D01*
X141279914Y-77379819D01*
X141071694Y-77379819D01*
X140940384Y-77336049D01*
X140926047Y-77332789D01*
X140896857Y-77334864D01*
X140870684Y-77347950D01*
X140851510Y-77370057D01*
X140842256Y-77397820D01*
X140844331Y-77427010D01*
X140857417Y-77453183D01*
X140879524Y-77472357D01*
X140892950Y-77478351D01*
X141035806Y-77525970D01*
X141043061Y-77527619D01*
X141044892Y-77528378D01*
X141047545Y-77528639D01*
X141050143Y-77529230D01*
X141052117Y-77529089D01*
X141059524Y-77529819D01*
X141297619Y-77529819D01*
X141312251Y-77528378D01*
X141314740Y-77527346D01*
X141317428Y-77527156D01*
X141331160Y-77521901D01*
X141426398Y-77474282D01*
X141432697Y-77470317D01*
X141434525Y-77469560D01*
X141436581Y-77467872D01*
X141438841Y-77466450D01*
X141440141Y-77464950D01*
X141445891Y-77460232D01*
X141493509Y-77412613D01*
X141498227Y-77406863D01*
X141499726Y-77405564D01*
X141501147Y-77403305D01*
X141502837Y-77401247D01*
X141503594Y-77399417D01*
X141507558Y-77393121D01*
X141555177Y-77297883D01*
X141560432Y-77284152D01*
X141560623Y-77281462D01*
X141561654Y-77278974D01*
X141563095Y-77264342D01*
X141563095Y-77169104D01*
X141561654Y-77154472D01*
X141560623Y-77151983D01*
X141560432Y-77149294D01*
X141555177Y-77135563D01*
X141507558Y-77040325D01*
X141503593Y-77034025D01*
X141502836Y-77032198D01*
X141501147Y-77030141D01*
X141499726Y-77027882D01*
X141498227Y-77026582D01*
X141493509Y-77020833D01*
X141445890Y-76973214D01*
X141440140Y-76968495D01*
X141438841Y-76966997D01*
X141436581Y-76965575D01*
X141434525Y-76963887D01*
X141432697Y-76963129D01*
X141426398Y-76959165D01*
X141331160Y-76911546D01*
X141330090Y-76911136D01*
X141329655Y-76910814D01*
X141323509Y-76908618D01*
X141317428Y-76906291D01*
X141316888Y-76906252D01*
X141315809Y-76905867D01*
X141133319Y-76860244D01*
X141056332Y-76821751D01*
X141025925Y-76791344D01*
X140991667Y-76722828D01*
X140991667Y-76663000D01*
X141025925Y-76594484D01*
X141056332Y-76564077D01*
X141124848Y-76529819D01*
X141333068Y-76529819D01*
X141464377Y-76573589D01*
X141478714Y-76576849D01*
X141507904Y-76574774D01*
X141534078Y-76561688D01*
X141553252Y-76539580D01*
X141562506Y-76511818D01*
X141560431Y-76482628D01*
X141547928Y-76457623D01*
X141746481Y-76457623D01*
X141748469Y-76472191D01*
X141986564Y-77472191D01*
X141988293Y-77477210D01*
X141988533Y-77479012D01*
X141989475Y-77480640D01*
X141991354Y-77486091D01*
X141997740Y-77494915D01*
X142003195Y-77504337D01*
X142006252Y-77506677D01*
X142008511Y-77509798D01*
X142017786Y-77515505D01*
X142026433Y-77522124D01*
X142030153Y-77523116D01*
X142033433Y-77525134D01*
X142044187Y-77526858D01*
X142054709Y-77529664D01*
X142058524Y-77529157D01*
X142062328Y-77529767D01*
X142072926Y-77527243D01*
X142083717Y-77525810D01*
X142087048Y-77523881D01*
X142090796Y-77522989D01*
X142099620Y-77516602D01*
X142109042Y-77511148D01*
X142111382Y-77508090D01*
X142114503Y-77505832D01*
X142120210Y-77496556D01*
X142126829Y-77487910D01*
X142128854Y-77482510D01*
X142129839Y-77480910D01*
X142130126Y-77479118D01*
X142131992Y-77474144D01*
X142249999Y-77031613D01*
X142368008Y-77474144D01*
X142369873Y-77479119D01*
X142370161Y-77480910D01*
X142371145Y-77482509D01*
X142373171Y-77487911D01*
X142379791Y-77496559D01*
X142385497Y-77505832D01*
X142388617Y-77508090D01*
X142390958Y-77511148D01*
X142400379Y-77516602D01*
X142409204Y-77522989D01*
X142412951Y-77523881D01*
X142416283Y-77525810D01*
X142427076Y-77527244D01*
X142437672Y-77529767D01*
X142441473Y-77529157D01*
X142445292Y-77529665D01*
X142455823Y-77526856D01*
X142466567Y-77525134D01*
X142469843Y-77523118D01*
X142473567Y-77522125D01*
X142482217Y-77515503D01*
X142491489Y-77509798D01*
X142493747Y-77506677D01*
X142496805Y-77504337D01*
X142502260Y-77494914D01*
X142508646Y-77486091D01*
X142510523Y-77480642D01*
X142511467Y-77479013D01*
X142511706Y-77477209D01*
X142513436Y-77472191D01*
X142710317Y-76645295D01*
X142936905Y-76645295D01*
X142936905Y-76692914D01*
X142938346Y-76707546D01*
X142939377Y-76710035D01*
X142939568Y-76712723D01*
X142944823Y-76726455D01*
X142992442Y-76821693D01*
X142996406Y-76827992D01*
X142997164Y-76829820D01*
X142998852Y-76831876D01*
X143000274Y-76834136D01*
X143001772Y-76835435D01*
X143006491Y-76841185D01*
X143048696Y-76883390D01*
X143006491Y-76925595D01*
X143001772Y-76931344D01*
X143000274Y-76932644D01*
X142998852Y-76934903D01*
X142997164Y-76936960D01*
X142996406Y-76938787D01*
X142992442Y-76945087D01*
X142944823Y-77040325D01*
X142939568Y-77054057D01*
X142939377Y-77056744D01*
X142938346Y-77059234D01*
X142936905Y-77073866D01*
X142936905Y-77264342D01*
X142938346Y-77278974D01*
X142939377Y-77281463D01*
X142939568Y-77284151D01*
X142944823Y-77297883D01*
X142992442Y-77393121D01*
X142996405Y-77399417D01*
X142997163Y-77401247D01*
X142998852Y-77403305D01*
X143000274Y-77405564D01*
X143001772Y-77406863D01*
X143006490Y-77412612D01*
X143054109Y-77460232D01*
X143059858Y-77464950D01*
X143061159Y-77466450D01*
X143063418Y-77467872D01*
X143065475Y-77469560D01*
X143067302Y-77470317D01*
X143073602Y-77474282D01*
X143168840Y-77521901D01*
X143182571Y-77527156D01*
X143185260Y-77527347D01*
X143187749Y-77528378D01*
X143202381Y-77529819D01*
X143392857Y-77529819D01*
X143407489Y-77528378D01*
X143409978Y-77527346D01*
X143412666Y-77527156D01*
X143426398Y-77521901D01*
X143521636Y-77474282D01*
X143527935Y-77470317D01*
X143529763Y-77469560D01*
X143531819Y-77467872D01*
X143534079Y-77466450D01*
X143535379Y-77464950D01*
X143541129Y-77460232D01*
X143588747Y-77412613D01*
X143593465Y-77406863D01*
X143594964Y-77405564D01*
X143596385Y-77403305D01*
X143598075Y-77401247D01*
X143598832Y-77399417D01*
X143602796Y-77393121D01*
X143650415Y-77297883D01*
X143655670Y-77284152D01*
X143655861Y-77281462D01*
X143656892Y-77278974D01*
X143658333Y-77264342D01*
X143658333Y-77073866D01*
X143656892Y-77059234D01*
X143655861Y-77056745D01*
X143655670Y-77054056D01*
X143650415Y-77040325D01*
X143602796Y-76945087D01*
X143598831Y-76938787D01*
X143598074Y-76936960D01*
X143596385Y-76934903D01*
X143594964Y-76932644D01*
X143593465Y-76931344D01*
X143588747Y-76925595D01*
X143546542Y-76883390D01*
X143588747Y-76841185D01*
X143593465Y-76835435D01*
X143594964Y-76834136D01*
X143596385Y-76831876D01*
X143598074Y-76829820D01*
X143598831Y-76827992D01*
X143602796Y-76821693D01*
X143650415Y-76726455D01*
X143655670Y-76712724D01*
X143655861Y-76710034D01*
X143656892Y-76707546D01*
X143658333Y-76692914D01*
X143658333Y-76645295D01*
X143656892Y-76630663D01*
X143655861Y-76628174D01*
X143655670Y-76625485D01*
X143650415Y-76611754D01*
X143602796Y-76516516D01*
X143598831Y-76510216D01*
X143598074Y-76508389D01*
X143596385Y-76506332D01*
X143594964Y-76504073D01*
X143593465Y-76502773D01*
X143588747Y-76497024D01*
X143541128Y-76449405D01*
X143535378Y-76444686D01*
X143534079Y-76443188D01*
X143531819Y-76441766D01*
X143529763Y-76440078D01*
X143527935Y-76439320D01*
X143521636Y-76435356D01*
X143426398Y-76387737D01*
X143412666Y-76382482D01*
X143409978Y-76382291D01*
X143407489Y-76381260D01*
X143392857Y-76379819D01*
X143202381Y-76379819D01*
X143187749Y-76381260D01*
X143185260Y-76382290D01*
X143182571Y-76382482D01*
X143168840Y-76387737D01*
X143073602Y-76435356D01*
X143067302Y-76439320D01*
X143065475Y-76440078D01*
X143063418Y-76441766D01*
X143061159Y-76443188D01*
X143059859Y-76444686D01*
X143054110Y-76449405D01*
X143006491Y-76497024D01*
X143001772Y-76502773D01*
X143000274Y-76504073D01*
X142998852Y-76506332D01*
X142997164Y-76508389D01*
X142996406Y-76510216D01*
X142992442Y-76516516D01*
X142944823Y-76611754D01*
X142939568Y-76625486D01*
X142939377Y-76628173D01*
X142938346Y-76630663D01*
X142936905Y-76645295D01*
X142710317Y-76645295D01*
X142751532Y-76472191D01*
X142753520Y-76457623D01*
X142748887Y-76428728D01*
X142733551Y-76403806D01*
X142709844Y-76386650D01*
X142681376Y-76379871D01*
X142652481Y-76384504D01*
X142627559Y-76399840D01*
X142610402Y-76423547D01*
X142605612Y-76437448D01*
X142436359Y-77148303D01*
X142322468Y-76721208D01*
X142321182Y-76717780D01*
X142320991Y-76716339D01*
X142319999Y-76714626D01*
X142317305Y-76707442D01*
X142311290Y-76699583D01*
X142306329Y-76691015D01*
X142302470Y-76688061D01*
X142299518Y-76684204D01*
X142290953Y-76679245D01*
X142283091Y-76673227D01*
X142278394Y-76671974D01*
X142274193Y-76669542D01*
X142264386Y-76668239D01*
X142254816Y-76665687D01*
X142249997Y-76666327D01*
X142245185Y-76665688D01*
X142235624Y-76668237D01*
X142225807Y-76669542D01*
X142221601Y-76671976D01*
X142216909Y-76673228D01*
X142209049Y-76679243D01*
X142200482Y-76684204D01*
X142197528Y-76688062D01*
X142193671Y-76691015D01*
X142188712Y-76699580D01*
X142182695Y-76707441D01*
X142179998Y-76714630D01*
X142179009Y-76716340D01*
X142178817Y-76717779D01*
X142177532Y-76721208D01*
X142063640Y-77148303D01*
X141894389Y-76437447D01*
X141889599Y-76423547D01*
X141872442Y-76399840D01*
X141847520Y-76384504D01*
X141818625Y-76379871D01*
X141790157Y-76386649D01*
X141766450Y-76403806D01*
X141751114Y-76428728D01*
X141746481Y-76457623D01*
X141547928Y-76457623D01*
X141547344Y-76456455D01*
X141525237Y-76437281D01*
X141511812Y-76431287D01*
X141368955Y-76383668D01*
X141361701Y-76382018D01*
X141359870Y-76381260D01*
X141357215Y-76380998D01*
X141354618Y-76380408D01*
X141352643Y-76380548D01*
X141345238Y-76379819D01*
X141107143Y-76379819D01*
X141092511Y-76381260D01*
X141090022Y-76382290D01*
X141087333Y-76382482D01*
X141073602Y-76387737D01*
X140978364Y-76435356D01*
X140972064Y-76439320D01*
X140970237Y-76440078D01*
X140968180Y-76441766D01*
X140965921Y-76443188D01*
X140964621Y-76444686D01*
X140958872Y-76449405D01*
X140911253Y-76497024D01*
X140906534Y-76502773D01*
X140905036Y-76504073D01*
X140903614Y-76506332D01*
X140901926Y-76508389D01*
X140901168Y-76510216D01*
X140897204Y-76516516D01*
X140849585Y-76611754D01*
X140844330Y-76625486D01*
X140844139Y-76628173D01*
X140843108Y-76630663D01*
X140841667Y-76645295D01*
X140730556Y-76645295D01*
X140730556Y-76268708D01*
X143769444Y-76268708D01*
X143769444Y-77640930D01*
G37*
D11*
%TO.P,SW7,1,1*%
%TO.N,Net-(J1-Pin_8)*%
X140500000Y-63500000D03*
X147000000Y-63500000D03*
%TO.P,SW7,2,2*%
%TO.N,GND*%
X140500000Y-68000000D03*
X147000000Y-68000000D03*
%TD*%
%TO.P,SW6,1,1*%
%TO.N,Net-(J1-Pin_7)*%
X122000000Y-74500000D03*
X128500000Y-74500000D03*
%TO.P,SW6,2,2*%
%TO.N,GND*%
X122000000Y-79000000D03*
X128500000Y-79000000D03*
%TD*%
%TO.P,SW5,1,1*%
%TO.N,Net-(J1-Pin_6)*%
X123000000Y-60000000D03*
X129500000Y-60000000D03*
%TO.P,SW5,2,2*%
%TO.N,GND*%
X123000000Y-64500000D03*
X129500000Y-64500000D03*
%TD*%
%TO.P,SW4,1,1*%
%TO.N,Net-(J1-Pin_5)*%
X105500000Y-63500000D03*
X112000000Y-63500000D03*
%TO.P,SW4,2,2*%
%TO.N,GND*%
X105500000Y-68000000D03*
X112000000Y-68000000D03*
%TD*%
%TO.P,SW3,1,1*%
%TO.N,Net-(J1-Pin_4)*%
X88000000Y-67000000D03*
X94500000Y-67000000D03*
%TO.P,SW3,2,2*%
%TO.N,GND*%
X88000000Y-71500000D03*
X94500000Y-71500000D03*
%TD*%
%TO.P,SW2,1,1*%
%TO.N,Net-(J1-Pin_3)*%
X104500000Y-78000000D03*
X111000000Y-78000000D03*
%TO.P,SW2,2,2*%
%TO.N,GND*%
X104500000Y-82500000D03*
X111000000Y-82500000D03*
%TD*%
%TO.P,SW1,1,1*%
%TO.N,Net-(J1-Pin_2)*%
X87000000Y-82500000D03*
X93500000Y-82500000D03*
%TO.P,SW1,2,2*%
%TO.N,GND*%
X87000000Y-87000000D03*
X93500000Y-87000000D03*
%TD*%
D12*
%TO.P,J1,1,Pin_1*%
%TO.N,GND*%
X108000000Y-93500000D03*
D13*
%TO.P,J1,2,Pin_2*%
%TO.N,Net-(J1-Pin_2)*%
X110540000Y-93500000D03*
%TO.P,J1,3,Pin_3*%
%TO.N,Net-(J1-Pin_3)*%
X113080000Y-93500000D03*
%TO.P,J1,4,Pin_4*%
%TO.N,Net-(J1-Pin_4)*%
X115620000Y-93500000D03*
%TO.P,J1,5,Pin_5*%
%TO.N,Net-(J1-Pin_5)*%
X118160000Y-93500000D03*
%TO.P,J1,6,Pin_6*%
%TO.N,Net-(J1-Pin_6)*%
X120700000Y-93500000D03*
%TO.P,J1,7,Pin_7*%
%TO.N,Net-(J1-Pin_7)*%
X123240000Y-93500000D03*
%TO.P,J1,8,Pin_8*%
%TO.N,Net-(J1-Pin_8)*%
X125780000Y-93500000D03*
%TO.P,J1,9,Pin_9*%
%TO.N,Net-(J1-Pin_9)*%
X128320000Y-93500000D03*
%TD*%
D11*
%TO.P,SW8,1,1*%
%TO.N,Net-(J1-Pin_9)*%
X139000000Y-79000000D03*
X145500000Y-79000000D03*
%TO.P,SW8,2,2*%
%TO.N,GND*%
X139000000Y-83500000D03*
X145500000Y-83500000D03*
%TD*%
D14*
%TO.N,Net-(J1-Pin_9)*%
X139000000Y-79000000D02*
X128320000Y-89680000D01*
X128320000Y-89680000D02*
X128320000Y-93500000D01*
%TO.N,Net-(J1-Pin_2)*%
X99500000Y-88500000D02*
X109000000Y-88500000D01*
X93500000Y-82500000D02*
X99500000Y-88500000D01*
X109000000Y-88500000D02*
X110540000Y-90040000D01*
X110540000Y-90040000D02*
X110540000Y-93500000D01*
%TO.N,Net-(J1-Pin_3)*%
X102200000Y-84700000D02*
X102200000Y-80300000D01*
%TO.N,Net-(J1-Pin_7)*%
X131765076Y-77765076D02*
X128500000Y-74500000D01*
%TO.N,Net-(J1-Pin_3)*%
X110502081Y-85500000D02*
X103000000Y-85500000D01*
%TO.N,Net-(J1-Pin_4)*%
X115840000Y-93280000D02*
X115620000Y-93500000D01*
%TO.N,Net-(J1-Pin_5)*%
X118380000Y-81602540D02*
X117000000Y-80222540D01*
%TO.N,Net-(J1-Pin_4)*%
X94500000Y-67000000D02*
X99900000Y-72400000D01*
%TO.N,Net-(J1-Pin_6)*%
X119100000Y-79352692D02*
X120500000Y-80752692D01*
%TO.N,Net-(J1-Pin_3)*%
X113080000Y-93500000D02*
X113080000Y-88077919D01*
%TO.N,Net-(J1-Pin_7)*%
X131765076Y-80265076D02*
X131765076Y-77765076D01*
%TO.N,Net-(J1-Pin_8)*%
X140500000Y-63500000D02*
X136159798Y-67840202D01*
%TO.N,Net-(J1-Pin_5)*%
X117000000Y-67500000D02*
X113000000Y-63500000D01*
%TO.N,Net-(J1-Pin_3)*%
X113080000Y-88077919D02*
X110502081Y-85500000D01*
X102200000Y-80300000D02*
X104500000Y-78000000D01*
%TO.N,Net-(J1-Pin_5)*%
X118380000Y-93280000D02*
X118380000Y-81602540D01*
%TO.N,Net-(J1-Pin_4)*%
X114900000Y-81092388D02*
X115840000Y-82032388D01*
X114900000Y-78500000D02*
X114900000Y-81092388D01*
X99900000Y-72400000D02*
X108800000Y-72400000D01*
X108800000Y-72400000D02*
X114900000Y-78500000D01*
X115840000Y-82032388D02*
X115840000Y-93280000D01*
%TO.N,Net-(J1-Pin_5)*%
X117000000Y-80222540D02*
X117000000Y-67500000D01*
%TO.N,Net-(J1-Pin_6)*%
X120500000Y-80752692D02*
X120500000Y-93300000D01*
%TO.N,Net-(J1-Pin_8)*%
X136159798Y-78840202D02*
X125780000Y-89220000D01*
%TO.N,Net-(J1-Pin_5)*%
X118160000Y-93500000D02*
X118380000Y-93280000D01*
%TO.N,Net-(J1-Pin_7)*%
X123240000Y-93500000D02*
X123240000Y-88790152D01*
%TO.N,Net-(J1-Pin_3)*%
X103000000Y-85500000D02*
X102200000Y-84700000D01*
%TO.N,Net-(J1-Pin_5)*%
X113000000Y-63500000D02*
X112000000Y-63500000D01*
%TO.N,Net-(J1-Pin_6)*%
X123000000Y-60000000D02*
X119100000Y-63900000D01*
X119100000Y-63900000D02*
X119100000Y-79352692D01*
%TO.N,Net-(J1-Pin_7)*%
X123240000Y-88790152D02*
X131765076Y-80265076D01*
%TO.N,Net-(J1-Pin_6)*%
X120500000Y-93300000D02*
X120700000Y-93500000D01*
%TO.N,Net-(J1-Pin_8)*%
X136159798Y-67840202D02*
X136159798Y-78840202D01*
X125780000Y-89220000D02*
X125780000Y-93500000D01*
D15*
%TO.N,Net-(J1-Pin_9)*%
X128540000Y-93280000D02*
X128320000Y-93500000D01*
D14*
%TO.N,Net-(J1-Pin_3)*%
X107500000Y-78000000D02*
X104500000Y-78000000D01*
X111000000Y-78000000D02*
X107500000Y-78000000D01*
%TO.N,Net-(J1-Pin_2)*%
X93500000Y-82500000D02*
X87000000Y-82500000D01*
%TO.N,Net-(J1-Pin_4)*%
X94500000Y-67000000D02*
X88000000Y-67000000D01*
%TO.N,Net-(J1-Pin_5)*%
X112000000Y-63500000D02*
X105500000Y-63500000D01*
%TO.N,Net-(J1-Pin_6)*%
X129500000Y-60000000D02*
X123000000Y-60000000D01*
%TO.N,Net-(J1-Pin_7)*%
X128500000Y-74500000D02*
X126000000Y-74500000D01*
X126000000Y-74500000D02*
X122000000Y-74500000D01*
%TO.N,Net-(J1-Pin_8)*%
X147000000Y-63500000D02*
X140500000Y-63500000D01*
%TO.N,Net-(J1-Pin_9)*%
X139000000Y-79000000D02*
X145500000Y-79000000D01*
%TD*%
%TA.AperFunction,Conductor*%
%TO.N,GND*%
G36*
X150442539Y-55520185D02*
G01*
X150488294Y-55572989D01*
X150499500Y-55624500D01*
X150499500Y-94875500D01*
X150479815Y-94942539D01*
X150427011Y-94988294D01*
X150375500Y-94999500D01*
X128859196Y-94999500D01*
X128792157Y-94979815D01*
X128746402Y-94927011D01*
X128736458Y-94857853D01*
X128765483Y-94794297D01*
X128806791Y-94763118D01*
X128997830Y-94674035D01*
X129191401Y-94538495D01*
X129358495Y-94371401D01*
X129494035Y-94177830D01*
X129593903Y-93963663D01*
X129655063Y-93735408D01*
X129675659Y-93500000D01*
X129655063Y-93264592D01*
X129624725Y-93151367D01*
X129620500Y-93119274D01*
X129620500Y-90378711D01*
X144149500Y-90378711D01*
X144149500Y-90621288D01*
X144181161Y-90861785D01*
X144243947Y-91096104D01*
X144336773Y-91320205D01*
X144336776Y-91320212D01*
X144458064Y-91530289D01*
X144458066Y-91530292D01*
X144458067Y-91530293D01*
X144605733Y-91722736D01*
X144605739Y-91722743D01*
X144777256Y-91894260D01*
X144777262Y-91894265D01*
X144969711Y-92041936D01*
X145179788Y-92163224D01*
X145403900Y-92256054D01*
X145638211Y-92318838D01*
X145818586Y-92342584D01*
X145878711Y-92350500D01*
X145878712Y-92350500D01*
X146121289Y-92350500D01*
X146169388Y-92344167D01*
X146361789Y-92318838D01*
X146596100Y-92256054D01*
X146820212Y-92163224D01*
X147030289Y-92041936D01*
X147222738Y-91894265D01*
X147394265Y-91722738D01*
X147541936Y-91530289D01*
X147663224Y-91320212D01*
X147756054Y-91096100D01*
X147818838Y-90861789D01*
X147850500Y-90621288D01*
X147850500Y-90378712D01*
X147818838Y-90138211D01*
X147756054Y-89903900D01*
X147663224Y-89679788D01*
X147541936Y-89469711D01*
X147394265Y-89277262D01*
X147394260Y-89277256D01*
X147222743Y-89105739D01*
X147222736Y-89105733D01*
X147030293Y-88958067D01*
X147030292Y-88958066D01*
X147030289Y-88958064D01*
X146820212Y-88836776D01*
X146820205Y-88836773D01*
X146596104Y-88743947D01*
X146361785Y-88681161D01*
X146121289Y-88649500D01*
X146121288Y-88649500D01*
X145878712Y-88649500D01*
X145878711Y-88649500D01*
X145638214Y-88681161D01*
X145403895Y-88743947D01*
X145179794Y-88836773D01*
X145179785Y-88836777D01*
X144969706Y-88958067D01*
X144777263Y-89105733D01*
X144777256Y-89105739D01*
X144605739Y-89277256D01*
X144605733Y-89277263D01*
X144458067Y-89469706D01*
X144336777Y-89679785D01*
X144336773Y-89679794D01*
X144243947Y-89903895D01*
X144181161Y-90138214D01*
X144149500Y-90378711D01*
X129620500Y-90378711D01*
X129620500Y-90270045D01*
X129640185Y-90203006D01*
X129656814Y-90182369D01*
X139364556Y-80474626D01*
X139411968Y-80445029D01*
X139604810Y-80378828D01*
X139721931Y-80315444D01*
X139780949Y-80300500D01*
X144719051Y-80300500D01*
X144778068Y-80315444D01*
X144895190Y-80378828D01*
X145130386Y-80459571D01*
X145375665Y-80500500D01*
X145624335Y-80500500D01*
X145869614Y-80459571D01*
X146104810Y-80378828D01*
X146323509Y-80260474D01*
X146519744Y-80107738D01*
X146688164Y-79924785D01*
X146824173Y-79716607D01*
X146924063Y-79488881D01*
X146985108Y-79247821D01*
X147005643Y-79000000D01*
X146999410Y-78924782D01*
X146985109Y-78752187D01*
X146985107Y-78752175D01*
X146924063Y-78511118D01*
X146824173Y-78283393D01*
X146688166Y-78075217D01*
X146666557Y-78051744D01*
X146519744Y-77892262D01*
X146323509Y-77739526D01*
X146323507Y-77739525D01*
X146323506Y-77739524D01*
X146104811Y-77621172D01*
X146104802Y-77621169D01*
X145869616Y-77540429D01*
X145624335Y-77499500D01*
X145375665Y-77499500D01*
X145130383Y-77540429D01*
X144895197Y-77621169D01*
X144895188Y-77621172D01*
X144778069Y-77684555D01*
X144719051Y-77699500D01*
X143788189Y-77699500D01*
X143721150Y-77679815D01*
X143675395Y-77627011D01*
X143664189Y-77575500D01*
X143664189Y-76373466D01*
X140835811Y-76373466D01*
X140835811Y-77575500D01*
X140816126Y-77642539D01*
X140763322Y-77688294D01*
X140711811Y-77699500D01*
X139780949Y-77699500D01*
X139721931Y-77684555D01*
X139604811Y-77621172D01*
X139604802Y-77621169D01*
X139369616Y-77540429D01*
X139124335Y-77499500D01*
X138875665Y-77499500D01*
X138630383Y-77540429D01*
X138395197Y-77621169D01*
X138395188Y-77621172D01*
X138176493Y-77739524D01*
X137980257Y-77892261D01*
X137811833Y-78075217D01*
X137688107Y-78264596D01*
X137634960Y-78309953D01*
X137565729Y-78319377D01*
X137502393Y-78289875D01*
X137465062Y-78230815D01*
X137460298Y-78196775D01*
X137460298Y-68430247D01*
X137479983Y-68363208D01*
X137496612Y-68342571D01*
X140864556Y-64974626D01*
X140911968Y-64945029D01*
X141104810Y-64878828D01*
X141221931Y-64815444D01*
X141280949Y-64800500D01*
X146219051Y-64800500D01*
X146278068Y-64815444D01*
X146395190Y-64878828D01*
X146630386Y-64959571D01*
X146875665Y-65000500D01*
X147124335Y-65000500D01*
X147369614Y-64959571D01*
X147604810Y-64878828D01*
X147823509Y-64760474D01*
X148019744Y-64607738D01*
X148188164Y-64424785D01*
X148324173Y-64216607D01*
X148424063Y-63988881D01*
X148485108Y-63747821D01*
X148505643Y-63500000D01*
X148497421Y-63400781D01*
X148485109Y-63252187D01*
X148485107Y-63252175D01*
X148424063Y-63011118D01*
X148324173Y-62783393D01*
X148188166Y-62575217D01*
X148126321Y-62508036D01*
X148019744Y-62392262D01*
X147823509Y-62239526D01*
X147823507Y-62239525D01*
X147823506Y-62239524D01*
X147604811Y-62121172D01*
X147604802Y-62121169D01*
X147369616Y-62040429D01*
X147124335Y-61999500D01*
X146875665Y-61999500D01*
X146630383Y-62040429D01*
X146395197Y-62121169D01*
X146395188Y-62121172D01*
X146278069Y-62184555D01*
X146219051Y-62199500D01*
X145335128Y-62199500D01*
X145268089Y-62179815D01*
X145222334Y-62127011D01*
X145211128Y-62075500D01*
X145211128Y-60873466D01*
X142335811Y-60873466D01*
X142335811Y-62075500D01*
X142316126Y-62142539D01*
X142263322Y-62188294D01*
X142211811Y-62199500D01*
X141280949Y-62199500D01*
X141221931Y-62184555D01*
X141104811Y-62121172D01*
X141104802Y-62121169D01*
X140869616Y-62040429D01*
X140624335Y-61999500D01*
X140375665Y-61999500D01*
X140130383Y-62040429D01*
X139895197Y-62121169D01*
X139895188Y-62121172D01*
X139676493Y-62239524D01*
X139480257Y-62392261D01*
X139311833Y-62575217D01*
X139175826Y-62783393D01*
X139075938Y-63011114D01*
X139075937Y-63011118D01*
X139059305Y-63076794D01*
X139026781Y-63134033D01*
X135167834Y-66992980D01*
X135047511Y-67158590D01*
X135002046Y-67247821D01*
X134954579Y-67340978D01*
X134922949Y-67438326D01*
X134891321Y-67535665D01*
X134862663Y-67716605D01*
X134862663Y-67716606D01*
X134859298Y-67737850D01*
X134859298Y-78250155D01*
X134839613Y-78317194D01*
X134822979Y-78337836D01*
X133277257Y-79883558D01*
X133215934Y-79917043D01*
X133146242Y-79912059D01*
X133090309Y-79870187D01*
X133065892Y-79804723D01*
X133065576Y-79795877D01*
X133065576Y-77662724D01*
X133062379Y-77642539D01*
X133033553Y-77460542D01*
X133001925Y-77363200D01*
X132970298Y-77265860D01*
X132970297Y-77265857D01*
X132877362Y-77083465D01*
X132809362Y-76989870D01*
X132793713Y-76968331D01*
X132757047Y-76917863D01*
X132757044Y-76917860D01*
X132757042Y-76917857D01*
X132612295Y-76773110D01*
X132612294Y-76773109D01*
X132609183Y-76769998D01*
X132609168Y-76769984D01*
X129973218Y-74134033D01*
X129940693Y-74076791D01*
X129924063Y-74011119D01*
X129824173Y-73783393D01*
X129688166Y-73575217D01*
X129666557Y-73551744D01*
X129519744Y-73392262D01*
X129323509Y-73239526D01*
X129323507Y-73239525D01*
X129323506Y-73239524D01*
X129104811Y-73121172D01*
X129104802Y-73121169D01*
X128869616Y-73040429D01*
X128624335Y-72999500D01*
X128375665Y-72999500D01*
X128130383Y-73040429D01*
X127895197Y-73121169D01*
X127895188Y-73121172D01*
X127778069Y-73184555D01*
X127719051Y-73199500D01*
X126788189Y-73199500D01*
X126721150Y-73179815D01*
X126675395Y-73127011D01*
X126664189Y-73075500D01*
X126664189Y-71873466D01*
X123835811Y-71873466D01*
X123835811Y-73075500D01*
X123816126Y-73142539D01*
X123763322Y-73188294D01*
X123711811Y-73199500D01*
X122780949Y-73199500D01*
X122721931Y-73184555D01*
X122604811Y-73121172D01*
X122604802Y-73121169D01*
X122369616Y-73040429D01*
X122124335Y-72999500D01*
X121875665Y-72999500D01*
X121630383Y-73040429D01*
X121395197Y-73121169D01*
X121395188Y-73121172D01*
X121176493Y-73239524D01*
X120980257Y-73392261D01*
X120811833Y-73575217D01*
X120675826Y-73783393D01*
X120638056Y-73869501D01*
X120593100Y-73922987D01*
X120526364Y-73943677D01*
X120459036Y-73925002D01*
X120412493Y-73872892D01*
X120400500Y-73819691D01*
X120400500Y-64490046D01*
X120420185Y-64423007D01*
X120436814Y-64402370D01*
X123364557Y-61474626D01*
X123411969Y-61445029D01*
X123604810Y-61378828D01*
X123721931Y-61315444D01*
X123780949Y-61300500D01*
X128719051Y-61300500D01*
X128778068Y-61315444D01*
X128895190Y-61378828D01*
X129130386Y-61459571D01*
X129375665Y-61500500D01*
X129624335Y-61500500D01*
X129869614Y-61459571D01*
X130104810Y-61378828D01*
X130323509Y-61260474D01*
X130519744Y-61107738D01*
X130688164Y-60924785D01*
X130824173Y-60716607D01*
X130924063Y-60488881D01*
X130985108Y-60247821D01*
X131005643Y-60000000D01*
X130985108Y-59752179D01*
X130924063Y-59511119D01*
X130877032Y-59403900D01*
X130824173Y-59283393D01*
X130688166Y-59075217D01*
X130666557Y-59051744D01*
X130519744Y-58892262D01*
X130323509Y-58739526D01*
X130323507Y-58739525D01*
X130323506Y-58739524D01*
X130104811Y-58621172D01*
X130104802Y-58621169D01*
X129869616Y-58540429D01*
X129624335Y-58499500D01*
X129375665Y-58499500D01*
X129130383Y-58540429D01*
X128895197Y-58621169D01*
X128895188Y-58621172D01*
X128778069Y-58684555D01*
X128719051Y-58699500D01*
X127788189Y-58699500D01*
X127721150Y-58679815D01*
X127675395Y-58627011D01*
X127664189Y-58575500D01*
X127664189Y-57373466D01*
X124835811Y-57373466D01*
X124835811Y-58575500D01*
X124816126Y-58642539D01*
X124763322Y-58688294D01*
X124711811Y-58699500D01*
X123780949Y-58699500D01*
X123721931Y-58684555D01*
X123604811Y-58621172D01*
X123604802Y-58621169D01*
X123369616Y-58540429D01*
X123124335Y-58499500D01*
X122875665Y-58499500D01*
X122630383Y-58540429D01*
X122395197Y-58621169D01*
X122395188Y-58621172D01*
X122176493Y-58739524D01*
X121980257Y-58892261D01*
X121811833Y-59075217D01*
X121675826Y-59283393D01*
X121575939Y-59511112D01*
X121575936Y-59511123D01*
X121559305Y-59576793D01*
X121526781Y-59634032D01*
X118108036Y-63052778D01*
X117987713Y-63218388D01*
X117941246Y-63309585D01*
X117941245Y-63309584D01*
X117894333Y-63401655D01*
X117893272Y-63405420D01*
X117831523Y-63595463D01*
X117831523Y-63595465D01*
X117830432Y-63602349D01*
X117830432Y-63602350D01*
X117799500Y-63797648D01*
X117799500Y-66160953D01*
X117779815Y-66227992D01*
X117727011Y-66273747D01*
X117657853Y-66283691D01*
X117594297Y-66254666D01*
X117587819Y-66248634D01*
X113847221Y-62508036D01*
X113847219Y-62508034D01*
X113681611Y-62387713D01*
X113590414Y-62341246D01*
X113499219Y-62294780D01*
X113329165Y-62239526D01*
X113304535Y-62231523D01*
X113304531Y-62231522D01*
X113304530Y-62231522D01*
X113189735Y-62213340D01*
X113102352Y-62199500D01*
X113102351Y-62199500D01*
X112780949Y-62199500D01*
X112721931Y-62184555D01*
X112604811Y-62121172D01*
X112604802Y-62121169D01*
X112369616Y-62040429D01*
X112124335Y-61999500D01*
X111875665Y-61999500D01*
X111630383Y-62040429D01*
X111395197Y-62121169D01*
X111395188Y-62121172D01*
X111278069Y-62184555D01*
X111219051Y-62199500D01*
X110334952Y-62199500D01*
X110267913Y-62179815D01*
X110222158Y-62127011D01*
X110210952Y-62075500D01*
X110210952Y-60826345D01*
X107335811Y-60826345D01*
X107335811Y-62075500D01*
X107316126Y-62142539D01*
X107263322Y-62188294D01*
X107211811Y-62199500D01*
X106280949Y-62199500D01*
X106221931Y-62184555D01*
X106104811Y-62121172D01*
X106104802Y-62121169D01*
X105869616Y-62040429D01*
X105624335Y-61999500D01*
X105375665Y-61999500D01*
X105130383Y-62040429D01*
X104895197Y-62121169D01*
X104895188Y-62121172D01*
X104676493Y-62239524D01*
X104480257Y-62392261D01*
X104311833Y-62575217D01*
X104175826Y-62783393D01*
X104075936Y-63011118D01*
X104014892Y-63252175D01*
X104014890Y-63252187D01*
X103994357Y-63499994D01*
X103994357Y-63500005D01*
X104014890Y-63747812D01*
X104014892Y-63747824D01*
X104075936Y-63988881D01*
X104175826Y-64216606D01*
X104311833Y-64424782D01*
X104311836Y-64424785D01*
X104480256Y-64607738D01*
X104676491Y-64760474D01*
X104895190Y-64878828D01*
X105130386Y-64959571D01*
X105375665Y-65000500D01*
X105624335Y-65000500D01*
X105869614Y-64959571D01*
X106104810Y-64878828D01*
X106221931Y-64815444D01*
X106280949Y-64800500D01*
X111219051Y-64800500D01*
X111278068Y-64815444D01*
X111395190Y-64878828D01*
X111630386Y-64959571D01*
X111875665Y-65000500D01*
X112124335Y-65000500D01*
X112369614Y-64959571D01*
X112384842Y-64954343D01*
X112483088Y-64920614D01*
X112552883Y-64917465D01*
X112611030Y-64950215D01*
X115663181Y-68002366D01*
X115696666Y-68063689D01*
X115699500Y-68090047D01*
X115699500Y-77160953D01*
X115679815Y-77227992D01*
X115627011Y-77273747D01*
X115557853Y-77283691D01*
X115494297Y-77254666D01*
X115487819Y-77248634D01*
X109647221Y-71408036D01*
X109647219Y-71408034D01*
X109481611Y-71287713D01*
X109390414Y-71241246D01*
X109299223Y-71194781D01*
X109252515Y-71179604D01*
X109201876Y-71163151D01*
X109178003Y-71155394D01*
X109104535Y-71131522D01*
X108929995Y-71103878D01*
X108902352Y-71099500D01*
X108902351Y-71099500D01*
X100490047Y-71099500D01*
X100423008Y-71079815D01*
X100402366Y-71063181D01*
X95973218Y-66634033D01*
X95940693Y-66576791D01*
X95924063Y-66511119D01*
X95824173Y-66283393D01*
X95688166Y-66075217D01*
X95666557Y-66051744D01*
X95519744Y-65892262D01*
X95323509Y-65739526D01*
X95323507Y-65739525D01*
X95323506Y-65739524D01*
X95104811Y-65621172D01*
X95104802Y-65621169D01*
X94869616Y-65540429D01*
X94624335Y-65499500D01*
X94375665Y-65499500D01*
X94130383Y-65540429D01*
X93895197Y-65621169D01*
X93895188Y-65621172D01*
X93778069Y-65684555D01*
X93719051Y-65699500D01*
X92788189Y-65699500D01*
X92721150Y-65679815D01*
X92675395Y-65627011D01*
X92664189Y-65575500D01*
X92664189Y-64373466D01*
X89835811Y-64373466D01*
X89835811Y-65575500D01*
X89816126Y-65642539D01*
X89763322Y-65688294D01*
X89711811Y-65699500D01*
X88780949Y-65699500D01*
X88721931Y-65684555D01*
X88604811Y-65621172D01*
X88604802Y-65621169D01*
X88369616Y-65540429D01*
X88124335Y-65499500D01*
X87875665Y-65499500D01*
X87630383Y-65540429D01*
X87395197Y-65621169D01*
X87395188Y-65621172D01*
X87176493Y-65739524D01*
X86980257Y-65892261D01*
X86811833Y-66075217D01*
X86675826Y-66283393D01*
X86575936Y-66511118D01*
X86514892Y-66752175D01*
X86514890Y-66752187D01*
X86494357Y-66999994D01*
X86494357Y-67000005D01*
X86514890Y-67247812D01*
X86514892Y-67247821D01*
X86575936Y-67488881D01*
X86675826Y-67716606D01*
X86811833Y-67924782D01*
X86811836Y-67924785D01*
X86980256Y-68107738D01*
X87176491Y-68260474D01*
X87395190Y-68378828D01*
X87630386Y-68459571D01*
X87875665Y-68500500D01*
X88124335Y-68500500D01*
X88369614Y-68459571D01*
X88604810Y-68378828D01*
X88721931Y-68315444D01*
X88780949Y-68300500D01*
X93719051Y-68300500D01*
X93778069Y-68315445D01*
X93895188Y-68378827D01*
X93895200Y-68378832D01*
X94088024Y-68445028D01*
X94135443Y-68474628D01*
X99052781Y-73391966D01*
X99218389Y-73512287D01*
X99309585Y-73558753D01*
X99400780Y-73605220D01*
X99400786Y-73605222D01*
X99451147Y-73621584D01*
X99498121Y-73636847D01*
X99498122Y-73636848D01*
X99522458Y-73644755D01*
X99595465Y-73668477D01*
X99797648Y-73700500D01*
X108209953Y-73700500D01*
X108276992Y-73720185D01*
X108297634Y-73736819D01*
X109647410Y-75086595D01*
X110863569Y-76302753D01*
X110897054Y-76364076D01*
X110892070Y-76433768D01*
X110850198Y-76489701D01*
X110796298Y-76512743D01*
X110630382Y-76540429D01*
X110395197Y-76621169D01*
X110395188Y-76621172D01*
X110278069Y-76684555D01*
X110219051Y-76699500D01*
X109288189Y-76699500D01*
X109221150Y-76679815D01*
X109175395Y-76627011D01*
X109164189Y-76575500D01*
X109164189Y-75373466D01*
X106335811Y-75373466D01*
X106335811Y-76575500D01*
X106316126Y-76642539D01*
X106263322Y-76688294D01*
X106211811Y-76699500D01*
X105280949Y-76699500D01*
X105221931Y-76684555D01*
X105104811Y-76621172D01*
X105104802Y-76621169D01*
X104869616Y-76540429D01*
X104624335Y-76499500D01*
X104375665Y-76499500D01*
X104130383Y-76540429D01*
X103895197Y-76621169D01*
X103895188Y-76621172D01*
X103676493Y-76739524D01*
X103480257Y-76892261D01*
X103311833Y-77075217D01*
X103175826Y-77283393D01*
X103075939Y-77511112D01*
X103075936Y-77511123D01*
X103059305Y-77576793D01*
X103026781Y-77634032D01*
X101208036Y-79452778D01*
X101087716Y-79618384D01*
X101087714Y-79618387D01*
X101061592Y-79669655D01*
X100994781Y-79800776D01*
X100993499Y-79804723D01*
X100978167Y-79851910D01*
X100971170Y-79873444D01*
X100931522Y-79995467D01*
X100931522Y-79995468D01*
X100899500Y-80197648D01*
X100899500Y-84802357D01*
X100930925Y-85000767D01*
X100930926Y-85000767D01*
X100930928Y-85000781D01*
X100931523Y-85004534D01*
X100994780Y-85199219D01*
X101041246Y-85290414D01*
X101087713Y-85381611D01*
X101208034Y-85547219D01*
X101208035Y-85547220D01*
X101208036Y-85547221D01*
X102004908Y-86344092D01*
X102004922Y-86344107D01*
X102008033Y-86347218D01*
X102008034Y-86347219D01*
X102152781Y-86491966D01*
X102152784Y-86491968D01*
X102152787Y-86491971D01*
X102197456Y-86524424D01*
X102235585Y-86552126D01*
X102318389Y-86612287D01*
X102409585Y-86658753D01*
X102500780Y-86705220D01*
X102500786Y-86705222D01*
X102551147Y-86721584D01*
X102598121Y-86736847D01*
X102598122Y-86736848D01*
X102644974Y-86752071D01*
X102695465Y-86768477D01*
X102796557Y-86784488D01*
X102897648Y-86800500D01*
X102897649Y-86800500D01*
X103102352Y-86800500D01*
X109912034Y-86800500D01*
X109979073Y-86820185D01*
X109999715Y-86836819D01*
X111743181Y-88580285D01*
X111776666Y-88641608D01*
X111779500Y-88667966D01*
X111779500Y-89151849D01*
X111759815Y-89218888D01*
X111707011Y-89264643D01*
X111637853Y-89274587D01*
X111574297Y-89245562D01*
X111555182Y-89224734D01*
X111531972Y-89192788D01*
X111531968Y-89192784D01*
X111531966Y-89192781D01*
X111387219Y-89048034D01*
X111387218Y-89048033D01*
X111384107Y-89044922D01*
X111384092Y-89044908D01*
X109847221Y-87508036D01*
X109847220Y-87508035D01*
X109847219Y-87508034D01*
X109681611Y-87387713D01*
X109590414Y-87341246D01*
X109499223Y-87294781D01*
X109452515Y-87279604D01*
X109401876Y-87263151D01*
X109378003Y-87255394D01*
X109304535Y-87231522D01*
X109129995Y-87203878D01*
X109102352Y-87199500D01*
X109102351Y-87199500D01*
X100090047Y-87199500D01*
X100023008Y-87179815D01*
X100002366Y-87163181D01*
X94973218Y-82134033D01*
X94940693Y-82076791D01*
X94924063Y-82011119D01*
X94824173Y-81783393D01*
X94688166Y-81575217D01*
X94591579Y-81470296D01*
X94519744Y-81392262D01*
X94323509Y-81239526D01*
X94323507Y-81239525D01*
X94323506Y-81239524D01*
X94104811Y-81121172D01*
X94104802Y-81121169D01*
X93869616Y-81040429D01*
X93624335Y-80999500D01*
X93375665Y-80999500D01*
X93130383Y-81040429D01*
X92895197Y-81121169D01*
X92895188Y-81121172D01*
X92778069Y-81184555D01*
X92719051Y-81199500D01*
X91787333Y-81199500D01*
X91720294Y-81179815D01*
X91674539Y-81127011D01*
X91663333Y-81075500D01*
X91663333Y-79873444D01*
X88835811Y-79873444D01*
X88835811Y-81075500D01*
X88816126Y-81142539D01*
X88763322Y-81188294D01*
X88711811Y-81199500D01*
X87780949Y-81199500D01*
X87721931Y-81184555D01*
X87604811Y-81121172D01*
X87604802Y-81121169D01*
X87369616Y-81040429D01*
X87124335Y-80999500D01*
X86875665Y-80999500D01*
X86630383Y-81040429D01*
X86395197Y-81121169D01*
X86395188Y-81121172D01*
X86176493Y-81239524D01*
X85980257Y-81392261D01*
X85811833Y-81575217D01*
X85675826Y-81783393D01*
X85575936Y-82011118D01*
X85514892Y-82252175D01*
X85514890Y-82252187D01*
X85494357Y-82499994D01*
X85494357Y-82500005D01*
X85514890Y-82747812D01*
X85514892Y-82747824D01*
X85575936Y-82988881D01*
X85675826Y-83216606D01*
X85811833Y-83424782D01*
X85811836Y-83424785D01*
X85980256Y-83607738D01*
X86176491Y-83760474D01*
X86395190Y-83878828D01*
X86630386Y-83959571D01*
X86875665Y-84000500D01*
X87124335Y-84000500D01*
X87369614Y-83959571D01*
X87604810Y-83878828D01*
X87721931Y-83815444D01*
X87780949Y-83800500D01*
X92719051Y-83800500D01*
X92778069Y-83815445D01*
X92895188Y-83878827D01*
X92895200Y-83878832D01*
X93088024Y-83945028D01*
X93135443Y-83974628D01*
X98652786Y-89491971D01*
X98807749Y-89604556D01*
X98818390Y-89612287D01*
X98934607Y-89671503D01*
X99000776Y-89705218D01*
X99000778Y-89705218D01*
X99000781Y-89705220D01*
X99105137Y-89739127D01*
X99195465Y-89768477D01*
X99296557Y-89784488D01*
X99397648Y-89800500D01*
X99602351Y-89800500D01*
X108409953Y-89800500D01*
X108476992Y-89820185D01*
X108497634Y-89836819D01*
X109203181Y-90542365D01*
X109236666Y-90603688D01*
X109239500Y-90630046D01*
X109239500Y-93119274D01*
X109235275Y-93151367D01*
X109204938Y-93264586D01*
X109204936Y-93264596D01*
X109184341Y-93499999D01*
X109184341Y-93500000D01*
X109204936Y-93735403D01*
X109204938Y-93735413D01*
X109266094Y-93963655D01*
X109266096Y-93963659D01*
X109266097Y-93963663D01*
X109360702Y-94166544D01*
X109365965Y-94177830D01*
X109365967Y-94177834D01*
X109447508Y-94294285D01*
X109501505Y-94371401D01*
X109668599Y-94538495D01*
X109765384Y-94606265D01*
X109862165Y-94674032D01*
X109862167Y-94674033D01*
X109862170Y-94674035D01*
X110053209Y-94763118D01*
X110105648Y-94809290D01*
X110124800Y-94876484D01*
X110104584Y-94943365D01*
X110051419Y-94988700D01*
X110000804Y-94999500D01*
X83124500Y-94999500D01*
X83057461Y-94979815D01*
X83011706Y-94927011D01*
X83000500Y-94875500D01*
X83000500Y-94294285D01*
X104653445Y-94294285D01*
X105815675Y-94294285D01*
X105815675Y-92753333D01*
X104653445Y-92753333D01*
X104653445Y-94294285D01*
X83000500Y-94294285D01*
X83000500Y-59878711D01*
X85649500Y-59878711D01*
X85649500Y-60121288D01*
X85681161Y-60361785D01*
X85743947Y-60596104D01*
X85836773Y-60820205D01*
X85836776Y-60820212D01*
X85958064Y-61030289D01*
X85958066Y-61030292D01*
X85958067Y-61030293D01*
X86105733Y-61222736D01*
X86105739Y-61222743D01*
X86277256Y-61394260D01*
X86277262Y-61394265D01*
X86469711Y-61541936D01*
X86679788Y-61663224D01*
X86903900Y-61756054D01*
X87138211Y-61818838D01*
X87318586Y-61842584D01*
X87378711Y-61850500D01*
X87378712Y-61850500D01*
X87621289Y-61850500D01*
X87669388Y-61844167D01*
X87861789Y-61818838D01*
X88096100Y-61756054D01*
X88320212Y-61663224D01*
X88530289Y-61541936D01*
X88722738Y-61394265D01*
X88894265Y-61222738D01*
X89041936Y-61030289D01*
X89163224Y-60820212D01*
X89256054Y-60596100D01*
X89318838Y-60361789D01*
X89350500Y-60121288D01*
X89350500Y-59878712D01*
X89318838Y-59638211D01*
X89256054Y-59403900D01*
X89163224Y-59179788D01*
X89041936Y-58969711D01*
X88894265Y-58777262D01*
X88894260Y-58777256D01*
X88722743Y-58605739D01*
X88722736Y-58605733D01*
X88530293Y-58458067D01*
X88530292Y-58458066D01*
X88530289Y-58458064D01*
X88320212Y-58336776D01*
X88320205Y-58336773D01*
X88096104Y-58243947D01*
X87861785Y-58181161D01*
X87621289Y-58149500D01*
X87621288Y-58149500D01*
X87378712Y-58149500D01*
X87378711Y-58149500D01*
X87138214Y-58181161D01*
X86903895Y-58243947D01*
X86679794Y-58336773D01*
X86679785Y-58336777D01*
X86469706Y-58458067D01*
X86277263Y-58605733D01*
X86277256Y-58605739D01*
X86105739Y-58777256D01*
X86105733Y-58777263D01*
X85958067Y-58969706D01*
X85836777Y-59179785D01*
X85836773Y-59179794D01*
X85743947Y-59403895D01*
X85681161Y-59638214D01*
X85649500Y-59878711D01*
X83000500Y-59878711D01*
X83000500Y-55624500D01*
X83020185Y-55557461D01*
X83072989Y-55511706D01*
X83124500Y-55500500D01*
X150375500Y-55500500D01*
X150442539Y-55520185D01*
G37*
%TD.AperFunction*%
%TA.AperFunction,Conductor*%
G36*
X120605703Y-75086595D02*
G01*
X120638056Y-75130498D01*
X120675826Y-75216606D01*
X120811833Y-75424782D01*
X120811836Y-75424785D01*
X120980256Y-75607738D01*
X121176491Y-75760474D01*
X121395190Y-75878828D01*
X121630386Y-75959571D01*
X121875665Y-76000500D01*
X122124335Y-76000500D01*
X122369614Y-75959571D01*
X122604810Y-75878828D01*
X122721931Y-75815444D01*
X122780949Y-75800500D01*
X125897648Y-75800500D01*
X127719051Y-75800500D01*
X127778069Y-75815445D01*
X127895188Y-75878827D01*
X127895200Y-75878832D01*
X128088024Y-75945028D01*
X128135443Y-75974628D01*
X130428257Y-78267441D01*
X130461742Y-78328764D01*
X130464576Y-78355122D01*
X130464576Y-79675029D01*
X130444891Y-79742068D01*
X130428257Y-79762710D01*
X122248036Y-87942930D01*
X122127713Y-88108540D01*
X122091165Y-88180271D01*
X122034985Y-88290530D01*
X121987010Y-88341326D01*
X121919189Y-88358121D01*
X121853054Y-88335584D01*
X121809603Y-88280868D01*
X121800500Y-88234235D01*
X121800500Y-80650335D01*
X121785861Y-80557913D01*
X121785861Y-80557912D01*
X121768477Y-80448157D01*
X121710095Y-80268477D01*
X121705220Y-80253473D01*
X121630964Y-80107738D01*
X121612287Y-80071081D01*
X121491966Y-79905473D01*
X120436819Y-78850326D01*
X120403334Y-78789003D01*
X120400500Y-78762645D01*
X120400500Y-75180308D01*
X120420185Y-75113269D01*
X120472989Y-75067514D01*
X120542147Y-75057570D01*
X120605703Y-75086595D01*
G37*
%TD.AperFunction*%
%TA.AperFunction,Conductor*%
G36*
X112699030Y-78138214D02*
G01*
X113563181Y-79002365D01*
X113596666Y-79063688D01*
X113599500Y-79090046D01*
X113599500Y-80990036D01*
X113599500Y-81194740D01*
X113609163Y-81255752D01*
X113631522Y-81396919D01*
X113631522Y-81396920D01*
X113655364Y-81470297D01*
X113694778Y-81591604D01*
X113694780Y-81591607D01*
X113725950Y-81652781D01*
X113787713Y-81773999D01*
X113908034Y-81939607D01*
X114220614Y-82252187D01*
X114503181Y-82534753D01*
X114536666Y-82596076D01*
X114539500Y-82622434D01*
X114539500Y-87578388D01*
X114519815Y-87645427D01*
X114467011Y-87691182D01*
X114397853Y-87701126D01*
X114334297Y-87672101D01*
X114297569Y-87616707D01*
X114285220Y-87578700D01*
X114238753Y-87487504D01*
X114192287Y-87396308D01*
X114071966Y-87230700D01*
X111349300Y-84508034D01*
X111183692Y-84387713D01*
X111092495Y-84341246D01*
X111001304Y-84294781D01*
X110954596Y-84279604D01*
X110903957Y-84263151D01*
X110880084Y-84255394D01*
X110806616Y-84231522D01*
X110632076Y-84203878D01*
X110604433Y-84199500D01*
X110604432Y-84199500D01*
X103624500Y-84199500D01*
X103557461Y-84179815D01*
X103511706Y-84127011D01*
X103500500Y-84075500D01*
X103500500Y-80890046D01*
X103520185Y-80823007D01*
X103536814Y-80802370D01*
X104864557Y-79474626D01*
X104911969Y-79445029D01*
X105104810Y-79378828D01*
X105221931Y-79315444D01*
X105280949Y-79300500D01*
X107397648Y-79300500D01*
X110219051Y-79300500D01*
X110278068Y-79315444D01*
X110395190Y-79378828D01*
X110630386Y-79459571D01*
X110875665Y-79500500D01*
X111124335Y-79500500D01*
X111369614Y-79459571D01*
X111604810Y-79378828D01*
X111823509Y-79260474D01*
X112019744Y-79107738D01*
X112188164Y-78924785D01*
X112324173Y-78716607D01*
X112424063Y-78488881D01*
X112485108Y-78247821D01*
X112487773Y-78215654D01*
X112512924Y-78150472D01*
X112569325Y-78109233D01*
X112639069Y-78105033D01*
X112699030Y-78138214D01*
G37*
%TD.AperFunction*%
%TD*%
M02*
