M48
METRIC
T1C1.000
T2C1.100
T3C3.200
%
G90
G05
T1
X108.0Y-93.5
X110.54Y-93.5
X113.08Y-93.5
X115.62Y-93.5
X118.16Y-93.5
X120.7Y-93.5
X123.24Y-93.5
X125.78Y-93.5
X128.32Y-93.5
T2
X87.0Y-82.5
X87.0Y-87.0
X88.0Y-67.0
X88.0Y-71.5
X93.5Y-82.5
X93.5Y-87.0
X94.5Y-67.0
X94.5Y-71.5
X104.5Y-78.0
X104.5Y-82.5
X105.5Y-63.5
X105.5Y-68.0
X111.0Y-78.0
X111.0Y-82.5
X112.0Y-63.5
X112.0Y-68.0
X122.0Y-74.5
X122.0Y-79.0
X123.0Y-60.0
X123.0Y-64.5
X128.5Y-74.5
X128.5Y-79.0
X129.5Y-60.0
X129.5Y-64.5
X139.0Y-79.0
X139.0Y-83.5
X140.5Y-63.5
X140.5Y-68.0
X145.5Y-79.0
X145.5Y-83.5
X147.0Y-63.5
X147.0Y-68.0
T3
X87.5Y-60.0
X146.0Y-90.5
M30
